<mxfile host="app.diagrams.net" agent="Mozilla/5.0 (Windows NT 10.0; Win64; x64) AppleWebKit/537.36 (KHTML, like Gecko) Chrome/130.0.0.0 Safari/537.36 Edg/130.0.0.0" version="24.8.4">
  <diagram id="C5RBs43oDa-KdzZeNtuy" name="Page-1">
    <mxGraphModel dx="1577" dy="1005" grid="1" gridSize="10" guides="0" tooltips="1" connect="1" arrows="1" fold="1" page="1" pageScale="1" pageWidth="827" pageHeight="1169" math="0" shadow="0">
      <root>
        <mxCell id="WIyWlLk6GJQsqaUBKTNV-0" />
        <mxCell id="WIyWlLk6GJQsqaUBKTNV-1" parent="WIyWlLk6GJQsqaUBKTNV-0" />
        <mxCell id="EvqnDXT1oabTCesrc9GO-32" style="edgeStyle=orthogonalEdgeStyle;rounded=0;orthogonalLoop=1;jettySize=auto;html=1;entryX=0.483;entryY=0.056;entryDx=0;entryDy=0;entryPerimeter=0;" parent="WIyWlLk6GJQsqaUBKTNV-1" source="EvqnDXT1oabTCesrc9GO-26" target="bh0eh2vKuY1DpMpfhebL-45" edge="1">
          <mxGeometry relative="1" as="geometry">
            <mxPoint x="1068" y="300" as="targetPoint" />
          </mxGeometry>
        </mxCell>
        <mxCell id="EvqnDXT1oabTCesrc9GO-51" value="Pull recent changes" style="edgeLabel;html=1;align=center;verticalAlign=middle;resizable=0;points=[];" parent="EvqnDXT1oabTCesrc9GO-32" vertex="1" connectable="0">
          <mxGeometry x="-0.1796" y="1" relative="1" as="geometry">
            <mxPoint as="offset" />
          </mxGeometry>
        </mxCell>
        <mxCell id="EvqnDXT1oabTCesrc9GO-26" value="Gerrit" style="ellipse;shape=cloud;whiteSpace=wrap;html=1;fillColor=#dae8fc;strokeColor=#6c8ebf;" parent="WIyWlLk6GJQsqaUBKTNV-1" vertex="1">
          <mxGeometry x="967.5" y="130" width="225" height="130" as="geometry" />
        </mxCell>
        <mxCell id="EvqnDXT1oabTCesrc9GO-35" value="filter for new changesÂ &#xa;that need to be tested" style="group;fillColor=#d5e8d4;strokeColor=#82b366;glass=0;rounded=1;fontStyle=0;pointerEvents=1;connectable=1;" parent="WIyWlLk6GJQsqaUBKTNV-1" vertex="1" connectable="0">
          <mxGeometry x="965" y="330" width="211.3" height="170" as="geometry" />
        </mxCell>
        <mxCell id="EvqnDXT1oabTCesrc9GO-57" value="" style="endArrow=classic;html=1;rounded=0;exitX=0.875;exitY=0.5;exitDx=0;exitDy=0;exitPerimeter=0;entryX=0;entryY=0.5;entryDx=0;entryDy=0;" parent="WIyWlLk6GJQsqaUBKTNV-1" source="EvqnDXT1oabTCesrc9GO-50" edge="1" target="EvqnDXT1oabTCesrc9GO-42">
          <mxGeometry width="50" height="50" relative="1" as="geometry">
            <mxPoint x="429" y="711.87" as="sourcePoint" />
            <mxPoint x="709" y="911.87" as="targetPoint" />
          </mxGeometry>
        </mxCell>
        <mxCell id="bh0eh2vKuY1DpMpfhebL-18" value="&lt;b&gt;GitHub Runner&lt;/b&gt;" style="text;html=1;align=center;verticalAlign=middle;resizable=0;points=[];autosize=1;strokeColor=none;fillColor=none;" vertex="1" parent="WIyWlLk6GJQsqaUBKTNV-1">
          <mxGeometry x="1026.3" y="490" width="110" height="30" as="geometry" />
        </mxCell>
        <mxCell id="bh0eh2vKuY1DpMpfhebL-36" style="edgeStyle=orthogonalEdgeStyle;rounded=0;orthogonalLoop=1;jettySize=auto;html=1;entryX=0.434;entryY=0.043;entryDx=0;entryDy=0;entryPerimeter=0;" edge="1" parent="WIyWlLk6GJQsqaUBKTNV-1" source="bh0eh2vKuY1DpMpfhebL-18" target="bh0eh2vKuY1DpMpfhebL-16">
          <mxGeometry relative="1" as="geometry" />
        </mxCell>
        <mxCell id="bh0eh2vKuY1DpMpfhebL-37" value="Trigger autorun for new changes" style="edgeLabel;html=1;align=center;verticalAlign=middle;resizable=0;points=[];" vertex="1" connectable="0" parent="bh0eh2vKuY1DpMpfhebL-36">
          <mxGeometry x="-0.0198" relative="1" as="geometry">
            <mxPoint y="-30" as="offset" />
          </mxGeometry>
        </mxCell>
        <mxCell id="bh0eh2vKuY1DpMpfhebL-45" value="&lt;b&gt;dispatch.yml&lt;/b&gt;" style="text;html=1;align=center;verticalAlign=middle;resizable=0;points=[];autosize=1;strokeColor=none;fillColor=none;" vertex="1" parent="WIyWlLk6GJQsqaUBKTNV-1">
          <mxGeometry x="1031.3" y="310" width="100" height="30" as="geometry" />
        </mxCell>
        <mxCell id="bh0eh2vKuY1DpMpfhebL-58" value="" style="endArrow=classic;html=1;rounded=0;exitX=0.5;exitY=0.235;exitDx=0;exitDy=0;exitPerimeter=0;entryX=0.185;entryY=0.032;entryDx=0;entryDy=0;entryPerimeter=0;" edge="1" parent="WIyWlLk6GJQsqaUBKTNV-1">
          <mxGeometry width="50" height="50" relative="1" as="geometry">
            <mxPoint x="1081.27" y="374.63999999999993" as="sourcePoint" />
            <mxPoint x="1080.963049040512" y="455.37" as="targetPoint" />
          </mxGeometry>
        </mxCell>
        <mxCell id="bh0eh2vKuY1DpMpfhebL-59" value="&lt;span style=&quot;background-color: rgb(213, 232, 212);&quot;&gt;Push new changes&lt;/span&gt;" style="edgeLabel;html=1;align=center;verticalAlign=middle;resizable=0;points=[];" vertex="1" connectable="0" parent="bh0eh2vKuY1DpMpfhebL-58">
          <mxGeometry x="-0.347" y="1" relative="1" as="geometry">
            <mxPoint as="offset" />
          </mxGeometry>
        </mxCell>
        <mxCell id="bh0eh2vKuY1DpMpfhebL-70" value="" style="endArrow=classic;html=1;rounded=0;entryX=0;entryY=0.5;entryDx=0;entryDy=0;exitX=0.781;exitY=0.675;exitDx=0;exitDy=0;exitPerimeter=0;" edge="1" parent="WIyWlLk6GJQsqaUBKTNV-1" source="bh0eh2vKuY1DpMpfhebL-67" target="EvqnDXT1oabTCesrc9GO-42">
          <mxGeometry width="50" height="50" relative="1" as="geometry">
            <mxPoint x="660" y="571.87" as="sourcePoint" />
            <mxPoint x="930" y="531.87" as="targetPoint" />
          </mxGeometry>
        </mxCell>
        <mxCell id="bh0eh2vKuY1DpMpfhebL-73" value="&lt;font style=&quot;font-size: 20px; background-color: rgb(255, 255, 255);&quot;&gt;Step 2&lt;/font&gt;" style="text;html=1;align=center;verticalAlign=middle;resizable=0;points=[];autosize=1;strokeColor=none;fillColor=none;" vertex="1" parent="WIyWlLk6GJQsqaUBKTNV-1">
          <mxGeometry x="827" y="409.4" width="80" height="40" as="geometry" />
        </mxCell>
        <mxCell id="EvqnDXT1oabTCesrc9GO-37" value="&lt;b&gt;spdk-mirror&lt;/b&gt;&lt;div&gt;mirror of spdk/review&lt;/div&gt;" style="text;html=1;align=center;verticalAlign=middle;resizable=0;points=[];autosize=1;strokeColor=none;fillColor=none;" parent="WIyWlLk6GJQsqaUBKTNV-1" vertex="1">
          <mxGeometry x="1046.2930490405117" y="449.4" width="130" height="40" as="geometry" />
        </mxCell>
        <mxCell id="EvqnDXT1oabTCesrc9GO-36" value="" style="shape=image;imageAspect=0;aspect=fixed;verticalLabelPosition=bottom;verticalAlign=top;image=data:image/png,iVBORw0KGgoAAAANSUhEUgAABLAAAASwCAYAAADrIbPPAAAAAXNSR0IArs4c6QAAIABJREFUeF7s3Qt8XGWd//HnOefMmUtmkkzSNG2StmkbmjRNL7Qggq7CelkvrOIF/ired73hurqo6AoqLnhXVnZdvK2uunhZUXdBWF1dVtAVVqClJGmalJC2IWnTpskkk7nPOef5c6BVRC5NOpmcmfPJ65WXr5ec8zy/3/v3UJJvZ85IwRcCCCCAAAIIIIAAAggggAACCCCAAAIeFpAero3SEEAAAQQQQAABBBBAAAEEEEAAAQQQEARYHAIEEEAAAQQQQAABBBBAAAEEEEAAAU8LEGB5ejwUhwACCCCAAAIIIIAAAggggAACCCBAgMUZQAABBBBAAAEEEEAAAQQQQAABBBDwtAABlqfHQ3EIIIAAAggggAACCCCAAAIIIIAAAgRYnAEEEEAAAQQQQAABBBBAAAEEEEAAAU8LEGB5ejwUhwACCCCAAAIIIIAAAggggAACCCBAgMUZQAABBBBAAAEEEEAAAQQQQAABBBDwtAABlqfHQ3EIIIAAAggggAACCCCAAAIIIIAAAgRYnAEEEEAAAQQQQAABBBBAAAEEEEAAAU8LEGB5ejwUhwACCCCAAAIIIIAAAggggAACCCBAgMUZQAABBBBAAAEEEEAAAQQQQAABBBDwtAABlqfHQ3EIIIAAAggggAACCCCAAAIIIIAAAgRYnAEEEEAAAQQQ8KtARAgRO/4dFkKYQohIQ0NDZP369aZt20axWIxYlhV2HCdg23ZQKWUopXSlVEAI8bufo2zbdu9/op+rlK7r2UchKyllUUppSyktXdfzmqYVDcPIBgKBjK7r1gMPPFCYnp7OCCHc74IQwr1/7vi3+//xhQACCCCAAAII+EqAAMtX46ZZBBBAAAEEKlpAF0LEhRArotHoshUrViwzTbOxUCg0FIvFhpqamoZwOBw82Q4dxzEdxwm538eDKTecMnVdN03TNIQQmnuNG1a5oZUQ4uHwyg2qTvzvib0eG2g9poaHA6vHBFi2EML9/93/tY6HWUVN09ywyikUCpZt2wUppfvt/nNL07Tc8W/3mpP6ymaz+XQ6PR0IBKZN05wuFApTExMTx1Kp1DEhxIQQIiGEcGvgCwEEEEAAAQQQ8LQAAZanx0NxCCCAAAIIVLVAvRCibcWKFWvq6+vX5fP51aZpropGo48bQiml3EDJDZxqhBA1mqaFpZTuq6Me/jYMI6Rpmhs88XVcwHEcy7IsN/jKut9KqazjOO6rudKaprnfOSml83hgqVQqXygUHgwGg6MzMzMjExMTB4UQY0KIGYARQAABBBBAAIFyCxBglVuc/RBAAAEEEKhuAfcVSo2xWGzDsmXLNmqa1mma5tpIJOK+Ve8PvhzHCdq2HZFSxjRNizmOE5VS1ui67q7B1xIL2LZtK6XckCvlOM6cUmpO1/WMpmn5x5aWyWTmCoXCfsdxho4dOzY4Nze3TwjhvsqLV3ct8RzZHgEEEEAAgWoRIMCqlknSBwIIIIAAAuURcN/C171169btc3Nz2+LxeOejt1VKuW+vc9+a54ZRbmj1cCjFK6PKM5yl2sV9pZcbdgkhUm7Q5YZex9/+qB5dUyKR2BeNRnf39vbuEkIMCCGml6pm9kUAAQQQQACByhIgwKqseVEtAggggAACiy3gBlRb29vbny6EOL2urq7dMAz34eYPf7nPirJt232VVFQpFXXfxrfYBbF+9Qi4b1+UUqZs205pmua+mut3zwazLKswOzt7QAhx74EDB/5PCHHf8Wd0VQ8AnSCAAAIIIIDAggUIsBZMx40IIIAAAghUrEC8trb2afF4/E+i0eg5oVCo7VGd6O5zptxP41NKhTVNM6WU/LxQsaOunMKVUspxHPeh9e4zutxwK/fotyDmcrmxVCp1RyKR+HUymbyLcKtyZkulCCCAAAIIlEKAH0hLocgaCCCAAAIIeE9AmqbZuWLFij8LBoPPr62t3fqoEt2HoQellA9/u5+u573yqQiBPxJw36aYd7+PP4frdw+fTyaT9+Xz+Z9PTEz8V6FQGHJfLIgfAggggAACCFSXAAFWdc2TbhBAAAEE/Cfg/rd8e1dX18uFEC+PRCLNj3rFlPsw9MDxbx6M7r+z4aeO3YfFu29HdL8ffnC8+4quTCZzRAjx48HBwR8LIdznbhFs+elU0CsCCCCAQFUJEGBV1ThpBgEEEECgygXa161b91Kl1Ctqamq2BoPBE8+fch+crh0Prvhve5UfAtqbl4CbYykppftqrYfDq3w+n02n0/dJKX80MjJyoxDCfe4WXwgggAACCCDgcQF+yPX4gCgPAQQQQMAXAvLCCy/URkZGNLfb/fv3h03T3B4MBl8biUReFIlEVvpCgSYRWEKBTCZzOJPJ/DSfz19fKBR2rl271n0Wl1i3bp1zww03/C4AW8IS2RoBBBBAAAFfCxBg+Xr8NI8AAgggsAQC+o4dO4K2bT/8yX6pVCowNzd3dlNT05uEEM8LBoM1S1ATWyKAwOMIuK/WUkrdOjk5+c1YLPbrWCxWcC9zHKfY29ubF0JYwCGAAAIIIIBAeQQIsMrjzC4IIIAAAv4UMDo6OiKmaUYCgcDDz6AaHR09fcWKFW+ORCIv8ycJXSNQ+QLpdPqWiYmJr69Zs8b9NERRLBbtXC6XHRkZSRNqVf586QABBBBAwJsCBFjenAtVIYAAAghUnoBsbm52g6r6+vr6kGEY2uTk5Ora2tqXSylfHgwGmzVN47+7lTdXKkbgSQUcx1G5XG7KcZz/SCaTP2xubh7RNE0lk8nc7OzszOTkZMZ90RaMCCCAAAIIIHBqAvwgfWp+3I0AAggg4F8BY8WKFfGmpqbGUCgUyufzoWw2e5bjOK+KRCLbTNMM+ZeGzhHwt4Bt28VcLtdfLBa/Ew6H7wyHw5lcLpebnJycmpiYmDn+aYn+RqJ7BBBAAAEE5ilAgDVPMC5HAAEEEPCnQEdHR7BYLLbU1dU1m6app1KphmKx+NyampqXBAKBdn+q0DUCCJysQKFQGM1kMjcFAoGfR6PR6UKhYM/Ozh4JBAKHhoeH3edp8YUAAggggAACTyJAgMXxQAABBBBA4PEFgi0tLe3xeLw1FAoZhUJhWbFYfIVpmi8MBAJh0BBAAIFTESgWi9lCofDTQCDwI9M0j+VyOSuRSIwfOnTogBCCQOtUcLkXAQQQQKAqBQiwqnKsNIUAAgggsACB8IYNGzbU1NSs0TRNy2az7iusXhYMBt1PBgwuYD1uQQABBE5aIP/I1y8CgcC/h8PhacdxnHQ6fXDfvn37hBDZk16ICxFAAAEEEKhSAQKsKh0sbSGAAAIIPKWA2d3dfVowGOySUoZyuVxc1/WXmqZ5rhDCeMq7uQABBBBYXAGrUCjcZtv2jaFQKKGU+6z43NDevXvv5xVaiwvP6ggggAAC3hQgwPLmXKgKAQQQQKD0AtrKlStX1dTUbItEIsuEEFEp5bMNw3iOEKK29NuxIgIIIFBSgTnLsm5VSt0uhJhLp9NTqVTqviNHjowKIeyS7sRiCCCAAAIIeFCAAMuDQ6EkBBBAAIGSCcRbWlrOaGxs3GAYRqhQKGwUQjw3EAis0nVdK9kuLIQAAgiUUcC2badYLI4rpW41TXOPbdu5dDo9ksvl7jp06NCxMpbCVggggAACCJRNgACrbNRshAACCCBQBgEzHo9vaG5uPicajTbl8/lllmU9KxgMbtZ1PVCG/dkCAQQQKLuAbduWbdt7NU27PRAITKRSqWNHjhy5M5FIDAohCmUviA0RQAABBBBYBAECrEVAZUkEEEAAgfIJxOPxutra2uc2Njae7jhOsFgsuq+2OtswjKbyVcFOCCCAgHcEisXilG3bdwQCgSFN0/LHjh3bPTc394tEIjHrnSqpBAEEEEAAgfkJEGDNz4urEUAAAQS8IXBae3v7KxobG1dYlhW1bfvsYDDY7Y3SqAIBBBDwlkA+n9+r6/odhmGkpqamJg4cOPBjIYT76YZ8IYAAAgggUDECBFgVMyoKRQABBHwtoLW2tp67fPnyCzRNC+Xz+RYhxDnBYDDuaxWaRwABBOYpkM/nZ4QQdwSDwXHHcXJHjhy56dChQ7/kQfDzhORyBBBAAIGyCxBglZ2cDRFAAAEETlKgob29/c/r6+ufoet6tFgsnhYIBLYKIXiW1UkCchkCCCDwFALFYrHY577V0LbtdCKRuPPgwYM3CSF4EDxHBwEEEEDAcwIEWJ4bCQUhgAACvhZoaWlpeUVDQ8M5gUAg7jjOabqur5JSElr5+ljQPAIILLaAUqpo2/a4lHKfZVmJqamp3x4+fPgGIcTYYu/N+ggggAACCJyMAAHWyShxDQIIIIDAYgqsbm1tvbixsfGZmqbVOY6z1jCMZimlvpibsjYCCCCAwOMLKKXsYrE4qev6iOM4s1NTU3eOj49fL4TYjxkCCCCAAAJLJUCAtVTy7IsAAgj4V0A2Nze319XVvSUWiz3Ltu2IUqpN1/VGKaXmXxY6RwABBLwnoJRSlmVNa5r2oK7r6WQyecfMzMzXJicnh4UQynsVUxECCCCAQLUKEGBV62TpCwEEEPCWgFy2bNnKWCz2noaGhucppUJKqZXuK668VSbVIIAAAgg8mYDjOEkp5WEhRG56evqXyWTy89PT0+OEWZwbBBBAAIHFFiDAWmxh1kcAAQR8LNDQ0FAbiUQub25ufplSKqCUWqZpWtTHJLSOAAIIVI2A4zhpKeWklLI4MTFxUyaTuSqRSMxWTYM0ggACCCDgKQECLE+Ng2IQQACBqhAINTU1fXj16tVvEEJojuPUaZoWqYrOaAIBBBBA4HEFHMfJaJrmhlfO6Ojov05OTn7MfZUWXAgggAACCJRKgACrVJKsgwACCPhbQFu+fPl7WltbL3VfYeW+RVBKGfQ3Cd0jgAAC/hRQShWklFnHcVLj4+N/f/To0b93gy1/atA1AggggECpBAiwSiXJOggggIAPBVpbW1/Z1NT0SV3X17ivthJC8MmBPjwHtIwAAgg8iYDthle2bR+cnJz80Pj4+A1oIYAAAgggsBABAqyFqHEPAggg4D8B978X2o4dO7Te3t5tq1at+nhtbe15uq4b/qOgYwQQQACBhQrYtm0nk8nbR0dHr9i6des9O3fudF+Z5X7ziYYLReU+BBBAwCcCBFg+GTRtIoAAAgsR2LFjR2B2djacSCRa4/H4pTU1Na81DCO0kLW4BwEEEEAAgUcLWJaVT6VS30skEp9raGh4sK6uLrtz584iSggggAACCDyeAAEW5wIBBBBA4LECxqZNm2pt23a/nx8MBj8QDAbXwYQAAggggMBiCeRyuQOFQuHTmqb9l2EYs3v27EkKIazF2o91EUAAAQQqT4AAq/JmRsUIIIDAYgho8Xg81trauqxQKLRrmva+mpqaFyzGRqyJAAIIIIDAkwmk0+n/sm37c8FgcP/4+PixRCIxx0PgOTMIIIAAAgRYnAEEEEDA3wKBdevWrY1Gow2JROLP6+rqLg0Gg7xF0N9ngu4RQAABTwgUCoXszMzMNfF4/OZUKjU9MjKyXwjBWww9MR2KQAABBMovQIBVfnN2RAABBJZcYNWqVS3Nzc1r0+n0cqXUJ2pqarqWvCgKQAABBBBA4AkEMpnM3ofCq8tramqOTkxMHBgbGxsHCwEEEEDAXwIEWP6aN90igIC/BUKrVq3avGzZsrpMJvPKaDT6Nn9z0D0CCCCAQCUKzM3NfbWmpuaGycnJ5NjYWJ8QIluJfVAzAggggMD8BAiw5ufF1QgggEDFCSxfvnx9a2vrhmw22+Y4zqXRaHSDlFKruEYoGAEEEEAAgeMCSiknlUoNa5p2TSgUejCXyw0PDg7uAwgBBBBAoHoFCLCqd7Z0hgAC/hYItbS0bG9qalqVy+VeHA6HL9B1PeZvErpHAAEEEKhGAaVUyrbt/9Q07d/T6fT4vn377uFVWdU4aXpCAAG/CxBg+f0E0D8CCFSVQFtbW2s8Hj9TKbXesqwLQ6HQdl3XA1XVJM0ggAACCCDwOAJKKatYLPYqpb4vpbx/enr6nvHx8TGwEEAAAQSqQ4AAqzrmSBcIIOBvAaOlpWXzQ5/SdIaU8vRAIPBiTdNW+5uE7hFAAAEE/CzgOM6DxWLxFsdx7p2Zmbn70KFD/XyCoZ9PBL0jgEA1CBBgVcMU6QEBBPwqULdu3bpn1NfXP61QKJyh6/qzDcOI+hWDvhFAAAEEEHisgGVZadu2bzdN8+6ZmZm7RkZGfiOEmEUKAQQQQKDyBAiwKm9mVIwAAj4X2Lhx40pd118qpexRSj0jGAxu8zkJ7SOAAAIIIPCUAvl8freU8jdKqT3FYvHGoaGhQ095ExcggAACCHhGgADLM6OgEAQQQOBJBfSWlpbTGhoaXhcIBNodx/lTwzBWYIYAAggggAAC8xOwLOuIpmm3FovFg8eOHbt+YmJiSAhhz28VrkYAAQQQKLcAAVa5xdkPAQQQmJ+AUVNT8+yurq5XW5bVKqU8T9f14PyW4GoEEEAAAQQQeKyAbdt5pdRtuq6PDw0N/Vs6nf4fIYSFFAIIIICANwUIsLw5F6pCAAEERFdX17tqamrOzufzG4LB4A5IEEAAAQQQQGBxBHK53L3BYHAolUrdtW/fvi8IIdTi7MSqCCCAAAILFSDAWqgc9yGAAAKLIxBpb2//aGNj4wbbts/Udb11cbZhVQQQQAABBBB4rIBt24d1Xf/tsWPHRg4ePPhRIUQKJQQQQAABbwgQYHljDlSBAAIIrOns7PxIJBJxn2+1wzCMOkgQQAABBBBAYGkELMtKSil3ZrPZA0NDQ38nhDiwNJWwKwIIIIDACQECLM4CAgggsLQCZ23ZsuVvNE3bIKXs0jQtvLTlsDsCCCCAAAIInBBwHCerlBq0bfv+vr4+962Fd6KDAAIIILA0AgRYS+POrggg4HOB7u7ui4LB4JsdxznNfZuglJIHs/v8TNA+AggggIB3BZRSedu2xzVNuz+fz39jYGDgB96tlsoQQACB6hQgwKrOudIVAgh4U0B2dHRcHIlE3m4YxmlSygYhhOHNUqkKAQQQQAABBB5HwFJKJSzL2pfJZL4yPDz8HSGEgxQCCCCAwOILEGAtvjE7IIAAAoFVq1a9tra29j3BYHC1lDImhNBhQQABBBBAAIGKFbCVUqlcLjeaTCavHRsb+1chRKFiu6FwBBBAoAIECLAqYEiUiAACFSsQWb9+/etqamo+HAgEGpRSISklf+5W7DgpHAEEEEAAgT8UUEopKWWuWCwmUqnUx0dGRr4lhEjjhAACCCBQegF+kSq9KSsigAACsba2tjfW19d/MhgMhni1FQcCAQQQQAABXwjY+Xw+n0gkrhgfH/+GEGLWF13TJAIIIFAmAQKsMkGzDQIIVL2AVvfI1+ubmprcTyniCwEEEEAAAQR8LHD06NH3z87OfiOZTM7wnCwfHwRaRwCBkgkQYJWMkoUQQMCnAubatWvjmUzmVW1tbQRXPj0EtI0AAggggMATCTz44IPvj0Qi1x84cCAhhMgjhQACCCCwMAECrIW5cRcCCCAQ2bJlS8PY2Nj/W7t27efgQAABBBBAAAEEnkxgZGTkb1tbW7/T398/zXOyOCsIIIDA/AUIsOZvxh0IIOBjgY6Ojtra2trlDzzwwIUdHR2f8DEFrSOAAAIIIIDAAgTuv//+j3R0dHwvmUweHR4eTi5gCW5BAAEEfClAgOXLsdM0AggsQKB+y5Ytbblc7pXRaPSDUsrgAtbgFgQQQAABBBBAQCil8qlU6lOhUOiHvb29Y0II9zlZfCGAAAIIPIkAARbHAwEEEHhyATe4Wjc5OfnC5ubm9+q6HgcMAQQQQAABBBAohYBt24kjR45c09TU9J+9vb0jBFmlUGUNBBCoVgECrGqdLH0hgMCpCtR1d3d3plKp8+Lx+LsMw2g91QW5HwEEEEAAAQQQeDwBy7LGE4nEP0aj0V8ODAwMCSFmkUIAAQQQ+EMBAixOBAIIIPCHArU9PT092Wz2mdFo9C2GYXQAhAACCCCAAAIIlEPAsqz7U6nU1yKRyP/29fX1CyHmyrEveyCAAAKVIECAVQlTokYEECiHQKSrq2urUupZwWDw4kAgsLkcm7IHAggggAACCCDwWIFisdibz+evl1L+7+Dg4H1CiAxKCCCAgN8FCLD8fgLoHwEEzPXr12/WNO28cDj88kAgcDYkCCCAAAIIIICAFwQsy7ojm83+2HGcXw4PD7uvyCp4oS5qQAABBJZCgABrKdTZEwEEvCCgP/QR1p2mab5Q07TnGYbxXF3XdS8URg0IIIAAAggggMAJAdu2bcuy/ttxnJ8XCoWfDQ8Pu8/IshFCAAEE/CZAgOW3idMvAgjIFStWrIlGoy+vqal5hpTyfF3XTVgQQAABBBBAAAEvC9i2XVBK3ZxOp3+TSqV+PDExcVAIobxcM7UhgAACpRQgwCqlJmshgICnBbq6uhqVUq8NhUJnOo7zUtM0o54umOIQQAABBBBAAIHHCBQKhZSmaTfmcrm7pZTXDw4OToGEAAII+EGAAMsPU6ZHBHwu0NbWFnYc59XNzc3Psm37/EAg0OhzEtpHAAEEEEAAgQoXKBaLU7qu33zkyJFfaZr2vbGxsWyFt0T5CCCAwJMKEGBxQBBAoJoF5Jo1a17U0NBwUaFQeFYoFGqv5mbpDQEEEEAAAQT8J5DL5Q6Ypvmr6enpHxw8ePA/eVuh/84AHSPgFwECLL9Mmj4R8J/AaTt27LjSsqxNhmFs9V/7dIwAAggggAACfhKwLOs+wzD27Ny580ohxP1+6p1eEUDAHwIEWP6YM10i4CeBus7OzmuCwWBHIBB4lp8ap1cEEEAAAQQQQKBYLP4qn88PDw0NXSqEmEUEAQQQqBYBAqxqmSR9IICAsXr16qvj8fiZUspn6LoehAQBBBBAAAEEEPCjgG3beaXUbxKJxN2jo6NXCCEsPzrQMwIIVJcAAVZ1zZNuEPClQFNT01+0tLRcJIR4mq7rdVJK/mzz5UmgaQQQQAABBBA4IaCUUrZtu6/AuuvQoUM/mJyc/Do6CCCAQCUL8EteJU+P2hFA4Kyenp7LdF0/xzCMJiGEDgkCCCCAAAIIIIDAHwjYlmVN2rZ9R39//2eEEL/FBwEEEKhEAQKsSpwaNSOAQOPWrVs/rmna+VLKJimlCQkCCCCAAAIIIIDAEwsopQpKqUnHcW6+7777LhdCTOGFAAIIVJIAAVYlTYtaEUBA37hx46Wmab7dMIwWIUQIEgQQQAABBBBAAIF5CeQsyzpUKBS+vHfv3muEEPa87uZiBBBAYIkECLCWCJ5tEUBgfgJNTU0vbGxs/HBNTc3pQgj3Ae38+TU/Qq5GAAEEEEAAAQROCCghRD6dTt87NTV11eTk5E+hQQABBLwuwC+AXp8Q9SGAwNqOjo7L6+rq3iiE0AiuOBAIIIAAAggggEDJBNwgy5mdnf3m8PDwx4UQ+0u2MgshgAACJRYgwCoxKMshgEBJBGRLS0s4HA6/NhwOXxsMBnmrYElYWQQBBBBAAAEEEHh8gXw+n8tms+/OZrPXHzp0KCuEcMMtvhBAAAHPCBBgeWYUFIIAAu6rq9rb24PBYPBsXdevC4fDXagggAACCCCAAAIIlE8gm80O2rZ9ST6fv/PAgQN5gqzy2bMTAgg8uQABFicEAQQ8IdDd3W1OT0+fZhjGO5qbm9/piaIoAgEEEEAAAQQQ8KnAkSNH/smyrC81NDTcPzAwUPApA20jgICHBAiwPDQMSkHApwLa5s2b27PZ7BnBYPBfQ6GQ6VMH2kYAAQQQQAABBDwlkMvlCvl8/nXhcPievr6+A+7zsjxVIMUggICvBAiwfDVumkXAcwKN27Ztc98m+F1d11d7rjoKQgABBBBAAAEEEBC2bR8UQly8e/fuQSHEFCQIIIDAUggQYC2FOnsigIDR3d29Y3p6+mWtra0fgAMBBBBAAAEEEEDA+wLj4+Ofbmho+PeBgYGdQgjL+xVTIQIIVJMAAVY1TZNeEKgAgcbGxo3Nzc0bpJTu2wVjFVAyJSKAAAIIIIAAAggcF8jlcnNKqdcdOXJk39TU1F5gEEAAgXIJEGCVS5p9EECgfvv27WclEolL4/H4n0opDUgQQAABBBBAAAEEKk9AKWUlEon/icfj1+zateu3QoiZyuuCihFAoNIECLAqbWLUi0DlCWhdXV3PsizrnFgs9l5N0xoqrwUqRgABBBBAAAEEEHisgOM403Nzc583DOOOwcHBX/GQd84IAggspgAB1mLqsjYCPhdYvXr1urq6uqdLKT8QCAQ2CSF0n5PQPgIIIIAAAgggUG0CdrFY3KOU+vTs7Oz/jY6OjlRbg/SDAALeECDA8sYcqAKBahMwN2zY8BzDMC4KBoPna5q2rNoapB8EEEAAAQQQQACB3ws4jnMsn8/fbFnWD/bt23erEKKADwIIIFBKAQKsUmqyFgIIiObm5s319fXPMU3zTYZhbNY0jT9nOBcIIIAAAggggIAPBBzHUZZl9RUKhX+ZmZm59ciRI30+aJsWEUCgTAL8YlkmaLZBwAcCNZs3b36e4zhvNgzjmYZhxH3QMy0igAACCCCAAAIIPEbAsqyEZVn/q2naN/r6+n4hhEiDhAACCJyqAAHWqQpyPwIIiNWrV+8Ih8OvCofDL9B1vQcSBBBAAAEEEEAAAQRs2+7PZrM/y2az3x8dHd2JCAIIIHAqAgRYp6LHvQggULd+/foXRKPRt0kpz9J1PQIJAggggAACCCCAAAInBGzbziilfptKpb7ywAMP/EwIMYsOAgggsBABAqyFqHEPAgiInp6eLUqp9xmG8TTDMDohQQABBBBAAAEEEEDgiQQsyxqyLOsuKeXn+vv7e5FCAAEE5itAgDVfMa5HAIHalStX/vnKlSsvUUqdoWmaCQkCCCCAAAIIIIAAAk8l4DhOQUp5z+HDh687fPjwT4SJMILLAAAgAElEQVQQyae6h3+OAAIInBAgwOIsIIDASQt0dXW167r+D4Zh9BiGsfakb+RCBBBAAAEEEEAAAQSOC1iWtd+yrH7btv96cHDwADAIIIDAyQgQYJ2MEtcggEAoHo+/Yt26de9VSm2WUhqQIIAAAggggAACCCCwUAGllCWl7BsZGfl8IpH4kRAit9C1uA8BBPwhQIDljznTJQILFli3bl1dKBS6yTTNDl3XWxa8EDcigAACCCCAAAIIIPAYAdu2DxUKheFcLveSkZERHvDOCUEAgScUIMDicCCAwBMK6Lp+4bZt2z6llFojpdShQgABBBBAAAEEEECg1AJKKVtKeXD37t0ftG37hlKvz3oIIFAdAgRY1TFHukCg5ALd3d2/DQaDGzRNqy/54iyIAAIIIIAAAggggMBjBBzHmcnn8/sGBgbOAgcBBBB4rAABFmcCAQQeK/Ds7du3f1cIsUJKqcGDAAIIIIAAAggggEC5BJRSjhBiYteuXa8RQtxern3ZBwEEvC9AgOX9GVEhAmUTWLNmzc0NDQ3P0TQtVLZN2QgBBBBAAAEEEEAAgccIOI6Tm56evvXgwYPng4MAAgi4AgRYnAMEENBN0+zetGnTjzRNOw0OBBBAAAEEEEAAAQS8IuA4zv179ux5RaFQGBBC2F6pizoQQKD8AgRY5TdnRwS8IiC7u7tr8vn8NbFY7NW6rke9Uhh1IIAAAggggAACCCBwQsC27dTc3Nz3gsHgpQMDA2khhEIHAQT8J0CA5b+Z0zECoqWlJSKEWN3c3PxlTdOeDQkCCCCAAAIIIIAAAl4XcBzn9iNHjrxdCDF66NChjNfrpT4EECitAAFWaT1ZDQGvC8iOjo5l+Xz+9XV1de8KBoNrvF4w9SGAAAIIIIAAAgggcEIgn88fnJ2d/cdgMPjt4eHhY7wai7OBgH8ECLD8M2s6RSC8bt26VaFQ6MOmab5K13UDEgQQQAABBBBAAAEEKk3Atm2rUCh8P5fLXTUyMvKgECJbaT1QLwIIzF+AAGv+ZtyBQMUJ9PT0NM/MzDwvFotdEolEzq64BigYAQQQQAABBBBAAIHHCGQymTvn5uauq6+v/0V/f/8RgBBAoLoFCLCqe750h4Bx2mmnrY5EIu+UUr5N1/UaSBBAAAEEEEAAAQQQqBYB27bTSqmvZDKZf7r//vtHhRBWtfRGHwgg8IcCBFicCASqVKC+vr4+Go2e3dDQ8PpAIPCqKm2TthBAAAEEEEAAAQQQEMVi8fvT09PfTqVSd87MzMxAggAC1SdAgFV9M6UjBGRnZ+dKpdQbdV1/UyQS6YAEAQQQQAABBBBAAIFqF8hkMsO2bf+LlPKbQ0NDh3nAe7VPnP78JkCA5beJ02+1C5grV67saWpqeoOU8hLDMHhQe7VPnP4QQAABBBBAAAEEfidgWZallLpucnLyW4cPH+4XQhTgQQCB6hAgwKqOOdIFAqKzszOWz+dfEw6HXxKJRF4ECQIIIIAAAggggAACfhXIZDL/mc1mbwoGg98dGhqa86sDfSNQTQIEWNU0TXrxq4Bcv359UywWe59lWW8MBoNNfoWgbwQQQAABBBBAAAEETgjk8/lJwzC+OTc397kHHnhgkrcUcjYQqGwBAqzKnh/VIyBXr1793IaGhgt1XX8LHAgggAACCCCAAAIIIPCHArZtf216evqG0dHR/ybE4nQgULkCBFiVOzsqR0D09PRcKYR4YTAYfBocCCCAAAIIIIAAAggg8PgC+Xz+LiHET/v7+92fn/lCAIEKFCDAqsChUTICQoja7du3f8ZxnIt1XY8iggACCCCAAAIIIIAAAk8uYNt2StO07+zatesyIUQSLwQQqCwBAqzKmhfVIiBaWlqe19TU9GbDMC4SQmiQIIAAAggggAACCCCAwEkLOJZl/WBycvIbhw4d+sVJ38WFCCCw5AIEWEs+AgpA4OQFNm3adJVhGC82DGOLEEI/+Tu5EgEEEEAAAQQQQAABBI4L2JZl9VqWdcuePXs+jAoCCFSGAAFWZcyJKhGIbt++/Rql1Cs1TasXQvDvLmcCAQQQQAABBBBAAIGFCyjHcWaklD/ctWvXpUKI1MKX4k4EECiHAL8El0OZPRA4BYHW1tbzmpqa/lrX9ecLISKnsBS3IoAAAggggAACCCCAwB8KZGzb/vnk5OQ/jI+P/xIcBBDwrgABlndnQ2UIiLVr174/Go2+MRAIdEgpTUgQQAABBBBAAAEEEECgtAJKqUKxWBxOpVLf3L9//2dLuzqrIYBAqQQIsEolyToIlFYgsH379s8qpd4gpayVUvKw9tL6shoCCCCAAAIIIIAAAr8TUEo5SqmklPJbu3bter8QoggPAgh4S4AAy1vzoBoEXIHVmzdv/jvTNN1PGQxDggACCCCAAAIIIIAAAmUTyBYKhR/09fV9RAgxWrZd2QgBBJ5SgADrKYm4AIHyCSxbtuzFTU1NH45EItuFEIHy7cxOCCCAAAIIIIAAAgggcFygmMlkdk1OTl517NixW1BBAAFvCBBgeWMOVIGA6O7uflcgELjaMIwYnzLIgUAAAQQQQAABBBBAYEkFlGVZc8Vi8YqBgYF/XNJK2BwBBB4WIMDiICCwtALuv4M1W7ZseV8gEPjo0pbC7ggggAACCCCAAAIIIPBYgWKx+LHe3t7PCSHSQgiFEAIILI0AAdbSuLMrAq6AHo1GNy5fvvyD8Xj8YkgQQAABBBBAAAEEEEDAmwKJROI7R48e/VQqldorhLC9WSVVIVDdAgRY1T1fuvOoQEdHRzCXyz0nGAx+sr6+fotHy6QsBBBAAAEEEEAAAQQQOC4wMzPTm8/n/zYUCt06PDycBwYBBMorQIBVXm92Q0Bu2bIlopS6QAjxZdM0o5AggAACCCCAAAIIIIBAZQgUCoWUEOLtUsr/6O3tzfCWwsqYG1VWhwABVnXMkS4qQ0BrampavmLFileapsmDICtjZlSJAAIIIIAAAggggMAfCRQKhXdNTEz8cHJy8qgQwoEIAQQWX4AAa/GN2QEBV8BoamraHIvF3hCPx98NCQIIIIAAAggggAACCFS2QCKRuHZubu5bk5OTfUIIq7K7oXoEvC9AgOX9GVFhhQuce+65xsTExAuKxeIH6+vrn1Hh7VA+AggggAACCCCAAAIIHBeYmZn5TSAQ+NSKFSt+dttttxFicTIQWEQBAqxFxGVpBNxXXu3YseOiQqHwJdM0axFBAAEEEEAAAQQQQACB6hIoFApJ0zTfsXPnzh/wSqzqmi3deEuAAMtb86Ca6hKIbtu27VW6rn+tutqiGwQQQAABBBBAAAEEEHisgG3bb9m9e/f3hRDug975QgCBEgsQYJUYlOUQOC5wWnd39yvC4fAnEUEAAQQQQAABBBBAAAF/CGSz2b8dGBj4kRDifn90TJcIlE+AAKt81uzkE4HGxsbn1NbWug9rv1hKqfmkbdpEAAEEEEAAAQQQQMD3AkopJ5FIfCeZTH5ramrqVt+DAIBACQUIsEqIyVIIbNq06fXFYvGSWCx2hhBCRwQBBBBAAAEEEEAAAQR8J2DPzc3dEwgErtuzZ8+3fdc9DSOwSAIEWIsEy7K+E9DPOOOMdxSLxct0XW+TUvLvlu+OAA0jgAACCCCAAAIIIPCIgFJK2bY9FggEPnPPPfd8SQhhY4MAAqcmwC/Zp+bH3Qi4AjXbtm27RNf1y4QQyyBBAAEEEEAAAQQQQAABBI4LHLNt+zO7d+++TgiRRgUBBBYuQIC1cDvuRMAVWNPT0/NW0zTfIqVsggQBBBBAAAEEEEAAAQQQeLSAUmqyUCh8tb+//6tCiFF0EEBgYQIEWAtz4y4ERHNz81nxePxt4XD4Ak3T4pAggAACCCCAAAIIIIAAAo8n4DhOIpfL/XsikfjKxMTEXSghgMD8BQiw5m/GHQiI+vr6ly5fvvydNTU1Z2uaFoUEAQQQQAABBBBAAAEEEHgyAcdxUplM5o6jR49+MZFI/AQtBBCYnwAB1vy8uBoBsWnTpjdIKd9rGEanrusmJAgggAACCCCAAAIIIIDAyQjYtp23LGtIKXXNnj17vnUy93ANAgg8IkCAxUlA4OQFtNNPP/2tUsoPCSFapZTayd/KlQgggAACCCCAAAIIIIDAw59Q6AghxoUQH9+1a5f7XCyFCwIIPLUAAdZTG3EFAq5AaOvWrW8xDONyIUQzJAgggAACCCCAAAIIIIDAKQocsSzr6vvuu+9rQoj8Ka7F7QhUvQABVtWPmAZLIFC/cePGt0UikcuEEA0lWI8lEEAAAQQQQAABBBBAAAFXYDqbzX5yYGDAfSVWEhIEEHhiAQIsTgcCTy6wau3ate+Jx+PuWwd5WDunBQEEEEAAAQQQQAABBEotMDc9Pf3l/fv3X3v8rYWlXp/1EKgKAQKsqhgjTSyGQEtLS2c0Gv1YNBp9mZSSh7UvBjJrIoAAAggggAACCCCAgPtcrEI6nb4hnU5/bGxs7H5IEEDgjwUIsDgVCDyOQH19/da6urovL1u27GlCCB7WzilBAAEEEEAAAQQQQACBxRZwjh07dkcymbwkkUj0LfZmrI9ApQkQYFXaxKh3sQVkd3f30wzDuDEQCPCw9sXWZn0EEEAAAQQQQAABBBD4A4FisThhWdYFAwMDd/EJhRwOBH4vQIDFaUDg9wJaT0/P04UQPwsGgzFgEEAAAQQQQAABBBBAAIGlEMjn80kp5Qv6+vp+K4RwlqIG9kTAawIEWF6bCPUsicC5555rJJPJs6WUv1qSAtgUAQQQQAABBBBAAAEEEPhjgT+JxWL/d9ttt1ngIOB3AQIsv58A+ncFzJ6enmcHg8Gfw4EAAggggAACCCCAAAIIeEmgUCg8r6+vz/2L9oKX6qIWBMotQIBVbnH285pAqLOz8/nRaPRGrxVGPQgggAACCCCAAAIIIICAK5BOp18yODjo/oV7HhEE/CpAgOXXydO3K1C7YcOGF8Vise/BgQACCCCAAAIIIIAAAgh4WWBubu5V+/bt+6kQIunlOqkNgcUSIMBaLFnW9brAilWrVr1m+fLln/d6odSHAAIIIIAAAggggAACCLgCk5OTfzM6Ovp9IcQEIgj4TYAAy28Tp1/R1tbWIYR46/Lly98rpdQgQQABBBBAAAEEEEAAAQQqQUAp5Rw9etT9S/ivjo2NDVdCzdSIQKkECLBKJck6FSGwfPnyLfX19ZdGo9HXSCkDFVE0RSKAAAIIIIAAAggggAACxwWUUsVUKvXdmZmZa44ePdoLDAJ+ESDA8suk6VM0NjY+raGh4QOxWOzFUsogJAgggAACCCCAAAIIIIBAJQoopfJzc3O3TE9Pf3pqauquSuyBmhGYrwAB1nzFuL4iBerr65/d2Nj4wdra2vM0TSO8qsgpUjQCCCCAAAIIIIAAAgicEHAcJ59MJn85NTX1qZmZmduRQaDaBQiwqn3C9Cd6enrOz+fz76+pqTlL13XCK84EAggggAACCCCAAAIIVIWAbdv5dDr922Aw+Nn+/v6bq6IpmkDgCQQIsDgaVS2wefPmCzRNu8IwjK1CCKOqm6U5BBBAAAEEEEAAAQQQ8KOAZVnWfY7jXN3X1/cffgSgZ38IEGD5Y86+7HLTpk2vMAzjcl3XN0spCa98eQpoGgEEEEAAAQQQQACB6hdQSlm2bfdZlvXxPXv2/Kj6O6ZDPwoQYPlx6j7oeePGjf8vEAh8yDCMTVJK3Qct0yICCCCAAAIIIIAAAgj4WEApZVuWtadYLH5i7969/+ZjClqvUgECrCodrJ/bOh5eXaHreremaZqfLegdAQQQQAABBBBAAAEE/CPgOI5j2/ZAsVi8mhDLP3P3S6cEWH6ZtE/67O7uvkjX9SsNw+gkvPLJ0GkTAQQQQAABBBBAAAEEfifghliWZQ3Ztn3lwMDAD6BBoFoECLCqZZL0ITo7Oy8yTfMqwzA6CK84EAgggAACCCCAAAIIIOBXgeMh1nChUPjw0NAQIZZfD0KV9U2AVWUD9Ws7XV1d7gPbP22a5jopJefarweBvhFAAAEEEEAAAQQQQOBhAaWUKhQKI5ZlfWBwcJAHu3MuKl6AX/QrfoQ0sH379pdLKa9VSrUSXnEeEEAAAQQQQAABBBBAAIFHBNwQS0o5rpR6965du36MCwKVLECAVcnTo3ZxxhlnvOSh4OprQojlcCCAAAIIIIAAAggggAACCDyuwNGHgqy33HPPPTfhg0ClChBgVerkqFts3779z6SU3xNCxOFAAAEEEEAAAQQQQAABBBB4UoGEUurVu3bt+i+cEKhEAQKsSpwaNbuvvDpXKXWzEKIGDgQQQAABBBBAAAEEEEAAgZMSSEspz7/nnntuO6mruQgBDwkQYHloGJRycgJnnnnmOY7j3C6EME7uDq5CAAEEEEAAAQQQQAABBBA4LmBpmvbsu++++w5EEKgkAQKsSpoWtcrTTz99h6Zpd0OBAAIIIIAAAggggAACCCCwcAHHcc689957d7rPel/4KtyJQPkECLDKZ81OpyagdXd3bxVC/DYcDgdObSnuRgABBBBAAAEEEEAAAQT8LZDNZotCiLMGBgbuE0I4/tag+0oQIMCqhClR44nw6o5wOByCAwEEEEAAAQQQQAABBBBA4NQFstlsTghxDiHWqVuywuILEGAtvjE7nJqAPP7KKze8Cp/aUtyNAAIIIIAAAggggAACCCDwaIFsNpt9VIjF2wk5Hp4VIMDy7GgozBXo7u4+XUr561AoxKcNciQQQAABBBBAAAEEEEAAgUUQyOVyaaXUnwwMDNy7CMuzJAIlESDAKgkjiyyGQE9PzxlKqf8JhUKxxVifNRFAAAEEEEAAAQQQQAABBB4RyOVyc1LKP+3v778HEwS8KECA5cWpUJPYvHnz2UKIG03TbIIDAQQQQAABBBBAAAEEEEBg8QUKhcKkEOKlfX19dy7+buyAwPwECLDm58XVZRDYsmXLnwgh/jUQCKwpw3ZsgQACCCCAAAIIIIAAAgggcFygWCweFEK8rre399egIOAlAQIsL02DWkRDQ8M5bW1tXzcMo1NKyfnkTCCAAAIIIIAAAggggAACZRRQSinLsgbHxsb+Ynp6mldildGerZ5cgICAE+IZgYaGhqfX1dV9Nh6PP11KaXimMApBAAEEEEAAAQQQQAABBHwk4GZYiUTizmQy+b6pqam7fNQ6rXpYgADLw8PxU2mNjY1n1tfX/11tbe15mqYF/dQ7vSKAAAIIIIAAAggggAACXhNwHCefTCb/e3Z29iPHjh3b5bX6qMd/AgRY/pu55zpubW3dFolErohGoy/UNC3iuQIpCAEEEEAAAQQQQAABBBDwoYDjOJl0On1zJpP5+NjYWK8PCWjZQwIEWB4ahk9LOW3Dhg0fikajr5BSxnxqQNsIIIAAAggggAACCCCAgCcFlFLJdDr9w6GhoU889HD3BzxZJEX5QoAAyxdj9myTLR0dHe+PRqOv13W9wbNVUhgCCCCAAAIIIIAAAggg4GMB27anU6nUN4eHhz8nhDjsYwpaX0IBAqwlxPf51nVdXV3vCYfDl2iattznFrSPAAIIIIAAAggggAACCHhawHGcI7lc7p/27t17rRAi6eliKa4qBQiwqnKsnm8q3NPTc4lpmn8jpWz1fLUUiAACCCCAAAIIIIAAAgggIJRS48Vi8Zq+vr4vCSGykCBQTgECrHJqs5crENi6devbDMP4gBCiDRIEEEAAAQQQQAABBBBAAIGKEhizbftTu3fv/qoQolhRlVNsRQsQYFX0+CqueLlt27a/0HX9o4RXFTc7CkYAAQQQQAABBBBAAAEETgi4IdbHdu/e/XUhhIIFgXIIEGCVQ5k9HhbYsWPHG4QQVxNecSAQQAABBBBAAAEEEEAAgYoXGBNCXLFz585vVXwnNFARAgRYFTGmyi+yu7v7okAg8BnDMNZUfjd0gAACCCCAAAIIIIAAAgggYFnWwWKxeNnAwMAP0EBgsQUIsBZbmPVFT0/P+bqu/72u6+ullJw5zgQCCCCAAAIIIIAAAgggUAUCSill2/YDtm3/TX9//81V0BIteFiAMMHDw6mG0uLx+DPj8fjn6+vrz5BSatXQEz0ggAACCCCAAAIIIIAAAgg8IqCUcmZmZu5OJBLvTSQSv8EFgcUSIMBaLFnWFStWrOiORqOfqKurO18IoUOCAAIIIIAAAggggAACCCBQlQJ2Mpm8KZVKXX748OG9VdkhTS25AAHWko+gagtoaWtr+2Bzc/NfCSE4Z1U7ZhpDAAEEEEAAAQQQQAABBB4WUEePHr32wQcf/IwQ4jAmCJRagGCh1KKs5wrUtre3v6mxsfELcCCAAAIIIIAAAggggAACCPhHYHp6+l379+93P5lwzj9d02k5BAiwyqHsoz3a29tDoVDoZTU1Nd/1Udu0igACCCCAAAIIIIAAAgggcFwgk8m8ulgs/vvw8HAeFARKJUCAVSpJ1hE7duwI2Lb9fF3X+fQJzgMCCCCAAAIIIIAAAggg4GMB27ZfrOv6L3bu3Fn0MQOtl1CAAKuEmH5e6txzzzWmp6efFQgEbvWzA70jgAACCCCAAAIIIIAAAgg8IlAsFp/T0NDwq9tuu83CBIFTFSDAOlVB7ncFtA0bNpxjmuYtwWCwFhIEEEAAAQQQQAABBBBAAAEECoXCbKFQePHQ0NCdQggHEQRORYAA61T0uNcVkG1tbT01NTU3RqPRtZAggAACCCCAAAIIIIAAAgggcEIgnU4PZzKZC0ZHRwfcTypEBoGFChBgLVSO+04ItK5fv/4r9fX1L4YEAQQQQAABBBBAAAEEEEAAgccKzM7O3jg8PPwOIcRhdBBYqAAB1kLluM8VqFm9evXVTU1N74EDAQQQQAABBBBAAAEEEEAAgScSOHbs2OcOHjz4ESFEFiUEFiJAgLUQNe5xBYyNGze+MxKJfAEOBBBAAAEEEEAAAQQQQAABBJ5KIJvN/vXAwMCXhBA81P2psPjnfyRAgMWhWJDA1q1b32oYxnVCCH1BC3ATAggggAACCCCAAAIIIICA3wRs27bfsXv37q/5rXH6PXUBAqxTN/TdCt3d3a8Nh8NfEUJEfNc8DSOAAAIIIIAAAggggAACCJyKQCabzb51YGDgO6eyCPf6T4AAy38zP6WO6+vrX7Jq1arrTNNscT+B8JQW42YEEEAAAQQQQAABBBBAAAG/CahCoTA+Njb29kQicYvfmqffhQsQQCzcznd3rly58oxoNPrFWCx2hpSStw767gTQMAIIIIAAAggggAACCCBw6gJKKSuVSt01Nzf3rsOHD+869RVZwQ8CBFh+mHJpely+adOmL4RCoZcJIUKlWZJVEEAAAQQQQAABBBBAAAEEfCqQzefzP+rv73c/1X7Kpwa0PQ8BAqx5YPn40uDmzZs/FggE3i6lrPOxA60jgAACCCCAAAIIIIAAAgiUSEApNWNZ1pd6e3uvFEIUSrQsy1SpAAFWlQ62lG2dfvrpV2ia9m4hxLJSrstaCCCAAAIIIIAAAggggAACvhc4ppT6wq5duz7uewkAnlSAAIsD8qQCGzdufE8oFLpM07SVUCGAAAIIIIAAAggggAACCCBQagHHcQ7ncrlP792799pSr8161SNAgFU9syx5Jw0NDRetXLnyymAw2CWl5KyUXJgFEUAAAQQQQAABBBBAAAEElFJOPp/fe/jw4Y9OT0//CBEEHk+AUIJz8UQCWzds2PCJmpqa52maFoAJAQQQQAABBBBAAAEEEEAAgcUScBynkE6nf75v376/FUL0L9Y+rFu5AgRYlTu7xaw82tPT83HTNP9SShlZzI1YGwEEEEAAAQQQQAABBBBAAAFXQCmVLhQKX+/v779cCJFCBYFHCxBgcR7+SGDHjh0fFkK8XwgRgwcBBBBAAAEEEEAAAQQQQACBMgrMCSE+u3PnzqvKuCdbVYAAAVYFDKmcJboPbTdN8yOGYcTLuS97IYAAAggggAACCCCAAAIIIOAKWJY1XSgUrtq7d+8XEEHghAABFmfhdwLr1q27OBwOXx0KhdphQQABBBBAAAEEEEAAAQQQQGCpBPL5/P5MJnPFyMjId5eqBvb1lgABlrfmsWTVrFmzZns0GnXDqxcIITgXSzYJNkYAAQQQQAABBBBAAAEEEHAfiZXL5X6WSqWuOHjw4C5EECCo4Ay4AnU9PT2XBYPBD8GBAAIIIIAAAggggAACCCCAgFcE8vn8J/r7+z8jhJj1Sk3UsTQCBFhL4+6ZXXfs2BEQQrxDCHGtZ4qiEAQQQAABBBBAAAEEEEAAAQR+L/BuIcSXdu7cWQTFvwIEWP6dvdu52dnZ+dpgMPjFQCAQ9jcF3SOAAAIIIIAAAggggAACCHhRoFgsZvP5/DuHhoa+I4QoeLFGalp8AQKsxTf26g56c3PzubFY7At1dXU9Xi2SuhBAAAEEEEAAAQQQQAABBBCYnZ3tm5ube8+RI0duF0LYiPhPgADLfzN3O5bNzc3ttbW1H66trX2TPwnoGgEEEEAAAQQQQAABBBBAoJIE5ubmvp5MJq+emJg46D7kvZJqp9ZTFyDAOnXDilth8+bNcSnl2wOBwCcqrngKRgABBBBAAAEEEEAAAQQQ8K1AsVj8kKZpX9q9e/eMbxF82jgBls8Gv2XLlhpd11+vadp1PmuddhFAAAEEEEAAAQQQQAABBKpAwHGcS2zb/nZvb2+6CtqhhZMUIMA6SahquKy7u9ssFAovqKmp+ZZhGPXV0BM9IIAAAggggAACCCCAAAII+EvAsqxEJpN5fSAQ+PnAwAAPdffJ+AmwfDJo97lXbW1t62Ox2D9HIpFn+6dtOkUAAQQQQAABBBBAAAEEEKg2gWw2e2sqlXrr6Ojofp6HVW3Tffx+CLD8MWfR2dkZM03zStM0L/VJy7SJAAIIIIAAAggggAACCCBQxQLFYvGz+Xz+qqGhobkqbpPWjrllTQIAACAASURBVAsQYPngKLhvHZRSvicUCn3aB+3SIgIIIIAAAggggAACCCCAgE8E8vn8ZY7jXMtbCat/4ARYPphxW1vbBY2NjdcbhhGp/nbpEAEEEEAAAQQQQAABBBBAwC8ClmWlp6enX/Pggw/+hLcSVvfUCbCqe74iEomsbG9vvyUcDp9e5a3SHgIIIIAAAggggAACCCCAgA8FcrncPQcOHDg/nU4f8WH7vmmZAKvKR7158+brTdO8uMrbpD0EEEAAAQQQQAABBBBAAAEfCxSLxW/39va+wccEVd86AVYVj7i7u/vz4XCYh7ZX8YxpDQEEEEAAAQQQQAABBBBA4BGBbDb7uYGBgffjUZ0CBFjVOVfR1NT05tbW1i/quh6u0hZpCwEEEEAAAQQQQAABBBBAAIHfCdi2nTl06NDbjh49ej0s1SdAgFV9M3U7aunp6fnvYDDYJYRgxtU5Y7pCAAEEEEAAAQQQQAABBBD4QwFVKBT29PX1PVcIwfOwqux0EG5U2UDddrZt23ajrusvEkIYVdgeLSGAAAIIIIAAAggggAACCCDwRAKWbdu37N69+wKIqkuAAKu65im6u7u/FA6H3yiECFVZa7SDAAIIIIAAAggggAACCCCAwMkI5HK53L/s2bPnkpO5mGsqQ4AAqzLmdFJVtrW1vWzZsmX/qOt6C28dPCkyLkIAAQQQQAABBBBAAAEEEKg+AWXb9qGpqam/evDBB/+j+trzZ0cEWNUz99pt27bdouv62UIIvXraohMEEEAAAQQQQAABBBBAAAEE5i1g27Z95+7du18shEjO+25u8JwAAZbnRrKwgrZv336jlPKFQojAwlbgLgSWTMBKpVL/GwqF7jp48OBvGhsbB6LRaPZkq5mammqcm5vrrKur6w6FQmdomvasSCQSk1Ly59vJInIdAggggAACCFSFQCaTyTqOc3s+n/+/2dnZu1asWDFgmqa1kOZyuZx55MiRrW1tbec5jnNhKBRawc9XC5HkniUWKCqlfrpr166XLnEdbF8CAX7BKwHiUi+xbt26T9XW1r5N1/X6pa6F/RF4KoFcLjeTzWavDYfD/xAIBBz3esdxislk0j5w4ID7A5YthFBPtc6j/rn755je0dGhRyIRI5VKGbW1tQ//2WbbtpycnOxobm5+czqdfn5dXd26eazLpQgggAACCCCAgCcFcrlc3nGcX09NTX0rEon8d319fc4tNJlMqmg0amUyGWt4ePjEz1Wn0oPR3t5uGIZhRqNRzV1oZGTk6cuXL/9kXV3dtlNZmHsRKJeAbdszyWTyKyMjIx8s157sszgCBFiL41rOVc/asmXLlwOBAP8BKac6ey1IQCnVLaUc3rlzpxtSPRxeleFLXnjhhdrk5KScm5uTU1NTeiaT2RAOh98WCoVeFo1GV5ahBrZAAAEEEEAAAQQWLFAoFPqnpqa+PDMz8+ONGzcecxeKxWLqtttuc3+eKtfPVCfql+eee64+OzvbqmnagQU3xY0IlFGgWCzu7u3tfbsQ4rdl3JatSixAgFVi0DIvF9y+ffsPpZTnl3lftkNg3gIzMzNDSqnnj4yMjM775sW/YdWKFSvetGzZsjcEg8FV7ocgKKU0KeXDf9PIFwIIIIAAAgggsNgCSilHSun+JZ/7KvJ9qVTq74eHh2/w6rN7mpqaorFY7MPxePyyxbZhfQRKIaCU+smuXbteKYQolGI91ii/AAFW+c1LtWOgs7PzG6FQ6DWGYfBLdqlUWWfRBGZmZl70wAMP/EIIsaDnMCxaYY+/8OaWlpZ3NzY2/plpmjGllCmlDPHpnmWeAtshgAACCCBQxQJuYCWEyEkpC+5bnObm5q5/4IEH/kEIMVkpbW/btu00TdMG+Uu/SpmYv+t0n+iezWa/OzQ09BdCiKK/NSqzewKsCp1bW1vbxQ0NDR8JBAKnVWYLVO0nAaWU+1D2p+/atau3AvsONTc3X7xy5cq/1nW9USnlBln1Uko+7bMCh0nJCCCAAAIILKWA4ziWlHJGSpmbm5s7vG/fvo8LIW5cyppOZe+WlpZVoVDolng8vvlU1uFeBMolUCwW901PT39sbGzse/N87m65SmSfJxEgwKrA49He3t4ej8ev1TTtJRVYPiX7UGBqauob6XT68snJyYkqaP+5nZ2dV9bU1CxXSkWEEM2aphlV0BctIIAAAggggMAiCDiOU5BSHnFDq6mpqf0PfWjNFUKIuxdhq6VYMrBu3bo/i8fjP1mKzdkTgYUIOI5z48zMzLv3799/cCH3c8/SCRBgLZ39gnbu6upqDIfDn9c07Q0LWoCbECizgOM4Sin1zN27d99R5q3Lsd3Zq1ev/uiyZctWOo5Tp2laG6/MKgc7eyCAAAIIIOBtATe0EkIcllLOJpPJfRMTE1emUqm9S/DA9UWH2rJlS4+u67/RNK120TdjAwRKJKCU+mYmk3nf4ODgVImWZJkyCBBglQG5hFsEN2zY8FfhcPiDhmEsK+G6LIXAogmk0+n9tm2//P7779+9aJss/cKBurq689ra2t5jmmaj4zgrNU1zP5mH59Mt/WyoAAEEEEAAgbIIOI98jWuadjiVSo1NT09fNzU19b9CiHxZCliiTZYvX94ciUT+rrGx8a1LVALbIjBvAcuyJrPZ7Kf27dv3RR7qPm++JbuBAGvJ6Oe/8dq1a58WjUavNk3zefO/mzsQWBqBY8eOXXbw4MGvCiFml6aCsu9a29jY+NKVK1e+KhAINAgh1mua1lT2KtgQAQQQQAABBMoioJRyX8Ex7P5CPDU1dcP4+PhNQoiZsmzujU3k6aef/ieapt3ujXKoAoGTEygWi/+VSqWuGBkZuefk7uCqpRYgwFrqCZzk/hs3blwTCoU+xlsHTxKMyzwh4DiO++keL7z33ntv9URBZS5i5cqVa+rq6i6ORCJnOY6zWkrZqWlauMxlsB0CCCCAAAIIlFhAKZVTSt0vpdyfy+V2JZPJ74yNjQ2XeJuKWa67u3ubrus3mKbZUTFFUygC7lPclfpmNpu9cu/evTwPqwJOBAFWBQxJCFHb2dn515FI5EP88lsZA6PKRwRyudxvLMu6ZGhoqBI/fbCUYwysWbPmmbFY7AJd19cppbbqus5bDEspzFoIIIAAAggssoD7UM+Hfq45KqV0X62xf3Z29uYDBw64f0lnLfLWlbB83Zo1a/5y2bJln6uEYqkRgRMCjuNks9ns1YODg/8ohJhDxtsCBFjeno9bnVyzZs250Wj00w99RO2Z3i+XChH4vUA6nX774ODgt4UQWVx+J7Bi3bp1L4/FYluklNs0TXP/l1dlcUAQQAABBBDwqIBSKq+U2uN+cuDc3Ny+4eHhfxNCjHu03CUra8uWLX+qadpPdV03l6wINkZgAQL5fP7/0un0B/bv3/+rBdzOLWUUIMAqI/ZCturq6tpgmuZHA4HAaxZyP/cgsFQClmXNOo7z6r6+vp8uVQ1e37ezs/O8SCRynmVZa6WUzzcMo0lKyZ/LXh8c9SGAAAII+EHAfbVVQil1i67rY5lM5ldDQ0M/80PjC+2xo6Oj2zTNa8Ph8HMXugb3IbBUApZlfadQKHxs79699y9VDez71AL8ovTURkt2RWtra2MsFntnKBS6nL/JWLIxsPECBdLp9A+TyeQVhw4dGlrgEn66rXnDhg2viMViKy3LeqFhGNuEELqfAOgVAQQQQAABrwjYtn2vpmn/mc1mJ/fu3fs9IcRRr9Tm8TpCXV1dr6upqXE/vIcvBCpKwLbtfD6fv3pubu66sbGx6Yoq3kfFEmB5d9haZ2fns4PB4D8FAoGN3i2TyhB4fIFCofD2vr6+f+Fjaed3Qrq6uv6spqbm9Ewms84wjNebphmc3wpcjQACCCCAAALzFSgWi3n3FRiRSGQkk8nsGhgY4BXk80UUQmzatOkFuq5/PxAI1C3gdm5BYEkFLMsayOfzlwwODv5aCOEsaTFs/rgCBFgePRidnZ2dgUDgs8Fg8M89WiJlIfCEAsVicdK27b/cs2eP+zHSfC1MoGXjxo0XBIPBOtu2X2uaZvfCluEuBBBAAAEEEHgiAcuyhqSU33/ol9ajBw4c+Ek2m30QrYULrFq1an0kEvlYNBq9eOGrcCcCSydQKBRuKhaL7x8cHNy3dFWw8xMJEGB58Gy0tLQsC4fD747FYn+r6zpvI/LgjCjpyQWy2ew3U6nUVaOjoyNYnZpAd3e36TjOeaFQqCOdTj8jHA5fFAgE+HPh1Fi5GwEEEEDA5wLpdPom0zT/x7KsfVNTU786cuRI2uckpWo/sHnz5jeapsnbCEslyjplFbBt20qlUldns9kvjo+PT5V1czZ7SgECrKckKvsFWldX11mmaf5bIBBYVfbd2RCBEghYlvWu++6778t8rHQJMH+/hLFs2bJ1zc3NZ+i6fppS6i2mabaWdAcWQwABBBBAoIoF8vn8tFLqW8FgcNfRo0fvGxsbc5/TWajilpektc7Ozpc89DPK10zTXL4kBbApAqcoYFnWwWKxeNHAwMDdQgh1istxewkFCLBKiFmKpc4888x1tm3/q5TynFKsxxoIlFugUChMFgqFvxoaGvpBuff2y35tbW0NdXV12zRNc99W+GrTNPnzwi/Dp08EEEAAgXkL5PP5Qdu2r1dK3ZPNZnsPHjw4wS+l82Y86RtWrFjRHo/HL49EIn950jdxIQIeE8hms7c7jvPGwcHBAx4rzdflEGB5aPzxeLyuvr7+soaGhg95qCxKQWBeAg89fPzbU1NTf3f06NEH5nUjF89boLm5uaapqWm9EKLDtu1Xmqb5MsMwQvNeiBsQQAABBBCoQoFCoXBnNpv9Z03T+nK53PDo6GiiCtv0YkvGtm3b3qbr+he9WBw1IXAyArZtO8lk8qqZmZlrpqenkydzD9csvgAB1uIbn+wOcv369Ztisdj/6LredLI3cR0CXhOwbfsDu3fvvoa3D5Z1MsbatWtbo9Foi+M4LzEM442GYawoawVshgACCCCAgAcEHMcpFIvFXyilviilPNjf3+++eiLrgdJ8VUJnZ6f7zM4vPvSJ6vxe46vJV1eztm0fTaVS5w0PD+/lVZvemC0BljfmIDo6OpoCgcCtkUhks0dKogwE5i2QzWaT2Wz2vfv3/3/27gM8jrNO/Pj7zmyVVrK6LVuWZVnNtmRbu6GEakoCB/mHwMHlDu7oJJRAcqEFEkgICaGEHgihc8BRcnChtwPC0Q7ISrJsyZItS4qtLqtL22Zn5p/NBY6SxJK2zex893n8JOB5f+XzjhXp5ykjn97wYhZkRKCtra3S7/dvnZmZCVVWVr7Z7Xbvz0hggiCAAAIIIGBhAcMwFhOJxL+nHh4ej8cX+vv7x4UQuoVLLujSysvL67dt23ZdUVHRKwq6UZoreIFoNHokkUhcMDQ0NFvwzdqgQQZYFtikpqYmbyKRuKaysvJ6RVHYEwvsCSVsTmB1dfXrExMTb19ZWUk9FJVPfgV87e3t1SsrK3XFxcXv9fl8j5ZSuvJbEtkRQAABBBDIrIBhGEsLCwsfrq6u/kIkElns6+ubz2wGom1SQO3s7LxKUZRbN7meZQhYQsAwDHN+fv46t9v9/qGhobglinJwEQxLLLD5u3btqq2oqDhx3xf4gAXKoQQE0hG4PhwO38zfeKZDmPG1aktLS7nH4/EnEon3BAKB50gpvRnPQkAEEEAAAQRyKGCaZvTEiRNXt7a2fmtsbGx5enp6LYfpSbUOgd27d7/M5/O9v6ioaMs6DucQBCwrYBjG6uLiYtPIyMi0ZYt0SGEMsPK80YcPH3ZNT0+PFhUV7chzKaRHIC0BTdOS9/267vjx4+9JKxCLsyawffv2otraWvfZs2dfU1lZ+U4ppZK1ZARGAAEEEEAgSwLHjx9/xt69e38TDocjQggtS2kIm6aA1+ttamhoeEcgEHh+mqFYjkDeBaLR6FhNTc3uu+++O5n3YhxcAAOsPG/+jh073rpt27bUFSt8ELC1QDwe/+/5+flrJyYmfmXrRpxRvBIKhdRjx449ub29/YfOaJkuEUAAAQTsLBCNRpfGxsYurKur6+nv708NrUw79+OQ2uV55533VtM0b3JIv7RZ4ALT09NvGhsbe1+Bt2np9hhg5XF7Hrgagsud87gHpM6cgGEYt3R3d1/LN5SZM81RJKW6uvpgTU3N93w+X+pNQaoQgv825AifNAgggAACDyuQjMfjZ+fn558xMTFxRAhh4GUvgdbW1jd6vd6b3W63216VUy0CDy4wNzfnHx0djeGTHwF+SMmPeyqre9++fff6/f7a/JVAZgQyI2CapiGlvDkcDr89MxGJkgcB2dDQ0Or1ej8dCAQOCCH8Qgge+p6HjSAlAggg4GSB1PcUQoiopmnTq6urLxkZGfk1z9a07xlRV1f3yLKyspu9Xu9T7dsFlSPwfwLRaHS8v7+/QQjBrYR5ODEYYOUBPZWytLT0Bc3NzV944GqHPFVBWgQyI6Bp2om1tbW3nzp16muZiUiUfAq0tLS0eTyed3k8nsdKKUuFEL581kNuBBBAAAFHCOimaS6vrq6ORiKRq8fGxn7BVd2Fse/BYPAmKWXqKn0+CBSCgD40NHTp0tLSNwqhGbv1wAArDzt24MCBOrfb3ZeaY+UhPSkRyLiApmlf6O3tfYMQ4mzGgxMwbwI7duxoKS0tvcrv9z/DNM1K3pSat60gMQIIIFDIAqnB1Xw0Gj25trb27tOnT3+fK64Ka7uDweD19z1s/9r7rtbnNsLC2lond7Osadr+3t7eMScj5KN3Bli5V/d2dHT8yu12B3kDWO7xyZh5ATN1rb9hfKinp+fqzEcnokUEGpqbm18VCAQullLWSil5HbZFNoYyEEAAAbsKpL59ME1z1jCME8lk8va+vr6vM7iy624+fN2NjY3PCQQCN7rd7v2F2SFdOU0g9fUrmUze09vb+3ghRMJp/eezXwZYOdZvaGi4pKKi4rNSyvIcpyYdAlkRSCaTy5FI5L0nT57kbZpZEbZU0Pq9e/e+2ufzXSClbJRSllmqOopBAAEEELC8QOovvh4YXPXH4/GvDgwMfPa+q3NSbxXkU7gCFQcPHny/y+V6ceG2SGdOEzBNc2FhYeFFIyMj33Fa7/nslwFWDvWrqqpa6uvrfyKlrM9hWlIhkFUBTdN+MTMz88apqak/ZDURwa0kUNfR0XGFqqqPVxSl/YHnZFmpPmpBAAEEELCggGmai8lksisej/9wcHDwttTD2i1YJiVlQeC888774H37f1UWQhMSgbwJmKZ5+syZM0+ZnZ0dylsRDkvMACt3G+7etWvXZysqKp6rKAoPRM6dO5myLGCa5me7urou47L/LENbM/z2Q4cOXWWaZkhV1UdKKQPWLJOqEEAAAQTyKWCa5qqu679TFOUP3d3d7xVCLOSzHnLnXuDgwYPXKIryZkVRuHo79/xkzJKAYRjRhYWFr4yOjl7OWwmzhPxXYRlg5cZZ7N69++Ly8vLbpJQ7c5SSNAhkXcAwjGQikbijr6/viqwnI4GVBeo6Ozuv0nW93eVyHZZSeq1cLLUhgAACCORGwDTNuKZpv3S5XEe6u7s/KIQYz01mslhNoK6u7kBFRcX73W73U61WG/UgkI6AaZpnFhcXXz08PPzddOKwdn0CDLDW55TWUbt27dodCAS+7vV6Q1JKzNPSZLGVBGKx2Njc3NwtU1NTH7dSXdSSN4HdwWDwtbFYrMPv9z9FCMHXu7xtBYkRQACBvAqYiUSix+12/6Krq+sTQojBvFZDcisIqMFg8JNSypdaoRhqQCBTAqmH+sVisd/39/f/gxDidKbiEufBBfjhIgdnxv79+9/h8XiuUBSlIgfpSIFAzgQ0TftRb2/vq4QQIzlLSiI7CBwMBoMvuu/8ON/j8TzaDgVTIwIIIIBAZgTi8fikx+P56sTExE+mpqZ+kJmoRCkEgQMHDnzM5XJdLqVUC6EfekDgjwK6rp9dWlr68MjIyE2oZFeAAVZ2fUVDQ8PTysvLP6goyt4spyI8AvkQ+HI4HP7nfCQmp/UFduzY8eStW7c+LRaLXez3+9usXzEVIoAAAghsViCZTEYVRfn08vJy36lTp+7YbBzWFa5AfX39ZWVlZW91u927CrdLOnOqgGEY/YuLi1eNjIz8xKkGueibAVZ2lQN79+79tM/ne46iKO7spiI6ArkV0HVdi8VinxsYGEg9tJAPAg8l4K6trb1469atj9I07aU+n68SKgQQQACBwhJIJBKf13W9b2pq6pPz8/PLhdUd3WRQoO7AgQN3uN3uZ2QwJqEQsISAYRiJ+x6j8Y3jx4+/QgixZomiCrAIBlhZ3NSOjo7L3W73W6WU9VlMQ2gE8iIQj8fvnZiYuGl+fv7TeSmApLYSaG1tLdE07XmlpaXnq6r6clsVT7EIIIAAAg8qoGnaL1wu108mJye/NDk5eUYIYUCFwMMJhEKhLwkhXoASAoUoYJrmaU3Tbj569OgnC7E/K/TEACtLu5C62mDbtm3vv+8/6o/NUgrCIpBXgWQy+bMjR468WAiR+oaVDwLrEVD27dtXp6rqc3Vdv8Dv9z99PYs4BgEEEEDAWgKJRGJGSvlpTdO+E41Ge0ZHR2PWqpBqrCrQ0tJyh9/vf4nL5eLuFKtuEnWlJZBMJn81MzPzr5OTk/ekFYjFDyrAACs7J4arvb39RpfLdYWqqiXZSUFUBPIu8K1wOPwc/rY17/tgxwJ8DQ0NbVu2bPl70zRf6Ha7uUrVjrtIzQgg4DiBZDKp67r++UQi8b21tbX/Hh8fn3McAg2nJbBz586XVlRUvM3lcjWkFYjFCFhUwDCMZU3TPnrs2LHrhRC6Rcu0bVkMsLKwdW1tbS/2er2pL8yNWQhPSASsInBXOBx+tlWKoQ77CbS0tFS5XK6DiqL8k6qqL3a5XLyVyH7baNuKl5aW1hRFWVJVdUFV1WVVVVP/HtE0LTY/P7+qKMqalDKmKEoi9f+rqrrmcrnWVFXVUk27XK7U723qG1PDMNRkMulLxdF13Z1MJot1XU/9KjIMw2Oaps8wjOKKioqA2+32pf5/Xde36Lpequt6uWEYW7Zs2VJsW3wKt6VA6qqCRCLxlVgs9r2RkRFuF7TlLua/6IaGhm3l5eVfVBTlqfmvhgoQyI6Aruun4vH4O44fP/7F7GRwblQGWJnf+x379u17j8/ne76UEt/M+xLRAgKmac4ahvHhnp6emy1QDiXYW0A2NjbuNE3zcHFx8Uu9Xu8T7d0O1WdbQNd1I5FILJqmOerxeMbj8fjkysrKtMfjmfX5fKlfqUFU8lx1TE1NaaqqpoZTCZfLpXk8ntQ/k9FoNDk4OJha/8dfqWf6/PX/Nh/4W9XUPzfzSX1/kBrYpv6ppOZhf/brT/+7tbXV5ff7Xclk0pVIJDzJZDI17PIahuHetm3bOW+/0XXdFYvFtsRisepEIlFdUlKy1ev1bk8kEjuklA0ej2eLqqqpfHwQeEgBTdNmdV3/nKIoX5qZmRmenp7m4cScL+kIyFAo9J9CiGelE4S1CFhZwDRNIx6Pf6mvr+/NQogpK9dqt9oYsGR4xw4cOPA6l8v1diklb9rKsC3hrCNgGMY9k5OTL56amuqzTlVUYnMBX2tr6y5VVS9zu90vdLlcVTbvh/I3ILCysjKnKMqw3+8/OTMzc9zr9Q6Xl5efllL+zYAomUyakUhEMwwj4vP5YouLi7GxsbHU83cSQoi4ECJ1hdRmB0sbqNoWh6a+z0sNurxCCE9dXZ2vrKzMF4vFfIqiFBUVFbldLtfffC9omqZcWFioj8fje2pqatqi0WizYRh7SkpKKmzRNUVmTMAwjO+srq7eahjGwKlTp2YyFphAjhZ4YIB1iaMRaL7gBUzTnEsmkzf29vZ+pOCbzWGDDLAyiF1dXf2E6urqm/x+/+MzGJZQCFhOwDTNn3Z1df3dAz8oWq4+CrKvQOq2QiFEo6Io7/D5fBdydYh99zJVeSKRiMRisWFVVY/GYrEeVVV7y8rKZhRF+Ys3lS0sLKSGTrGSkpJod3d3JPXvD/yyN4C9q0/d4ujr7OwsWllZ8af+vby8/C+u+tJ1XV1aWqrRdb3D5/Md0nX9gM/n2+3xeIrs3TrVa5p2KhKJfNzn89157NixcZ53yTmRSYH29vZrPR7PlVLK6kzGJRYCVhOIxWJ3z87OXjczM/Nrq9Vm13oYYGVu59SDBw++UVGUGxRFSf1NJx8EClngJ+Fw+MJCbpDe8iqQelthTTwef9Z9A403q6q6O6/VkPwhBSKRSCSZTN6jadpvI5HI/2zdunVAVdU/PRcqmUwa0Wg0kXqW1NLSUnR2djY1mDrn7X2Q20Yg9X2kq6qq6v4ru1LP7vL7/R6Xy/Wn2xJTtz/OzMy0FRUVPdrtdp+vqup5xcXFqYEYHwsKGIahJRKJH8Tj8auXlpamZ2dnVy1YJiXZXKC8vLy9vr7+8y6XK2TzVigfgYcVMAwjft/thG/v6em5lb8IyMzJwgArM45i7969/+J2u291u901GQpJGAQsKZBMJhNLS0vfGB0dfb4lC6SoghFoaGjwBQKBLYqifNLlcj1dSukpmOZs1Mjq6uopn8/339PT078oLi7+dSAQiP6x/FgsZkop43Nzc/HZ2dk/3r5no+4oNUcC7urqam9lZaXXNE2vz+f70/efKysrRZFI5DFbt259YiwWe0IgENiTo5pI81cC970Vdjgej79ZUZSfHj16dJFbcTlFsiigBoPBH0kpn5LFHIRGwBICmqZNJZPJN/T393/ZEgXZvAgGWJnZwKq2trZriouLr37ggayZiUoUBCwooOv66bNnz147Njb2JQuWR0kFKBAKhYpOnTrV3NjY+B0p5c4CbDHvLcXj8ZlkMvn7eDz+o+Xl5Z9u3759SlXV+58jFY1G9YqKiuRvf/vbPz7InOdL5X3HCqqA+6/i1YVwtAAAIABJREFUOv/8813z8/Oph9bf/zZSXdfl+Ph47ZYtW57s9Xqf7nK5Hun1erndKAtbn7pCYGlp6bvV1dUv9fv9kbvvvpurJLPgTMi/FAiFQj8WQlyACwIOEEg9u/N9x48ff48QYt4B/Wa1RQZYGeA977zzXmYYxiellLzJJwOehLC2gGEYv+/u7k59w7Fs7UqprsAE5OHDh9W+vr5bd+7c+Squxtrc7uq6vriwsPDdsbGxr5WWlv6ysbEx9byp+z+NjY3GnXfemRpO/fHX5pKwCoHMCaS+T5XPe97z5PDw8J++xzp16lTxysrKE+rq6p5XXl5+kaqqZZlL6bhI0319fY+JxWL3PvBmTccB0HB+BPbt23en1+t9lqIo53yjan4qJCsCmRNIvZVQUZTL7rnnns9kLqozIzHASnPfa2trzyspKXlvSUnJk9IMxXIE7CLw63A4/Di7FEudBSngbmtrmywuLk790Hr/1RoO/5ipj5Qy9WD0P10dtby8/K2TJ0/+uxDiu7xwweFniHPaT91m/Mzm5ubnl5aWPuvP2pamaSpSyvsHYs7heNhOE2tra58fGBi4HA8E8iEQDAZfLKV8pxCiLh/5yYlArgVWV1d/tLKy8paJiYnuXOcupHz8RzyN3Tx8+LBraWnpRYqifDqNMCxFwFYCpmn+qqurizdt2mrXCrNYVVWfe+jQoU+bplnioCtgddM0Uw9FT7217/43+S0vL5+ORqN3LSwsfGNtba2fh6QX5vlOV5sWcBUXF+8rLy//e7/ff0lpaWn9A5EU0zTdD1zN6aRB+P1v+AyHww1CiKVNq7IQgfQFajo7O7+nKMp56YciAgL2EDAM4+Vbtmz5Ardqb36/GGClYdfQ0HChz+f7t+LiYh7cvnlHVtpIIJlMxhcWFr51+vTpS21UNqUWsEB1dXWgpKTke2VlZfullJUF1mpqWBWRUqZu87v/mTTxePzkzMzMnTMzM3cJISZ5yHKB7Tjt5Eog9f1vbU1NzSU1NTXP83q9zQ8kdpmmWSSlLCrAqztTbwednZubu2V0dPQ23oaVq1ONPA8nEAqFfiWEeCxKCDhFIBKJTMZisReNjIz8F9/DbW7XGWBtzk2UlZWV3feQ21f6/f5bNhmCZQjYUWA6Fotd19fXx1WHdty9wq3ZVVtb+5ja2tovmKa5VVEUv91aTd0CKIRIva5+UUqZukIi9RDrybm5ubvOnDmTGlaN2K0n6kXAhgKNO3fuvKSiouISl8u1LVW/aZo+IUTqduXAA7cg2q4twzCmNU0bTiQSF584ceKs7Rqg4IIVCAaDv5RS8liKgt1hGnswgVgsds3ExMQnFhYWuAp2E6cIA6xNoKXeltPU1PRMv9//Hx6Px7W5EKxCwH4ChmEc7+7ufpoQ4oz9qqfiQheorKzcUVRU9M7q6uonSSlTt8dY9pO6mlFRlLNSyrnUs6tM04wtLCz8dGRk5KtCiGOWLZzCEHCewIHdu3dfWl5e/mQppc80TdU0zUrDMCpdLpfXyhymaUallPdOTU29cXx8/CepizitXC+1OU9g79693/D5fBcpipJ6fh0fBBwhkEgkEtFo9LlDQ0Pf5+UZG99yBlgbNxPbt2/f6ff7byorK3vhJpazBAE7C/SEw+FOOzdA7QUv4Nq/f/8TPB7P+03T3KWqarkVOjYMY9E0zXFFUZaklObZs2dPm6Z51+nTp78jhIhaoUZqQACBdQkU7dy582Ip5SXV1dV1qfcnGIaxRUpZpyjKlnVFyMFBpmmejEQiv77v4fU3Dg4OcgVnDsxJsXGBpqamV5eUlFyvKAqPY9k4HytsLLC0tPTZaDR6/fj4+JiN28hL6QywNsje0NDg83q9zw0EAl/c4FIOR6AQBBhgFcIuOqCHrVu37i4pKbmspKTkEiFEi6IoSq7aNv73k7q66l5FUZZTV1hFIpGuiYmJry8tLfXykPVc7QR5EMiJgGvLli0Ht2/ffmlRUdGh1NsODcMoTQ3QFUWpyuXXnlS3qa89QoghTdOuP3bs2M95A2lOzgGSbF6g+dChQ99RVbV18yFYiYA9BdbW1l4Qi8W+OTo6ev+jI/isT4AB1vqc/nTUnj17mlwu11cDgUBog0s5HAFbC5imaSSTyd/29vbyrAJb76Sjinft2bPnqT6f7w0ej+eAoijV2ejeNE3dMIwZKeUJRVEWEomEtrKyEl5ZWfn23NzcSQZW2VAnJgKWFXBXVlY2lZSUPKukpCTo8XjchmGUm6aZGqTXSCmz8sbD1Nch0zSPRSKRO5eWlr48NTU1alkhCkPgzwRCoVC3EOIQKAg4TWB1dfX3uq4/f2ho6JTTek+nXwZYG9Dbt29fwO12v8Llcn1gA8s4FIGCEDAMY+3s2bOfP3PmzBUF0RBNOEZg586de0pKSi71eDz/JKXcl+4VEakfFOPx+KyiKH0ej2c6mUwmYrHYkWg0+u3Tp08POwaWRhFAYF0C9fX1jX6//2Kfz3fQ5XJ5EonEVsMw9nu93upMDLR0XT+tado9hmHcfvz48dSbrfggYBsBBli22SoKzYLA6urqlYuLi5+Znp5ey0L4ggzJAGv92yobGxvbS0tLf6mqqmWecbD+8jkSgfQEUm8xOnPmzGVnz579dnqRWI1AXgTU1tbWi1wu10s8Hs/5G3neRuoNgbquL2ua9ge/33+vpmmJ2dnZk5OTkz8UQgzwGuS87CdJEbCrQOp777ba2tqnV1dXN7vdbk80Gt3ldrsfoapq6UbedGiaZtw0zdTw/LMDAwOpt5VO2xWFup0rsG/fvt/4fL5HSSlzdqu/c7Xp3GoC0Wj07Orq6hNPnz59nO8n17c7DLDW5yRaW1tL7nv74E2BQOB161zCYQgUmsBIOBx+tBBiptAaox/nCNTV1TWVlZU9S1XVlyqK0vZwV2NFo9Gwz+f7XerNXaurq2dPnDjxPSHE0dRjZpwjRqcIIJBlgdQP7R0tLS3PDAQCVUIIbywWe5Tf73/YR1WYpjmcTCZTL4H4Tm9v70+zXCPhEciawO7duz9fVlZ2qaIovqwlITACFhZYW1v7gGmaNwwODq5YuEzLlMYAa31bodTU1Dx627Ztv3C73a71LeEoBApO4GQ4HG4puK5oyIkCaltbW2qI9XyPx/NkRVHuf1OhpmmnDcO4+75bxcdTD16fnJz85eTk5N28et6Jpwg9I5A3AW9tbe3h2trax6ceCK9p2g5FUQ673e76VEW6rq9omvZrl8v15SNHjqSuulrNW6UkRiADAjt37nxJdXX1e6WUqQEuHwQcJ6BpmjYzM/PYqampMH9Jeu7tZ4B1biMRCoWKotHoV1LPL1jH4RyCQKEKMMAq1J11aF/btm3bt3Xr1qe43e7SFMHy8vLpM2fO3B2NRlOvNDYdykLbCCBgHQHp9/vrdu7cebi0tPT+AVYikVibmJj45dmzZ1M/6PBBoBAEGoLB4N1Syl2F0Aw9ILAZgVgs9g2fz/fCcDgc2cx6J61hgHXu3Za7du16dlVV1TfOfShHIFDQAgywCnp7Hdtc6vad1LCKgZVjTwEaR8A2Aqnv21O/uI3ZNltGoesQUEKh0KAQomkdx3IIAgUrMD8//6yRkZHUreF8T/owu8wA6xx/BA4fPuyan5//g9vt5vWuBfvlgsbOJWCaZjIWi/2yv7//yec6lt9HAAEEEEAAAQQQQGC9AqFQ6IQQonm9x3McAoUooGlauKKi4tF33313shD7y1RPDLDOIdnU1HTNli1bbskUOHEQsKOAaZqRSCRy+8DAwBvsWD81I4AAAggggAACCFhTgAGWNfeFqnIvcPr06StmZ2c/lvvM9snIAOvh98p18ODBcZfLVWOfLaVSBDIvYBjGwvj4+CtmZma4lTbzvEREAAEEEEAAAQQcK9DU1PSHkpKS4MO9GdixODTuKIF4PD527Nix1DMPuY3wIXaeAdbD/JHYtWvXp6uqql7mqD81NIvAgwtMh8PhRwohTgOEAAIIIIAAAggggECmBPbs2fOF0tLSSxVF8WYqJnEQsKvA/Pz8x0ZGRq6wa/3ZrpsB1kMLlxw8eHDM5XLd/3YqPgg4XGAiHA6n3g7DPdkOPxFoHwEEEEAAAQQQyKRAIBC4vLm5+b2KovBzVyZhiWVLgWQyuXjkyJFtQoi4LRvIctEMsB4CuK2t7UfFxcUXPPC2lyxvA+ERsLzAeDgcrrN8lRSIAAIIIIAAAgggYDeBYDAY/KGUstpuhVMvAlkQSD18+PvHjx+/KAuxbR+SAdaDb2FjZ2dnWFGUMtvvMA0gkBkBBliZcSQKAggggAACCCCAwF8KeEOh0LAQYjswCCAgROr5w93d3fuFEJN4/KUAA6wHOSOCwWCPlPIAV1/xxwWBPwkwwOJkQAABBBBAAAEEEMiKQCgUGhNC7MhKcIIiYDMB0zSNtbW13w0ODj7GZqVnvVwGWH9L/IhgMPh9KWVV1vVJgIB9BBhg2WevqBQBBBBAAAEEELCVAAMsW20XxeZAwDCMme7u7icLIfpykM42KRhg/dVWhUKh40KINtvsIIUikGUB0zT1xcXFHw8PDz8jy6kIjwACCCCAAAIIIOBAAQZYDtx0Wl6PwEA4HN67ngOdcgwDrD/baVVVn93R0fEJVVVrnHIC0CcC5xIwTTMRi8Vu6+/vf/25juX3EUAAAQQQQAABBBDYqEAwGByTUnIL4UbhOL6gBQzDmDx69OiLksnkTwq60Q00xwDrAax9+/Z5/H7/H4QQqWdf8UEAgf8TiE5NTV01Pj7+SVAQQAABBBBAAAEEEMi0QEtLy8lAILBHSsnPp5nGJZ7dBXqj0egj+vv7E3ZvJBP18wXiAcX6+vrXVlZWvk1RFF7fmokzixgFI2Ca5lpXV9fFQoifFUxTNIIAAggggAACCCBgGYGGhoYfVlRUPFVKqVqmKApBwAIChmFMLy4uvm1kZORTFign7yUwwBJClJWVle3Zs+dHQohH5n1HKAAB6wksh8PhTiFE6vXGfBBAAAEEEEAAAQQQyKhAa2vrx4uLi18upXRnNDDBECgMgd+PjIxcMD8/v1wY7Wy+CwZYQohdu3a9rby8/EpVVSs3T8lKBApWYCkcDtcKIaIF2yGNIYAAAggggAACCORNYN++fW/w+/3vFEL48lYEiRGwqICu6zNLS0vvGxkZudWiJeasLMcPsFpbW7cHAoGvCyEemzN1EiFgL4HFcDhcbq+SqRYBBBBAAAEEEEDARgL/LxgMfkVKWWyjmikVgZwJmKb5q7GxsefOzMxM5yypBRM5foDV0dFxo8vleo2iKBUW3B9KQsAKAgywrLAL1IAAAggggAACCBSuwMFQKPRLIURJ4bZIZwhsXkDX9dnl5eUPDg8P37L5KPZf6egB1tatWxtra2s/q6rqE+2/lXSAQNYEGGBljZbACCCAAAIIIIAAAkKIraFQ6IQQohQNBBB4cAFd1++enp5+8eTk5L1ONXL0AKuxsfGGQCDwWrfbzdVXTv0TQN/rEWCAtR4ljkEAAQQQQAABBBDYrIA7FArNpN6vtdkArEOg0AWSyeTZ1dXVD506dermQu/1ofpz7ACrqalpf2lp6UellE9y6ubTNwLrFGCAtU4oDkMAAQQQQAABBBDYnEAoFFpggLU5O1Y5RyCZTP50bGzsirm5uQHndP1/nTp2gLV///4bPR7P6xRF2eLEjadnBDYgwABrA1gcigACCCCAAAIIILBxAQZYGzdjhfMENE2bj0ajHzx58uRNzuteCEcOsPbs2RMqKSl5n6qqXH3lxLOenjcqwABro2IcjwACCCCAAAIIILAhAQZYG+LiYAcLGIbxs5WVlTcMDQ11O43BkQOsjo6Ot6mq+kZVVXnLhdPOePrdjAADrM2osQYBBBBAAAEEEEBg3QIMsNZNxYEOFzAMYzmZTL7v6NGjjrsKy3EDrJaWlkf4/f5bXC7XUxx+3tM+AusVYIC1XimOQwABBBBAAAEEENiUAAOsTbGxyKECuq7/VzQafcvg4OA9TiJw3ACro6PjTW63+zopJVdfOelMp9d0BBhgpaPHWgQQQAABBBBAAIFzCjDAOicRByDwJwHTNFeSyeSNvb29tzqJxVEDrKqqqvO2bt16s8/nu9BJm0yvCKQpwAArTUCWI4AAAggggAACCDy8AAMszhAENiYQi8V+MDMzc+3s7KxjnoXlqAFWe3v7a1VVvdnlcnH11cb+bHC0swUYYDl7/+keAQQQQAABBBDIugADrKwTk6DABHRdX9Z1/dqjR4/eVmCtPWQ7jhlgVVdXd1ZVVd1UVFT0DKdsLn0ikCEBBlgZgiQMAggggAACCCCAwIMLMMDizEBg4wLRaPQ7Z8+efdvMzMyRja+23wrHDLA6OjpeoarqB1RVDdhvm6gYgbwKMMDKKz/JEUAAAQQQQACBwhdggFX4e0yHmRfQdX3lvl+vP3r06KcyH916ER0xwKqpqTlQWVl5Y1FR0bOstwVUhIDlBRhgWX6LKBABBBBAAAEEELC3AAMse+8f1edPIBqNfmN+fv76qampvvxVkZvMjhhgdXZ2vlBK+QkppT83rGRBoKAEGGAV1HbSDAIIIIAAAgggYD0BBljW2xMqsoeAaZoR0zRf1d3d/W/2qHjzVRb8AGv79u1tW7ZseUdRUdE/bJ6JlQg4WoABlqO3n+YRQAABBBBAAIHsCzDAyr4xGQpXIBKJfGV5efmG8fHxE4XbpRAFP8Dq7Oz8R0VRUpNIdyFvJL0hkEUBBlhZxCU0AggggAACCCCAgBAMsDgLEEhLQDMM44Xd3d1fTSuKxRcX+gCrbteuXW+pqqp6tcX3gfIQsLIAAywr7w61IYAAAggggAACBSDAAKsANpEW8iowNzf3kdHR0fcIISbyWkgWkxf0ACsYDD5bSvnNLPoRGgEnCDDAcsIu0yMCCCCAAAIIIJBHAQZYecQndSEJPDscDt9VSA39eS8FO8AqKSmpqqmpubKsrOy6Qt08+kIgRwIMsHIETRoEEEAAAQQQQMCpAgywnLrz9J1JgaWlpXdMT09/dGVlZS6Tca0Sq1AHWDIYDD5NSvkDq0BTBwI2FmCAZePNo3QEEEAAAQQQQMAOAgyw7LBL1GgHAdM0/66rq+tHQgjTDvVupMaCHGCVlZWV1dTUvLKkpOSWjWBwLAIIPKgAAyxODAQQQAABBBBAAIGsCjDAyiovwR0ksLq6+qaZmZlPLiwsLBVa24U4wJKtra2P8Xg8P/F4PP5C2zD6QSAPAgyw8oBOSgQQQAABBBBAwEECMhQKzQshyhzUM60ikBWBRCIR0TTtgoGBgd8W2lVYBTfAam1tLVEU5WVFRUUfzMrZQFAEnCfAAMt5e07HCCCAAAIIIIBALgX8oVBoUgixJZdJyYVAoQrc9wys1y4sLHx+dnZ2tZB6LLgBVkdHR4eU8tdut7ukkDaKXhDIo0BqgFUphDDyWAOpEUAAAQQQQAABBApXYHcoFOoRQpQWbot0hkDuBNbW1s4mk8nDQ0NDfbnLmv1MBTXAqqur85eWlv6j3+//bPbpyICAYwSWwuHwbiHEgmM6plEEEEAAAQQQQACBXAocDgaD35VSFucyKbkQKGSBWCz24rW1ta+Njo7GCqXPghpg7du3r15RlP/yer3NhbJB9IFAvgVM01zt6up6khDinnzXQn4EEEAAAQQQQACBwhOoqqp6RX19/YellDzDuPC2l47yJJBIJE7oun5Bf3//6TyVkPG0BTPACoVC7pWVlYtKSkq+mXElAiLgYAHTNCNTU1OvmJiY+HcHM9A6AggggAACCCCAQJYE9u3bd6vP53utlNKTpRSERcCRAqurq5cEAoHvh8NhrRAACmaA1dbWVqmq6l0+n+9xhbAx9ICAVQRM04xrmvbeo0ePvt0qNVEHAggggAACCCCAQOEINDY2/mdZWdlFUkpX4XRFJwjkXyAej/93Mpl8zsDAwFz+q0m/gkIZYCk1NTXn79y581fpkxABAQT+XMA0zeTy8vLXh4aGXoAMAggggAACCCCAAAKZFti7d2+v3+9vl1IWys+nmSYiHgKbFjhz5sxjZmZmflcIL+UqiC8QBw4cKE4mk1/x+/3/b9O7ykIEEHhQATN1CVY8fqSvr68TIgQQQAABBBBAAAEEMi0QCoXGhBA7Mh2XeAggIEQ0Gv2W3+9/fjgcjtjdoyAGWDU1NXt27tw5ZPfNoH4ELCwwHg6H6yxcH6UhgAACCCCAAAII2FSAAZZNN46ybSMwNjbWOD09PWKbgh+i0EIYYKmtra2fCwQC/2L3zaB+BCwswADLwptDaQgggAACCCCAgJ0FGGDZefeo3Q4Ca2trXxgYGHiZEEK3Q70PVaPtB1h1dXX+qqqqBVVVvXbeCGpHwOICDLAsvkGUhwACCCCAAAII2FWAAZZdd4667SKg63p8dXV1y9DQUNwuNT9YnbYfYDU3N7+ztLT0OjtvArUjYAMBBlg22CRKRAABBBBAAAEEbChQEgqFBoUQtTasnZIRsI3AysrKO06cOHGDbQp+kEJtP8A6dOjQWVVVK+28CdSOgA0EpsPh8COEEGdsUCslIoAAAggggAACCNhH4NHBYPA7Usoq+5RMpQjYT0DX9bM9PT3V9qv8/yq29QBr586dl9bU1HzVzhtA7QjYQcAwjIXu7u4XCyG+bYd6qREBBBBAAAEEEEDAHgLNzc1vKikpeZuUMmCPiqkSAfsKhMPhZwohvm/XDmw9wOrs7BxVFGWXXfGpGwG7CJimGZ2fn//E6Ojo1XapmToRQAABBBBAAAEErC/Q0NDwzfLy8osURXFbv1oqRMDeAslkcvjIkSN77NqFnQdYTaFQ6LgQwmVXfOpGwC4ChmEY0Wj0DwMDA4+2S83UiQACCCCAAAIIIGB9gc7Ozj5FUfYKIez8s6n1oakQgf8VSIbD4dQA67QdQWz7RaKtre33xcXF5/GFzo6nHTXbUcAwjBPd3d2tdqydmhFAAAEEEEAAAQSsKRAKhU4IIZqtWR1VIVBwAmYkEvmf48ePP8aOndl1gOUJBoNTUspyO6JTMwI2FTgZDodbbFo7ZSOAAAIIIIAAAghYUIABlgU3hZIKWsA0zYWurq7USxMMuzVqywFWU1PTF0tLSy+VUnKftN3OOOq1swADLDvvHrUjgAACCCCAAALWEwiEQqEeIYRtn8ljPVIqQuDhBUzT1FZXVz9/4sSJy+xmZccBlhIKhVL3a+6wGzb1ImBnAcMwxrq7uy8WQnTbuQ9qRwABBBBAAAEEELCMwAWdnZ1fUBSl1jIVUQgCzhAYD4fDO4UQpp3atd0Ay+/3/2NbW9vtiqKU2QmaWhGwu4BpmkvxePzWvr6+m+zeC/UjgAACCCCAAAII5F+gra3t/X6//zJFUQL5r4YKEHCOgGEY84ODgy+KRCLftVPXdhtgpa6+GuAhf3Y6xai1UAQMw0guLCz8bHR09GmF0hN9IIAAAggggAACCORPYO/evf/j8/keqSiK3X4uzR8amRHInEDqETGpl3TZ5iosW32hqKqqaqmvr/+JlLI+c3tGJAQQ2IBATzgc7tzA8RyKAAIIIIAAAggggMCDCoRCodSjKQ7BgwACuRcwTfPe8fHxJ09PTw/nPvvmMtpqgNXc3PzNQCDwTEVRPJtrl1UIIJCOgGmaR7q6ukJCCD2dOKxFAAEEEEAAAQQQcLyAOxgM/kFKedDxEgAgkAcBwzDia2tr3zpx4sSleUi/qZS2GWBt27ateseOHT8XQuzfVKcsQgCBtAUMwzje3d19oRBiLO1gBEAAAQQQQAABBBBwrEAgENjb3Nx8l6IoLY5FoHEE8ixgGEZfd3f3E4UQc3kuZV3pbTPAamlpuSYQCLxBSlm5rs44CAEEMi6QTCanhoeHr1tZWflMxoMTEAEEEEAAAQQQQMAxAjt37nx9VVXVNYqiVDmmaRpFwGICuq6fnZ6evnlycvJDFivtQcuxywDLFwwGfy6lfLQdUKkRgUIVMAwjEYlEvj04OPi8Qu2RvhBAAAEEEEAAAQSyL9Dc3PztQCDwdEVR3NnPRgYEEHgoAdM0f9vV1fUkIUTc6kq2GGBt27bt77Zt2/YRVVWbrA5KfQg4QODX4XD4cQ7okxYRQAABBBBAAAEEsiQQCoV+JYR4bJbCExYBBNYpoOv6yZmZmSsmJiZ+vM4leTvMFgOs1tbWO4uKip7FdD5v5wmJEfiTgGma/9PV1fVkIUQUFgQQQAABBBBAAAEENiFQEgwGU2+Xf9Qm1rIEAQQyKPDAXTZ3DQ4OWv5h7pYfYNXX1zdWVVX9O1/cMniGEgqBNAQMw+g/ffr0S+fm5n6XRhiWIoAAAggggAACCDhUoL6+/qmVlZUfVxSl2aEEtI2ApQRSFynMz8//0+jo6KilCvurYiw/wNq/f//bvF7v66SUPNzPymcStTlGQNf1xeXl5U8MDw+/xTFN0ygCCCCAAAIIIIBAxgQOHTp0m6IoL5JSBjIWlEAIILBpAdM0ZxOJxIePHTt286aD5GCh1QdY3mAw+B9SyotyYEEKBBBYh4BpmmYymfxhb2/vM9ZxOIcggAACCCCAAAIIIPAXAqFQKPWsnQtgQQAB6wiYpvmdrq6uvxdCaNap6i8rsfQAa+fOnc+qrKy8RVXVvVYFpC4EnChgmuZPu7q6/s7KX9ycuC/0jAACCCCAAAII2EAg9Yb570kpU89U5YMAAhYR0HX92MLCwpvvvffe71ukpL8pw9IDrAMHDtyuqupLFEXxWhWQuhBwooCu60cmJycvn56e5jlYTjwB6BkBBBBAAAEEENikQHV19eO3b9/+MZfL1bHJECxDAIEsCJimGUsmk5/t7e19TRbCZySklQdYezo6Oj7u8XguzEinBEEAgYwJ6Lq+vLa2dsfJkyfflLGgBEIAAQQQQAABBBAoeIGOjo6PuFyu1EUKPP+q4HebBu0moGna93t7e1+uwkRwAAAgAElEQVQphDhjxdotO8Bqb2+/1uVyXa2qaoUV4agJAScLpJ6Dpev6fx45ciR1jzQfBBBAAAEEEEAAAQTWJRAKhf5TCHHJug7mIAQQyKmApmnTa2trt546derWnCZeZzKrDrDcwWDwDinlS9bZB4chgECOBQzD+H53d/elQojVHKcmHQIIIIAAAggggIA9BbZ0dnZ+VVGUp9uzfKpGoLAFUhcqGIbx6Z6entRVWIbVurXkAKupqeniQCDwTlVVD1gNjHoQQOB/BXRdH4xGo9cNDg7+ByYIIIAAAggggAACCJxLoLm5+Z+Ki4vfoapq87mO5fcRQCA/AoZhdK2trV134sSJH+SngofOaskBVmdn5y1SyqullB6rgVEPAgj8SUAzTfNzXV1dl2OCAAIIIIAAAggggMC5BILB4CellC8WQrjPdSy/jwAC+REwTTNumuYHuru735qfCuw1wKo6cODArW63+0VWw6IeBBD4G4Evh8Phf8YFAQQQQAABBBBAAIFzCYRCoS8JIV5wruP4fQQQyK9A6m2ER44ceb0QYjG/lfxldstdgVVfX395SUnJ9T6fr9ZKUNSCAAJ/K5BIJH569OjR1wohjuODAAIIIIAAAggggMDDCOxvb2//qNfrfRJKCCBgbYF4PD62srJyw7333vsZK1VquQFWKBR6p2ma10opLVeblTaOWhCwgkA8Hl9eWlr68JkzZ95uhXqoAQEEEEAAAQQQQMCaAnv37n231+u9QlXVYmtWSFUIIPBHgdTD3KWUN4fD4bdZScVqQ6J9LS0tN5eUlPBaVSudJdSCwMMLfCocDl8GEgIIIIAAAggggAACDyUQCoU+KYR4BUIIIGAPgdXV1TsHBwevE0KcsErFlhpgtba2vtnr9d7sdrtVqwBRBwIIPLyApmn/0dvbm7qNcAorBBBAAAEEEEAAAQQeRGDbgQMHPup2u5+LDgII2ENA0zQtHo9fOzg4+D6rVGylAZY7GAymbh283io41IEAAucW0DRtOhqN3nLy5MkPn/tojkAAAQQQQAABBBBwmkBzc/OVfr//LW63e6vTeqdfBOwsYJrmDV1dXTcLIZJW6MMyA6zt27dfuGXLlncXFRV1WgGGGhBAYEMCHwmHw1cJIcwNreJgBBBAAAEEEEAAgUIXkKFQ6ENCiNcVeqP0h0ChCUQikXuWlpbeMjEx8V9W6M0qAywZDAavklJ+wAoo1IAAAhsT0DTt3ycmJt549uzZiY2t5GgEEEAAAQQQQACBQhaoqqravn379ve53e7nF3Kf9IZAoQqYpnl1V1dXagid94sVLDHA2r59e1VVVdU1brf79YW66fSFQCELpG4jjMfj7xgcHLy9kPukNwQQQAABBBBAAIGNCbS2tr7K6/Vez+2DG3PjaASsIqBp2vvm5ubeMz4+PpfvmiwxwNq7d+8lLpfrIx6PZ2e+QciPAAKbE9B1/b09PT3XWuX+6M11wSoEEEAAAQQQQACBDAq4Dh06dLOqqm/KYExCIYBADgU0TRvVdf3Kvr6+b+cw7YOmssIAK/VF7XJVVW/LNwb5EUBg8wLxePybk5OT187NzQ1sPgorEUAAAQQQQAABBApFoLKysq22tvZmr9f7nELpiT4QcKKAruuv6enpuUMIoeez/7wPsLZu3bq7oqLi2qKiopflE4LcCCCQnoCmaYuxWOy6EydOfCy9SKxGAAEEEEAAAQQQKASBlpaW1/h8vpvcbndZIfRDDwg4VSAajd6xuLj4romJidP5NMj7AKu1tfVZbrf7M16vtzKfEORGAIH0BZLJ5LuPHDlykxBiLf1oREAAAQQQQAABBBCwsUDxwYMHr3O5XNfYuAdKRwABIUQikZhJJBKvGBwczOtthPkeYHnb29tf6vV6P85ZgQAC9heIRqO/XF1dfevp06d/Zf9u6AABBBBAAAEEEEBgswL19fWPCwQC7/L7/Y/fbAzWIYCAdQQSicTlR48e/XxqnpWvqvI6wKqvr98XCARu8fv9F+cLgLwIIJA5AV3Xk8lk8upjx459NHNRiYQAAggggAACCCBgN4H29vbXulyuD6iq6rJb7dSLAAJ/K7CysvK1tbW1t4+Pj5/Il09eB1gHDx68SFGUOxVF8eULgLwIIJBZgXg8fvvk5OTNc3Nz45mNTDQEEEAAAQQQQAABOwhUVlbuqK2tvdbr9b7KDvVSIwIInFsgkUis6Lp+aX9//w/OfXR2jsjnAKu4paXlJSUlJVypkZ29JSoCeRHQNO20pmlXHj9+/K68FEBSBBBAAAEEEEAAgbwK7N279xK32/1ht9tdn9dCSI4AAhkVWFtbe+XAwMC/CSGiGQ28zmB5G2A1NjZ2pJ59VVRU9Lh11sphCCBgE4F4PP6GY8eOpd5GGLNJyZSJAAIIIIAAAgggkBkBX3t7+2u8Xu+tmQlHFAQQsIrA4uLif62trV05NTXVn4+a8jbAOnDgwFMURfmBqqrufDROTgQQyJ5APB5/4wMDrLxM5rPXGZERQAABBBBAAAEEziHgf2CA9T6kEECgsAQSiUTMMIxn9vX1/SwfneVrgFXc2Nj4L+Xl5bfno2lyIoBA9gQMw/hGJBK5cXBw8JgQwsheJiIjgAACCCCAAAIIWFBAaW1tbS8qKnq7oih/b8H6KAkBBNIQWFpaevnQ0NBXhBCRNMJsamleBlhNTU373W73F4qKikKbqppFCCBgSQFN0364vLz8jtHR0T8IIXRLFklRCCCAAAIIIIAAAtkWUBsaGh5RWlp6g9vtflq2kxEfAQRyJ7C4uPjraDT68omJiYHcZf3fTHkZYB06dOgxUspfKIrCK1VzvePkQyBLArFY7Dfz8/PvnJycTF1OmshSGsIigAACCCCAAAII2EPAu23btqdUVFRc5/f7z7dHyVSJAALnEkgmkwnDMA4fPXr0t+c6NtO/n48BVlF9ff0LqqurP5npZoiHAAL5EdA0rW9paemWe++99z/zcSlpfromKwIIIIAAAggggMA5BFI/+z13y5Yt13g8nr1oIYBAYQjMzc29ZHR09Gu5fhthzgdYbW1tLYqifNvv97cWxtbRBQLOFojFYlMLCwsf1jTtttnZ2VVna9A9AggggAACCCCAwJ8LVFVVlbjd7tdVVFS8zufz1aCDAAL2F1hYWDiSSCSeOzY2NpTLbnI+wOrs7DwopeySUiq5bJRcCCCQeQHDMGLxePzzk5OT1ywsLCxlPgMREUAAAQQQQAABBOwuUF5evqW2tvY9Xq/3RYqi+OzeD/Uj4HQBwzBSzzsOdXd3H8mlRa4HWEW1tbX/vH379jty2SS5EEAgOwKmaX5zcXHxpcPDwwyvskNMVAQQQAABBBBAoCAEGhsbt5SVlX1WSvmcgmiIJhBwuMDU1NRLxsfHc3obYU4HWLt3794lhPhZRUVFo8P3mvYRKASB7wkh/iEcDuf89amFgEcPCCCAAAIIIICA0wRCoVCREOLrQohnOq13+kWg0AQWFhYGhRAXDg8Pn85VbzkdYB06dKhZVdVUkznNmytM8iDgFAHTNP97aGjo2cvLy/NO6Zk+EUAAAQQQQAABBNIXKC0trWhqavpPKeUT0o9GBAQQyKOAqet6a09Pz8lc1ZDLQZJ7+/btz6ytrU29pYwPAgjYVCCZTB49cuTIi4QQ3TZtgbIRQAABBBBAAAEE8isQOnjw4OddLld7fssgOwIIpCMwNTV10fj4+I+FEFo6cda7NmcDrKampur7puw/Ky0t5YvUeneH4xCwmEAymZycmpq6fnp6+lMWK41yEEAAAQQQQAABBGwkUFNTc3ltbe0NLpdrm43KplQEEPgzgZWVlW7DMJ42NDQ0mwuYnA2w2tvbd3q93pzdG5kLPHIg4CQBXdcji4uLXxodHb3cSX3TKwIIIIAAAggggEB2BDo6OlJXYf2Doij+7GQgKgIIZFtA07Sdvb29Y9nOk4qfqwGWumfPnieWlZX9NBdNkQMBBDIrYJqmFolEfjwwMHBRZiMTDQEEEEAAAQQQQMDJAq2trd8rLi6+QErpdrIDvSNgV4Hl5eUnnjx58ldCCCPbPeRkgLVv376AEOLHfr///Gw3RHwEEMi4gG4Yxq+7u7ufLITQMx6dgAgggAACCCCAAAJOFnB1dnb+VEr5OCml4mQIekfAjgKxWOyXpmk+o7+/fzXb9edkgLV///4Kn883l+1miI8AAhkXSL1ZYqCnp+dCIUROLgvNeAcERAABBBBAAAEEELC6QP2hQ4d+qKpqWw7vErK6CfUhYBuBRCJRcfTo0YVsF5yLAZbcv3//Y3w+X+qSMj4IIGAjAcMwVqenpy+bmJj4io3KplQEEEAAAQQQQAABmwls3779+Vu3br1DUZTU3Tt8EEDARgKapp3f29v7OyGEmc2ysz7AOnz4sGtxcfH7qqpekM1GiI0AApkXiMfjtx87duzVmY9MRAQQQAABBBBAAAEE/lKgvb39416v91W4IICAvQQMw/hhU1PTRXfeeWdWHzmT9QFWKBRKPYwvYS9+qkUAAcMwvtnd3f33SCCAAAIIIIAAAgggkCuBzs7ObyiK8pxc5SMPAghkTMATDoe1jEV7kEBZH2B5vd497e3tQ9lsgtgIIJBZgUgk8tvJyclnLC4uLmY2MtEQQAABBBBAAAEEEHhogbKysrLa2tofFhUVPQonBBCwj0BfX9/uWCw2ms2Ksz7Aqq6u/lB9ff2V2WyC2AggkDmBeDw+PzIycuna2tpPs30Pc+aqJhICCCCAAAIIIIBAgQjI4uLiC3bv3v1Vr9dbXiA90QYCBS8wNjb2nunp6Wuy2WjWB1h79+5dKCoqKstmE8RGAIHMCSwuLr5NSvm+oaGheOaiEgkBBBBAAAEEEEAAgfUJNDU1eU3TfFNZWdmN61vBUQggkG+BSCRy9vjx49XZrCPbA6zyUCg0n80GiI0AApkTSCaTn/D5fG/+3e9+t5y5qERCAAEEEEAAAQQQQGBjAo961KNKY7HYe10u1+UbW8nRCCCQL4FwOFwihFjNVv6sDrAaGhquqqys/GC2iicuAghkTiAej/9maWnphWfOnBnm1sHMuRIJAQQQQAABBBBAYFMCsq6ubk9ZWdkXvV7vozcVgUUIIJBTgYWFhVcNDw9/IltJszrAOnDgwJDb7d6TreKJiwACmRFIJpOR1dXVl0op7+LWwcyYEgUBBBBAAAEEEEAgPYGGhgafqqqXBAKBz7hcrqL0orEaAQSyLZBMJk8cOXKkNVt5sjnAkqFQKPUMHXe2iicuAghkRkDTtOsURflYT08Pbx3MDClREEAAAQQQQAABBDIgcOjQoTLDMF7jdrtvykA4QiCAQHYFtHA47MlWiqwNsOrq6p6xdevWbwsh1GwVT1wEEEhfYG1t7d9SA6xTp06dST8aERBAAAEEEEAAAQQQyKzAnj17dqYGWMXFxS/MbGSiIYBAhgWS4XD4SUKIX2U47v3hsjbAamlp+UVJScnjs5kjGyDERMBJAtFodHptbe0l995770+EEEkn9U6vCCCAAAIIIIAAArYRcO3ateuC4uLiz/n9/q22qZpCEXCegLm0tPTjoaGhp2ej9awNsDo7O88qilKZjaKJiQACmRFIJBJXJxKJTw8ODq5kJiJREEAAAQQQQAABBBDIvEBra2uJx+N5ucfj+UDmoxMRAQQyJWAYxtnu7u7qTMX78zjZGmBtDYVCJ4QQpdkompgIIJC+QDQa/ejy8vJ7xsbGxtOPRgQEEEAAAQQQQAABBLIrUFdXt6O0tPQav99/RXYzER0BBNIQWAqHww1CiIw/XzkrA6yWlpabA4HA66WU3jSaZikCCGRJIB6Pn4rH41eePHnyB0III0tpCIsAAggggAACCCCAQCYFlObm5md4vd6PeL3e3ZkMTCwEEMiMgGma8Wg0etPx48cz/uKFrAywgsHgkJSykedfZeYEIAoCmRYwTfPq5eXljw8NDaXeFMoHAQQQQAABBBBAAAFbCDQ1NXlLS0tfLaXkVkJb7BhFOlDANE3zVFdXV3Ome8/KACsUCo0JIXZkuljiIYBA+gLRaPS20dHRd0Uikcn0oxEBAQQQQAABBBBAAIHcChQVFW3ftWvXW4uKil6T28xkQwCBdQqMh8PhunUeu+7DsjHAelwwGLxLSskD3Ne9DRyIQG4EUm8djEajbxgZGflSbjKSBQEEEEAAAQQQQACBzAvs3r37hX6//31+v78m89GJiAAC6QiYpnm2q6vrmUKI36cT56/XZnyAtXv37u+WlZVdqCiKO5OFEgsBBNIWSD3r6rpwOHxL2pEIgAACCCCAAAIIIIBAngVCodBbhBCp5+woeS6F9Agg8GcChmFoS0tL3x0eHn5OJmEyPsB64O2DGb/XMZNNEwsBBwqYa2trXxsYGLhOCHHKgf3TMgIIIIAAAggggEDhCTS3trbeFAgEnsfzlwtvc+nI9gInw+FwSya7yOgAq6qqqmTXrl09QojUA9z5IICARQR0XZ9LJBI39vf3f8QiJVEGAggggAACCCCAAAJpC+zbt+91Ho/n7aqq8gibtDUJgEBGBU6Fw+EOIUQ0U1EzOsDatWvXFRUVFe9QFKUiUwUSBwEE0hMwTTNhGMZHenp6UpdYJ9OLxmoEEEAAAQQQQAABBCwl4D548OAtqqq+VkrpsVRlFIOAgwV0XT87MDDw+lgs9m+ZYsjoAGv//v2/8ng85yuKwj3Imdoh4iCQpkA8Hv/D7OzsW6enp/8rzVAsRwABBBBAAAEEEEDAcgI1NTUX1tTUvMvr9YYsVxwFIeBQAcMwkktLS3cPDw9fkCmCTA6wlGAw2CWlPJip4oiDAALpCZimuWCa5oe6u7tvTC8SqxFAAAEEEEAAAQQQsK5AZ2fn26WU/yqlLLNulVSGgLMETNM80tXV1SmEMDPRecYGWFu3bm3csWPH96SUbZkojBgIIJCegGmaRjKZvKu3t/dVQoiZ9KKxGgEEEEAAAQQQQAABSwts6+jouN3tdl8speSOIEtvFcU5RcA0zeNTU1NPm5iYOJOJnjM2wGpoaLihrKzsdaqqlmeiMGIggEB6AoZhnInH4+/q7+//RHqRWI0AAggggAACCCCAgPUF9u7d+yqfz/cWRVF2Wr9aKkSg8AV0XZ9fXl6+dXh4+JZMdJuxAVZ7e/vP3W73ExVFyVjMTDRIDAScKGAYRiyRSHy5r6/vlTy43YlnAD0jgAACCCCAAAKOFHDv27fvDq/X+0+KovgcKUDTCFhIwEg9CCuZvPvo0aNPyURZmRo2eYPB4N1SykdnoihiIIBAegKaph0fGxu7an5+/sfpRWI1AggggAACCCCAAAL2EaioqHh6XV3dB91uN4+2sc+2UWkBC5im+Zuurq4nZuLCiowMsBobGx9XVlb2KZ5/VcBnHa3ZRsAwjMVoNPqJgYGBt9imaApFAAEEEEAAAQQQQCBDAq2tre8pKiq6TFEUHuieIVPCILBZAdM0j42Njf3zzMzMkc3G+OO6jAywDh06dJuiKC+SUgbSLYj1CCCQnoCu60d6enqeK4QYSi8SqxFAAAEEEEAAAQQQsKVAy6FDh76uqupBW1ZP0QgUkICu64vLy8u3Dw8PvzXdtjIywAqFQqnblC5ItxjWI4BAegKmaZ6NxWLv7u/vf396kViNAAIIIIAAAggggIB9Bfbt2/cGn8/3ZilllX27oHIE7C9gmqaZTCZ/2Nvb+4x0u8nEACv1/KvvSymfnG4xrEcAgc0LpL4wJBKJrmPHjl0ohJjffCRWIoAAAggggAACCCBge4GK9vb2n3g8nk4pZSZ+7rU9CA0gkC8B0zR/2tXV9TQhhJ5ODWn/Qa6urn7c9u3bP+5yuTrSKYS1CCCQnoBpmrNLS0uvPXXq1NfSi8RqBBBAAAEEEEAAAQTsL7Bnz55/3LJly0eklNX274YOELCvgK7r3dPT06+YnJwMp9NF2gOs5ubm9xUXF1+mqmppOoWwFgEENi9gmqa+urr6hxMnTqTe7pDYfCRWIoAAAggggAACCCBQMAKejo6O37jd7tRVWErBdEUjCNhMQNf1hUgkcvuJEyeuTaf0tAdYBw8e/Iaqqs/mssx0toG1CKQnYJrm3PT09PPGx8d/nl4kViOAAAIIIIAAAgggUDgCzc3NTy0tLU3doVBROF3RCQL2EjBN0zAM45s9PT3PS6fydAdYajAY/KaU8uJ0imAtAghsXiD1xWBlZeV3J0+efHy69xRvvgpWIoAAAggggAACCCBgSQG1ubn51yUlJY/gKixL7g9FOUfgW+Fw+NlCCHOzLac7wHpke3v7R71e7yM3WwDrEEAgbYGVqampJ4yPj/ekHYkACCCAAAIIIIAAAggUmMD27ds7a2trfyGEKCmw1mgHAdsIJBKJ3xw9evRyIcSxzRad1gBrx44dN1ZUVFzh8XjKN1sA6xBAIC0Bc2Vl5TcnTpxIXX216Ul2WhWwGAEEEEAAAQQQQAABawvI5ubm35SWlj5KCJHWz8DWbpPqELCugKZpZxcWFj545syZd222yrT+8HZ2dn5BSvkvPP9qs/ysQyBtgeTi4mLjqVOnzqQdiQAIIIAAAggggAACCBSowO7du3dVVFQMCSFcBdoibSFgaYHUo29M0/xid3f3izdbaFoDrFAo9CUhxAs2m5x1CCCQnsDi4mL41KlT56UXhdUIIIAAAggggAACCBS+wJ49e7rKyso6C79TOkTAsgJfDofD/7zZ6tIZYLV1dHTc5vF4nrLZ5KxDAIH0BKampqrGx8fn0ovCagQQQAABBBBAAAEECl9g27Zt1Tt27Jgp/E7pEAFrCmia9qPe3t5XCyGGN1PhpgdYjY2NV5aUlLzZ5XLVbiYxaxBAID2Bubm5/tHR0f3pRWE1AggggAACCCCAAALOEWhoaBiorKxsdU7HdIqAdQSSyeSZtbW1W4aGhm7fTFWbHmCFQqFPCiFesZmkrEEAgfQFhoaGKpaWlhbSj0QEBBBAAAEEEEAAAQScIbBly5bypqameWd0S5cIWFLgU+Fw+LLNVLbZAZZ8YID18s0kZQ0CCKQnEIvFTlVXV7fdfffdyfQisRoBBBBAAAEEEEAAAecIHD582DU7Ozvo8/kandM1nSJgKYFPPzDAMjda1aYGWCUlJVWNjY23uVyuSzeakOMRQCA9AdM0zTNnzrTOzs6eTC8SqxFAAAEEEEAAAQQQcJ5AVVVVa319/XEp5aZ+HnaeGB0jkDkBXdf//d577331wsLC0kajbuoPbF1d3bPLy8tv9Hg87RtNyPEIIJCewOrq6rCu651DQ0PL6UViNQIIIIAAAggggAACzhNoamoqVVX1SCAQaHBe93SMQH4FNE3rmZubu258fPx7G61kUwOs/fv3v9vtdl+tqqp7owk5HgEE0hMYHR196tzc3N1CCD29SKxGAAEEEEAAAQQQQMCRAmplZeWTGhoafuLI7mkagTwKJBKJyNra2q3Dw8PXb7SMTQ2wzjvvvA+apnnVRpNxPAIIpCdgmubpRCLxyGPHjk2nF4nVCCCAAAIIIIAAAgg4V6C9vX2rx+P5vZSy3rkKdI5AfgSklB+65557/nWj2TczwPJ3dnZ+QFGUV240GccjgEB6AisrK5clEokvjo6OxtKLxGoEEEAAAQQQQAABBJwr0NDQ4HO73S8sLS29w7kKdI5AfgQMw7i9u7v7aiHEhn6u3fAAq6qqKrht27ZbvF7vhflplawIOFPAMIw5Xdcf0dvbO+JMAbpGAAEEEEAAAQQQQCBzAh0dHY0ul+v3iqJUZi4qkRBA4FwCiUTiB9PT09fMzMz0nuvYP//9DQ+w2tvbX+l2u69XFGXbRhJxLAIIpCcQiUQ+tLa2duPp06cX0ovEagQQQAABBBBAAAEEEKivry8vLi6+vqio6Eo0EEAgdwLJZHI8Ho+/Y2Bg4FMbybrhAVYwGLxJSnntRpJwLAIIpCeg63pcCPHonp6envQisRoBBBBAAAEEEEAAAQT+KHDw4MFOKeX/qKrqQQUBBHIjoOu6oWnazX19fW/fSEYGWBvR4lgE8iQQiUS+qWnalUNDQ2N5KoG0CCCAAAIIIIAAAggUnEBTU1Od2+3+aFFR0SUF1xwNIWBhAdM0b+7q6rpuIyVudIBV3t7efpPX6331RpJwLAIIpCcQiUQuOn78+I+EEMn0IrEaAQQQQAABBBBAAAEE/kzA1dbW9vTi4uLvoIIAArkTSCQSHzt69Gjq7r6l9Wbd0ACrtrb2CRUVFTf7fL7HrTcBxyGAQHoCiUTimKZpzx8YGDiaXiRWI4AAAggggAACCCCAwF8LtLW1dbjd7q94PJ796CCAQG4E4vH43fPz89dNTEz8er0ZNzTA6ujoeI3L5bpJUZSy9SbgOAQQSE8gEolcPT09/Zn5+fnl9CKxGgEEEEAAAQQQQAABBP5aoKKiorSmpublxcXF70cHAQRyI2AYxoKu69f19vZ+fL0ZNzTAOu+88641TfOm9QbnOAQQSE9A1/WoaZrPPHLkyM/Ti8RqBBBAAAEEEEAAAQQQeCiBgwcPPkkI8X2Xy+VDCQEEciMgpbzunnvuuXm92RhgrVeK4xDIg0AkEvlMPB6/cXh4+HQe0pMSAQQQQAABBBBAAAFHCOzevXuX1+u9obi4+MWOaJgmEbCAQDYHWFv3799/vc/ne5UF+qQEBBwhkHr2VW9v7508vN0R202TCCCAAAIIIIAAAvkTcHV0dPyDx+P5cv5KIDMCzhKIxWK39fX13SiEmF1P5+u+AmvXrl1PDgQC7/L5fI9aT2COQQCB9AQ0TTupadrLjx8//t/pRWI1AggggAACCCCAAAIInEugra3tiW63+7Mej6fxXMfy+wggkL5APB7/zdra2ltGRkbW9TPvugdYnZ2dr5RSfkBK6U+/TCIggMC5BDRNu3Z1dfVjw8PD636t6Lli8vsIIIAAAggggAACCJwutvcAACAASURBVCDw4AINDQ1lJSUlV3g8nndihAAC2RcwTTMihLi6q6vrjvVkW/cAKxgMXiWl/OB6gnIMAgikL2Ca5r90dXWlLmE2049GBAQQQAABBBBAAAEEEDiHgAwGgy+QUn4RKQQQyI2AaZr/2tXV9aH1ZGOAtR4ljkEgxwKxWOxH8Xj8LUNDQ905Tk06BBBAAAEEEEAAAQQcK7Bnz56Q1+t9t9/vf6pjEWgcgRwKZGOAVbF37943FxUVvSmHfZAKAccKmKb52q6urk/w8HbHngI0jgACCCCAAAIIIJAfAXcwGLxcSvnR/KQnKwLOEohGo7f09/e/VwixeK7O13UFVkdHx/mKorzH5XI9/lwB+X0EEEhPIJFIaIlE4vLBwcHPpReJ1QgggAACCCCAAAIIILBRgdbW1pd6PJ47PB6Pa6NrOR4BBDYmoOv6zw3DeEtvb+/vzrVyXQOsvXv3vtDtdt/udruLzhWQ30cAgfQEFhcXv3rq1KkbhBCD/5+9O49v467zP/6Z0WFZvmMnjhMncRzfTmLZk5bSdqEsCz+6XC0QoAfL2UJ/HKW7QLs0UFpaoPCDUs5uCxS25SzQlrILS9nfLj0WChlZcRLHTuwczh0nvm1JljTzQ912f7RNGx+SZjTz0p9E8/m8P8+vAuTzkGYWV4mrEUAAAQQQQAABBBBAYAECrfX19TdVVFS8aQHXcgkCCMxDYHp6enR6evr9Bw8e/OGZLpvTAqurq+sKRVHuPFMx/hwBBDIi8GFd12/PSCWKIIAAAggggAACCCCAwLwFNE27WkTmdGPpeRfnAgQQeIaAaZpXhsPhu87EwgLrTEL8OQI5FJidnZ1KJBL/0NfXx8I4h+60QgABBBBAAAEEEEDgLwVaWlre6/P5vuj3+4uQQQCB7ApkcoFVuH79+vcXFBR8IbuRqY4AAlNTU9/v7++/QUQG0UAAAQQQQAABBBBAAAHLBBqbmppuLCkpucSyBDRGwCUCiUTimp6enm+KSPyFRj7jN7AKCgoaV65ceUNFRcVlLrFjTAQsE1AUZcvWrVtvsSwAjRFAAAEEEEAAAQQQQOBJgU2bNl1vmubNcCCAQHYFxsbGvnfo0KFPx+PxF/wixxkXWC0tLa/0+Xzf8Pv967IbmeoIuFvANM0pwzC2RCIR7n/l7o8C0yOAAAIIIIAAAgjYQCAUCl2tqurNiqIU2yAOERBwrEAikdidSCTev2vXrt++0JBnXGB1dXVdpijKvY6VYjAEbCIQj8cfGhsbu/7QoUPbbRKJGAgggAACCCCAAAIIuFagtrZ2Y3l5+S0FBQWvcS0CgyOQIwHTNC8Ph8PfZ4GVI3DaILAYAdM0bwmHw1sWU4NrEUAAAQQQQAABBBBAIHMCXV1dtyiK8vHMVaQSAgicTiATCyxPKBR6m8fjuRtiBBDInsBTPx/8dCQS+Xz2ulAZAQQQQAABBBBAAAEE5iPQ0dFxrcfj2cLPCOejxnsRmL9AKpV6RyQSuUdEjOe7+kw/IaxobGz8QGlp6U3zb88VCCAwV4FkMvlYNBr9+O7dux+d6zW8DwEEEEAAAQQQQAABBLIr0NjY+JJgMHiL1+s9P7udqI6AuwUmJyfT/x7+hoiML2iBtWTJkvaKiopby8vLX+1uSqZHILsChmF8s7u7++9FJJbdTlRHAAEEEEAAAQQQQACBeQgEOjs7b1NV9X3zuIa3IoDAPAXGx8cfHB0d/cdTp07tWtACa/369a9QVfXePz+FcNk8e/N2BBCYo0AqlUokEokv7dy587o5XsLbEEAAAQQQQAABBBBAIEcC7e3tt/p8vms8Ho8vRy1pg4DrBBKJxDHTNN+2ffv2530S4Qv+hFDTtItE5H7XyTEwAjkUiMVifSdPnvzU8ePHf5zDtrRCAAEEEEAAAQQQQACBOQhUV1e/tbKy8lOFhYXNc3g7b0EAgYULXKzr+gPPdzkLrIXDciUCGRFIJpP3bdu27QMiciIjBSmCAAIIIIAAAggggAACmRRY1tHR8TWv17s5k0WphQACzxFY8AJLDYVCb/R4PD8BFQEEsipwl67rV2a1A8URQAABBBBAAAEEEEBgwQKapt0pIlcsuAAXIoDAGQUMw3hTd3f3z0XEPN2bX+gbWGX19fXvq6io+NwZu/AGBBBYkIBhGOOzs7O379y584YFFeAiBBBAAAEEEEAAAQQQyLpAe3v7TX6//2pVVUuz3owGCLhUYHx8/O8HBga+JSKT81pg1dfXN/p8vs8XFxen74PFCwEEsiCQSCSeGB4e/ujRo0cfzUJ5SiKAAAIIIIAAAggggEAGBGpqal6ydOnSL/h8vrMzUI4SCCBwGoGZmZkf//kJZ9cPDAwMzmuB1dzcfJ7X670vEAjUIIsAAtkRMAzjvu7u7neIyEx2OlAVAQQQQAABBBBAAAEEMiAQ7Ozs/K6qqtwHKwOYlEDgdAJTU1N74/H4pfv3739iXguszs7OvxGRf1NVVYUWAQSyJvB9Xdcvz1p1CiOAAAIIIIAAAggggEBGBDRNu1dELstIMYoggMBzBJLJZMI0zQt7enr+fV4LrE2bNr3CNM3fYIoAAtkRMAzjVCwW+/KuXbtuzk4HqiKAAAIIIIAAAggggECmBFpbWz8RCATS98GqzFRN6iCAwDMFFEV55datWx9mgcUnAwEbCSSTyT8cOHDgqrGxsYiNYhEFAQQQQAABBBBAAAEETiNQVlbWVVdX93Wv13sOQAggkB2BhSywgg0NDZeWlZXdlZ1IVEUAAdM0HwqHw28UkQQaCCCAAAIIIIAAAgggYHsBX1dX188URXmt7ZMSEIE8FZiamrq8v7//pyISf/YIyulmWrVq1YpAIPCJ0tLS9+XpzMRGIB8EHtB1/eJ8CEpGBBBAAAEEEEAAAQQQENE07X4RuQgLBBDIjsDRo0dvPXLkyBdFZHhOC6yGhoZ2r9f7vaKiIi07kaiKgLsFUqnU+OTk5D8NDg5e624JpkcAAQQQQAABBBBAIH8E1q1b94WSkpIrPR5Paf6kJikC+SMQjUYfTaVSV/T39/fPaYF11llnnWsYxmMictpvaOXP6CRFwJ4Cs7Oz27Zv336ViPzenglJhQACCCCAAAIIIIAAAqcRePGGDRvu8Pv9G9FBAIHMC8RisRnTNP+6t7f3iTktsDZt2nSeaZrpBRYvBBDIgoBpmr8Nh8OvFBEzC+UpiQACCCCAAAIIIIAAAtkRULq6un6jKMrfZKc8VRFAQFGU87du3fo4Cyw+CwjYQ+BhXdfTCyxeCCCAAAIIIIAAAgggkEcCmqb9RkRekUeRiYpAXgnMZ4GV3iifryjKI3k1IWERyBMB0zQNEfnXcDjM00vy5MyIiQACCCCAAAIIIIDA0wJdXV2/FJELFUVRUUEAgawI/JWu68/5VeDp7nEVqK+vf0NFRcX3sxKDogi4XMAwjGNTU1Of3bNnz1dcTsH4CCCAAAIIIIAAAgjknUBDQ8OHS0pKrlVVdXnehScwAnkgMDk5efHu3bv/RUQSfxn3OQuskpKSqvLy8uuXLVv24TyYi4gI5J1AKpXqjkQiF4vIgbwLT2AEEEAAAQQQQAABBBBYGwqFfu7xeEJQIIBA5gVOnjx5y+jo6JcmJiZGXnCB1djYWO/1en8QDAZflPkYVEQAgT//Xv5xXdfPRwIBBBBAAAEEEEAAAQTyU0DTtPTPm87Lz/SkRsDeArFY7D9SqdS7+vr69r/gAqu+vn6Dz+d7vLi4uMTeI5EOgbwVYIGVt0dHcAQQQAABBBBAAAEERFhg8SlAIHsC09PTw8lk8mUDAwM7X3CBddZZZ4UMw+jOXhQqI+BqgUQqlfpVJBJ5vasVGB4BBBBAAAEEEEAAgTwW6Ojo+IXX671QRLx5PAbREbCtgKqqnX/6058iLLBse0QEc7qAYRjDIyMjNx04cOBrTp+V+RBAAAEEEEAAAQQQcKrA6tWrP1RZWblFVdWlTp2RuRCwUoAFlpX69EZARFKpVH8kEnm1iAwCggACCCCAAAIIIIAAAnkr0BAKhX7p8Xia83YCgiNgY4G5LLDUtra28woLCx+x8RxEQyCfBSK6rnfm8wBkRwABBBBAAAEEEEAAgSfvg5W+9Q5PIuTDgEAWBGZnZ8/dvn37EyJiPF1eeVafwhUrVlxSU1Pz7Sz0pyQCCIiwwOJTgAACCCCAAAIIIICAAwRYYDngEBnBtgLHjx+/7NChQz8XkdhpF1i1tbVLAoHAzWVlZVfZdgqCIZCnAqZpmslk8k89PT0vytMRiI0AAggggAACCCCAAAJPCWzYsOGPPp9vk6Ioz/5iCEYIILBIgcnJydtisdinh4aGRk+7wGpqalqpKMrPi4uLz15kLy5HAIFnCZimGZuZmflxX1/fO8BBAAEEEEAAAQQQQACB/BZoaWn5XjAYfLOiKIH8noT0CNhPYGZm5lHDMN7a399/5LQLrA0bNtSLSLff7y+1X3wSIZDfAuknEB45cuTq48eP/zC/JyE9AggggAACCCCAAAIIVFdXX7pixYov8yRCPgsIZF4gkUiMmaapbd++fe9pF1ihUKjR4/HsznxrKiKAgGma+8Ph8LkichQNBBBAAAEEEEAAAQQQyHuBFV1dXY8rilKX95MwAAI2FEilUk2RSGQPCywbHg6RHC+wR9f1lr98ioLjJ2ZABBBAAAEEEEAAAQScK6BqmtYvIg3OHZHJELBOgAWWdfZ0RiC9wGqCAQEEEEAAAQQQQAABBJwhoGla+hdMjc6YhikQsJfACy6wOjo6mrxeb3qDzAsBBDIvwAIr86ZURAABBBBAAAEEEEDAMgEWWJbR09gFAi+0wPKuWLHigpqamodd4MCICORUwDTN1Pj4+GODg4MX5LQxzRBAAAEEEEAAAQQQQCBrAvX19b8rLy8/T1EUT9aaUBgBlwocP378gkOHDj0mIqk0gfIXDoXl5eVXrFu37naX2jA2AlkTME1zZmZm5pt9fX0fyVoTCiOAAAIIIIAAAggggEBOBVpaWr4YDAavUhSlMKeNaYaACwT27t171ejo6HdFJPaMBVZ9fX1ZYWHhVwKBwN+5wIEREcipgGEYo729vW+Px+MP5bQxzRBAAAEEEEAAAQQQQCBrAgUFBa9ra2v7rqqqFVlrQmEEXCoQj8e/NTMz85G9e/eOP2OB1dDQsFRRlF+XlpZ2udSGsRHIpsAxXdc1ETmSzSbURgABBBBAAAEEEEAAgZwK1GqatlVEqnPalWYIuEBgcnLyDyLy2t27d598xgKro6NjpdfrPfisnxW6gIQREciJwGFd12tz0okmCCCAAAIIIIAAAgggkDMBTdMOicjKnDWkEQIuEZiZmYkahtHQ39//5BdB/uceWE8tsNJ/8XghgEDmBVhgZd6UiggggAACCCCAAAIIWC7AAsvyIyCAgwWSyWTttm3bDrPAcvAhM5rtBFhg2e5ICIQAAggggAACCCCAwOIFWGAt3pAKCDyfAAssPhsI5FjAMIyD3d3dq3PclnYIIIAAAggggAACCCCQZYHOzs4hVVVXZbkN5RFwpQALLFceO0NbJWAYhnHy5MnwwYMHz7IqA30RQAABBBBAAAEEEEAgOwKrVq3aWlVV1amqqpqdDlRFwL0Cp11gNTc3ry0uLt7rXhYmRyA7AqZpJiYmJn40MDDwd9npQFUEEEAAAQQQQAABBBCwSqChoeGe0tLStyiK4rMqA30RcKrA9PT02r6+vv3p+Z6+ibunsrLyZXV1dQ87dWjmQsBCgdjU1NQN/f39n7cwA60RQAABBBBAAAEEEEAgCwLNzc3XFhcXf0pEAlkoT0kEXC0wNDT00uHh4cdExHh6geWvra19b3V19VdcLcPwCGRBwDTN6XA4fLGIsCDOgi8lEUAAAQQQQAABBBCwWOCVXV1dP1cUpcjiHLRHwHEChw4duvL48ePfFZHEkwusF7/4xYXRaPQrHo/nPY6bloEQsF5gQtf19SJy0PooJEAAAQQQQAABBBBAAIEMC6zSNG2HiJRmuC7lEHC9wMTExO2JROK6/fv3x55cYLW1tRWnUqlfFhcXv9T1OgAgkHmBMV3XK9Nfecx8aSoigAACCCCAAAIIIICAxQKqpmmnRKTc4hy0R8BxAtPT07/x+/1v6OnpmX5ygdXQ0FDq8/n6g8HgcsdNy0AIWC+QXmBVWB+DBAgggAACCCCAAAIIIJANAU3TRllgZUOWmm4XmJiYGDJNc8PAwMDEkwusUChU7vF40n/heCGAQOYFWGBl3pSKCCCAAAIIIIAAAgjYRoAFlm2OgiAOE5idnU16PJ6lkUhkjAWWww6XcWwpwALLlsdCKAQQQAABBBBAAAEEMiPAAiszjlRB4HQCqVSqggUWnw0EciPAAis3znRBAAEEEEAAAQQQQMASARZYlrDT1CUCLLBcctCMaQsBFli2OAZCIIAAAggggAACCCCQHQEWWNlxpSoCaQEWWHwOEMidAAus3FnTCQEEEEAAAQQQQACBnAuwwMo5OQ1dJMACy0WHzajWCkxOTg7u3r27wdoUdEcAAQQQQAABBBBAAIFsCTQ1NQ2WlJTUZ6s+dRFws8AzFlgrVqxYXVNTc8DNIMyOQJYEzFOnTj22f//+l2SpPmURQAABBBBAAAEEEEDAYoE1a9Y8WlVVdZ6IPPmgNF4IIJA5gRMnTqw8ePDgkfRfLqWkpOS8pqamRzNXnkoIIPCUgDk+Pn7fwMDAWxBBAAEEEEAAAQQQQAABZwo0NDT8pKys7E0ssJx5vkxlrcCePXvOnpiY2JpeYKmBQODS9vb2e6yNRHcEHClgxGKxr+7cufPDjpyOoRBAAAEEEEAAAQQQQEDa2tpuLyws/ED639dwIIBAZgV6e3vfEo1G73tygbVhw4Yb/H7/JzPbgmoIIJB+YMLJkyf/8cCBA19AAwEEEEAAAQQQQAABBJwp0NnZuUVV1RtZYDnzfJnKWoFjx45df/jw4c8pmzdv9vT29t4TCAQusTYS3RFwpECqp6fnvYlE4tuOnI6hEEAAAQQQQAABBBBAQILB4HtaW1vvEBEPHAggkFmBaDT63d7e3vcoF1xwgffQoUOPlpWVnZPZFlRDAIH0N7B0XX+riPwUDQQQQAABBBBAAAEEEHCswJs0TfsRCyzHni+DWSgwMTHxyMqVK1/+5AJr3759Q1VVVTUW5qE1Ak4VSOq6fqGI/NapAzIXAggggAACCCCAAAIIyCs0TftXEfFigQACmRU4derU/rq6ukZF0zSfiMxmtjzVEEDgKYH0Aiv9ON0/IoIAAggggAACCCCAAAKOFThb07THWWA59nwZzFoBU0QKWGBZewh0d75AeoG1XkT6nT8qEyKAAAIIIIAAAggg4FqBZk3TdrDAcu35M3j2BfwssLKPTAd3CyR0Xa8VkRPuZmB6BBBAAAEEEEAAAQQcLVCtadpBEUn/wokXAghkXoAFVuZNqYjAMwTSC6zlIjKCCwIIIIAAAggggAACCDhWYImmacdYYDn2fBnMegEWWNafAQkcLpBeYC0RkSmHz8l4CCCAAAIIIIAAAgi4WaBE07RTLLDc/BFg9iwLsMDKMjDlEUgvsEpFJAYFAggggAACCCCAAAIIOFYgoGnaBAssx54vg1kvwALL+jMggcMF0gusQhFJOXxOxkMAAQQQQAABBBBAwM0CXk3TZlhgufkjwOxZFmCBlWVgyiOQXmD5YUAAAQQQQAABBBBAAAFnC2iaNssCy9lnzHSWCviVhoaGgrKyMn7eZOk50NzBAiywHHy4jIYAAggggAACCCCAwNMCLLD4LCCQVQG/UlJSUtnU1HQyq20ojoB7BVhguffsmRwBBBBAAAEEEEDARQIssFx02Iyac4GhoaESpaCgoHn9+vV9Oe9OQwTcIZBeYBWIiOmOcZkSAQQQQAABBBBAAAFXCiiapsX5CaErz56hcyCwc+fOtYrX6z23o6Pj8Rz0owUCbhRIL7CCIpJ04/DMjAACCCCAAAIIIICASwS4ibtLDpoxrRHo6ek5W/F4PK8LhUIPWhOBrgg4XiC9wCoVEe4z5/ijZkAEEEAAAQQQQAABFwsENE2b4BtYLv4EMHpWBSKRyN+mF1jvDIVC38lqJ4oj4F6B9AJriYhMuZeAyRFAAAEEEEAAAQQQcLxAsaZpIyywHH/ODGiRQCQS+Tulrq7uusrKys9alIG2CDhdIL3AWioi404flPkQQAABBBBAAAEEEHCxQJmmacMssFz8CWD0rAqcOnXqWqWjo+OLXq/377PaieIIuFcgvcCqEZFT7iVgcgQQQAABBBBAAAEEHC9QqWnaURZYjj9nBrRIIJlMflFpa2u7u7Cw8B0WZaAtAk4XSOq6vlpE0v9jxgsBBBBAAAEEEEAAAQScKVCjadqQiHidOR5TIWCtQDQavVtpbGx8qLS09DXWRqE7Ao4VSC+wWkRk0LETMhgCCCCAAAIIIIAAAgjUa5rWzwKLDwIC2RGYmJh4SFm7du3vlyxZck52WlAVAdcLpBdYmoj0uF4CAAQQQAABBBBAAAEEnCuwQdO0MAss5x4wk1krMDIy8gdlzZo1/VVVVU3WRqE7Ao4VSC+wXiIiv3fshAyGAAIIIIAAAggggAAC52ia9igLLD4ICGRH4OTJk7uVVatWHV62bNmK7LSgKgKuF0gvsC4Ukd+6XgIABBBAAAEEEEAAAQScK/A3mqb9igWWcw+YyawVOHHixBElFAolPR6Px9oodEfAsQIpXdc3i8j9jp2QwRBAAAEEEEAAAQQQQOAiTdN+KiL825rPAgJZEEilUilF0zQzC7UpiQAC/y2QXmC9U0TuAQQBBBBAAAEEEEAAAQQcK3C5pmnfZYHl2PNlMBsIsMCywSEQwdEC6QXWB0TkDkdPyXAIIIAAAggggAACCLhb4L2apn2dBZa7PwRMn10BFljZ9aU6AoaIXK/r+uegQAABBBBAAAEEEEAAAWcKaJp2nYjcIiKqMydkKgSsF2CBZf0ZkMDZAsbs7OwXtm/fnv4fNF4IIIAAAggggAACCCDgQIENGzZ81u/3f4wFlgMPl5FsI8ACyzZHQRCHChhTU1Pf6e/vv8Kh8zEWAggggAACCCCAAAKuF2hubr6ruLj4XSywXP9RACCLAiywsohLaQRExBwbG3tgcHDwDWgggAACCCCAAAIIIICAMwXWrVv3s/Ly8otFRHHmhEyFgPUCLLCsPwMSOFvAPHXq1KP79+9/qbPHZDoEEEAAAQQQQAABBNwrUFdX95+VlZUvYYHl3s8Ak2dfgAVW9o3p4G4B8+TJk70HDhxY724GpkcAAQQQQAABBBBAwLkCa9as2VFVVdXGAsu5Z8xk1guwwLL+DEjgcIFoNHqit7e32uFjMh4CCCCAAAIIIIAAAq4VaGtrO15YWLjMtQAMjkAOBFhg5QCZFq4XGNN1vcL1CgAggAACCCCAAAIIIOBQAU3TRkWk3KHjMRYCthBggWWLYyCEwwVYYDn8gBkPAQQQQAABBBBAwN0CLLDcff5MnxsBFli5caaLuwVYYLn7/JkeAQQQQAABBBBAwOECLLAcfsCMZwsBFli2OAZCOFyABZbDD5jxEEAAAQQQQAABBNwtwALL3efP9LkRYIGVG2e6uFuABZa7z5/pEUAAAQQQQAABBBwuwALL4QfMeLYQYIFli2MghMMFWGA5/IAZDwEEEEAAAQQQQMDdAiyw3H3+TJ8bARZYuXGmi7sFWGC5+/yZHgEEEEAAAQQQQMDhAiywHH7AjGcLARZYtjgGQjhcgAWWww+Y8RBAAAEEEEAAAQTcLcACy93nz/S5EWCBlRtnurhbIL3AWiIiprsZmB4BBBBAAAEEEEAAAWcKsMBy5rkylb0EWGDZ6zxI40yBcV3X14jIuDPHYyoEEEAAAQQQQAABBFwtUKJp2kERKXO1AsMjkGUBFlhZBqY8AiIyqev6eSKyHQ0EEEAAAQQQQAABBBBwnEC7pmm/F5ESx03GQAjYSIAFlo0OgyjOFDBNczocDl8iIg85c0KmQgABBBBAAAEEEEDA1QKv6erq+pGiKEWuVmB4BLIswAIry8CUR0BEYtPT01v6+vq+iAYCCCCAAAIIIIAAAgg4S6C1tfWaYDD4GREJOGsypkHAXgIssOx1HqRxoIBpmrMzMzN39fX1fcCB4zESAggggAACCCCAAAKuFmhpaflKMBh8r6IofldDMDwCWRZggZVlYMojYJpmanR09Nf79u17DRoIIIAAAggggAACCCDgLIG1a9f+oqKi4kJFUbzOmoxpELCXAAsse50HaRwoYKZvgjU93d/f39/qwPEYCQEEEEAAAQQQQAABVws0NzfvKioqalYURXE1BMMjkGUBFlhZBqY8AmkB0zQPh8PhWjQQQAABBBBAAAEEEEDAWQJdXV2HFEVZ6aypmAYB+wmwwLLfmZDImQKHdV1ngeXMs2UqBBBAAAEEEEAAARcLaJp2SERYYLn4M8DouRFggZUbZ7ogwAKLzwACCCCAAAIIIIAAAg4UYIHlwENlJFsKsMCy5bEQyoECLLAceKiMhAACCCCAAAIIIIAACyw+AwjkRoAFVm6c6YIACyw+AwgggAACCCCAAAIIOFCABZYDD5WRbCnAAsuWx0IoBwoc0XW9XkTiDpyNkRBAAAEEEEAAAQQQcKuAT9O0/SKywq0AzI1ArgRYYOVKmj6uFjBN80Q4HH6ZiPS6GoLhEUAAAQQQQAABBBBwlkBzV1fXI4qiLHPWWEyDgP0EWGDZ70xI5EABwzBG9+3b9+6xsbH7HTgeIyGAAAIIIIAAAggg4EqB8vLy169du/ZuVVUrXAnA0AjkUIAFVg6xaeVeAdM0pxOJxOe3b99+k3sVmBwBBBBAAAEEEEAAAWcJbNiwYYvP57tWUZRiZ03GNAjYT4AFlv3OhEQOFDAMY3Z8fPxne/fuvdSB4zESAggggAACCCCAAAKuFKivr/9+yfMSyAAAIABJREFUWVnZG1VVLXAlAEMjkEMBpb29PRoIBAI57EkrBFwnYBiGMTU11b1nz55NrhuegRFAAAEEEEAAAQQQcKhAU1PTn4qKirpUVVUdOiJjIWALgVgsFlNWrVo1tGzZslW2SEQIBJwtsEfX9SZnj8h0CCCAAAIIIIAAAgi4R0DTtN0i0uieiZkUAWsETpw4cVBZs2bNjqqqqnZrItAVAVcJsMBy1XEzLAIIIIAAAggggIDTBVhgOf2Emc8uAidPntyp1NfXP15RUXGuXUKRAwEHC7DAcvDhMhoCCCCAAAIIIICA+wRYYLnvzJnYGoHR0dH/UhoaGn5VVlb2Kmsi0BUBVwkM6LreIiIpV03NsAgggAACCCCAAAIIOFPAo2lan4g0OHM8pkLAPgLj4+O/Vpqbm39cXFz8ZvvEIgkCzhQwTXN/OBw+X0QOO3NCpkIAAQQQQAABBBBAwFUCq7q6uh5RFKXOVVMzLAIWCExNTf0k/RTCOwOBwBUW9KclAq4SME3z2MGDB989PDz8r64anGERQAABBBBAAAEEEHCgQFVV1atXr179LUVRljtwPEZCwFYCsVjsLiUUCt3q8Xg+ZqtkhEHAgQKmaU6MjY19ae/evTc6cDxGQgABBBBAAAEEEEDAVQL19fU3lJeX/72iKKWuGpxhEbBAIJVKfV5ZunTph1avXn27Bf1piYCrBEzTTExPTz/c39//alcNzrAIIIAAAggggAACCDhQoLm5+V+KiopeoSiKz4HjMRICthIYGhq6WvF4PJtDodBPbJWMMAg4UMA0TTFNM9zd3a05cDxGQgABBBBAAAEEEEDAVQKdnZ1bFUXpUhRFcdXgDIuABQKRSOTNitfrfUlHR8fvLOhPSwTcKBDRdb3TjYMzMwIIIIAAAggggAACThLQNK1bREJOmolZELCrwLZt216qFBQUNK9fvz796E9eCCCQfQEWWNk3pgMCCCCAAAIIIIAAAlkXYIGVdWIaIPA/Ajt27GhRysvLy9etWzeKCwIIZF/ANM1t4XA4/RPCVPa70QEBBBBAAAEEEEAAAQSyJKB0dXV1K4rSkaX6lEUAgb8QGBwcrFDa2tr8hYWFcWQQQCD7AqlUak8kErlIRHqz340OCCCAAAIIIIAAAgggkCWBxlAo9JDH42nOUn3KIoDAXwhEo9ECRdO09BMTZpFBAIHsC5imeSKVSt2wbdu2O7LfjQ4IIIAAAggggAACCCCQDYGamprLly9f/nlVVWuyUZ+aCCDwHAE/Cyw+FQjkUCCVSs2MjY39aP/+/e/OYVtaIYAAAggggAACCCCAQAYF6uvrv1FaWvp3Ho+nKINlKYUAAs8vwAKLTwcCFgg8ruv6+Rb0pSUCCCCAAAIIIIAAAghkQEDTtMdE5LwMlKIEAgjMTYAF1tyceBcCGRVggZVRToohgAACCCCAAAIIIJBbARZYufWmGwIiwgKLjwECFgiwwLIAnZYIIIAAAggggAACCGRKgAVWpiSpg8CcBVhgzZmKNyKQIQHTNJ8Ih8MvF5HpDJWkDAIIIIAAAggggAACCOROINDV1fUfiqKck7uWdELA9QIssFz/EQAg5wLJZLJ/aGjoitHR0Udz3pyGCCCAAAIIIIAAAgggsCiBysrKF61atepuj8fTuqhCXIwAAvMRYIE1Hy3ei0AmBAzDOBmNRm/r6+v7TCbqUQMBBBBAAAEEEEAAAQRyJ9DW1vYPBQUFH1NVdVnuutIJAdcL/PcCK5lMjnm93qDrOQBAIAcCqVQqMTU19cDAwMCbc9COFggggAACCCCAAAIIIJBBgcbGxh8UFRW90ePx+DNYllIIIPA8Aslkcsbr9ZYrF1xwgXdoaGhrRUVFB1oIIJAzgYd1XX9lzrrRCAEEEEAAAQQQQAABBDIioGnab0TkFRkpRhEEEDijwOjoaGT16tVnKZs3b/Zs3779/qKiotee8SregAACmRJggZUpSeoggAACCCCAAAIIIJBDARZYOcSmFQLpp59NT/9iw4YNb1BExNPS0nJbUVHRB5FBAIHcCBiG8Uh3d/frRWQsNx3pggACCCCAAAIIIIAAAhkQKOvs7HxQVdWXZqAWJRBAYA4C09PTX+3r67smvcBSq6urP1RbW3vbHK7jLQggkAGBVCrVOzIy8uGhoaGHM1COEggggAACCCCAAAIIIJADgTVr1rysoqLiqx6Ppz0H7WiBAAIicujQoWuOHz/+lfQCSwkGg69rbW19ABkEEMiNQCqVOjU1NfW1gYGBT+WmI10QQAABBBBAAAEEEEBgsQKNjY1bioqKrvZ4PFWLrcX1CCAwN4Fdu3a9fmZm5qEnF1jl5eWhdevWhed2Ke9CAIHFChiGkYzH4z/p7e29bLG1uB4BBBBAAAEEEEAAAQRyI9DW1nZPQUHBW1RV9eWmI10QQGBwcLBzbGxsW3qBJXV1dcsrKyuPwoIAAjkVeEDX9Ytz2pFmCCCAAAIIIIAAAgggsGABTdPuF5GLFlyACxFAYN4Cp06dqtm/f/+xJxdYoVCo3OPxjM67ChcggMBiBB7Udf0NImIspgjXIoAAAggggAACCCCAQE4ElKcWWOmHMfFCAIEcCaRSqYpIJDLGAitH4LRB4NkCiUTi0Z6enitEpB8dBBBAAAEEEEAAAQQQsL3Auo0bN37b5/PxBELbHxUBnSTAAstJp8kseSmQSCSGxsbGbhkaGrozLwcgNAIIIIAAAggggAACLhJYs2bNu8rLyz/h9XrrXDQ2oyJguQALLMuPgABuFzBNM2EYxt2RSOS9brdgfgQQQAABBBBAAAEE7C7Q2dl5h6Io71QUxW/3rORDwEkCLLCcdJrMks8C39d1/fJ8HoDsCCCAAAIIIIAAAgi4QUDTtHtFhKeIu+GwmdFWAs9ZYCUSieOBQIBNsq2OiTAuEGCB5YJDZkQEEEAAAQQQQACB/BdggZX/Z8gE+ScQi8XigUCgWtf18Sdv4t7c3FySSqWeKCsra82/cUiMQP4KzM7O/nb79u3vF5Hd+TsFyRFAAAEEEEAAAQQQcLxA3caNG7/p8/le5fhJGRABGwmMj4/v8ng8L+rv7598coG1cePGomQy+YPCwsLX2SgnURBwvED6Ru5TU1Of3bt37x2OH5YBEUAAAQQQQAABBBDIU4HGxsZ3BoPBLV6vtz5PRyA2AnkpEI1GHywsLLxU1/WZJxdYdXV1AVVVP1VRUXFtXk5EaATyVMA0TUNE7gqHw+/L0xGIjQACCCCAAAIIIICA4wU0TfumaZpXKoqiOn5YBkTARgKjo6OfMwzjxv3798eeXGCJiK+8vPySdevWfc9GOYmCgFsE7tJ1/Uq3DMucCCCAAAIIIIAAAgjkm4CmaXeKyBX5lpu8COS7wODg4NvHxsZ+KCKJpxdY6rJly85ZtWrV4/k+HPkRyDcB0zTvDofD703/hcy37ORFAAEEEEAAAQQQQMAFAspTC6z3uGBWRkTAVgIHDx4898SJE0+IiPH0Aks6OjpWer3eQ7ZKShgEXCAQjUYf2bNnz8cSiUT6LyUvBBBAAAEEEEAAAQQQsJGAz+cLNTU1/Z9AIPByG8UiCgKuEEgmk7Xbtm07nB6WBZYrjpwh7SwwOzs7MjMzc+vg4ODn7ZyTbAgggAACCCCAAAIIuFGgsbHxg4WFhR/3+XzL3Tg/MyNgpQALLCv16Y3AaQQURfny1q1brwEHAQQQQAABBBBAAAEE7CWwadOm20zT/LC9UpEGAXcIsMByxzkzZR4JmKb59XA4nF5gcR+sPDo3oiKAAAIIIIAAAgg4XsCjadptIvJBx0/KgAjYUOB5F1iKogx5PB4eC2rDQyOSswXi8fgvjxw5ct3IyMhOZ0/KdAgggAACCCCAAAII5I9ATU3NmmXLln3B6/Vuzp/UJEXAGQKpVMowTXP1c+6B1draWmOa5vaioqJKZ4zKFAjkj0AqlToyOzt7Y29vb/rxvLwQQAABBBBAAAEEEEDABgJtbW2X+3y+G71eb70N4hABAVcJTE9Pn1IUZcOuXbuOpgf/n5u4t7S0pBdXPysqKnqpq0QYFgGbCJimeUs4HN5ikzjEQAABBBBAAAEEEEDA9QLt7e03+ny+6z0ej8f1GAAgkGOB6enp34nIG/v6+k49Y4HV3Nxckv4HdElJCb/tzfGh0A6BtIBhGLd2d3enF1hJRBBAAAEEEEAAAQQQQMB6ga6urlsURfm49UlIgID7BCYnJ7+qKMr1/f39k89YYIlIwZIlSy5du3btd9zHwsQIWC+QTCZ/PDU1tWVwcHDA+jQkQAABBBBAAAEEEEDA3QLV1dXLampqbvF4PO9xtwTTI2CNwP79+9956tSpH4pI/NkLLLWuru7sysrK31sTja4IuFvAMIzDpmluiUQi33W3BNMjgAACCCCAAAIIIGC9QFNT00UFBQW3+P3+NuvTkAAB9wmcOnXqxfv37/9j+gdLz15gSSgUavR4PLvdx8LECNhDQFGULVu3br3FHmlIgQACCCCAAAIIIICAewU2bNjwMa/Xe7Oqqj73KjA5AtYJpFKppkgksufpBP9zE/f0f8ACy7qDoTMCaQHDMG7u7u6++emvSKKCAAIIIIAAAggggAAClgiomqZdLyI3WdKdpgggICyw+BAgYGOBRCLx4NTU1Cf27t273cYxiYYAAggggAACCCCAgKMFampq1lRVVd3o9/vf7uhBGQ4BGwuwwLLx4RANAdM0TxqG8ZFIJPI9NBBAAAEEEEAAAQQQQMAagYaGhs2BQOALBQUFa6xJQFcEEHjBBVZjY2O91+v9YzAYrIQKAQSsETBN85pwOPxla7rTFQEEEEAAAQQQQAABBDZu3Pghj8dzm6qqKhoIIJB7gZmZmfSXO87u7+/f93T3Z9wDq7m5eYWqqj8MBoMvyX08OiKAQFogFot9eufOnV8QkUlEEEAAAQQQQAABBBBAIOcCvo6Ojr/3er2fy3lnGiKAwJMCMzMzvzMM49L+/v4jp11glZeXlxcXF19XXV19LWYIIGCNQCwWe2xycvK6oaGhx61JQFcEEEAAAQQQQAABBNwr0NTU1FFYWHiz1+t9jXsVmBwBawWOHz/+uampqVvHxsbGTrvAEpGC1atXv37p0qU/tjYq3RFwr4BpmlHTNN/X3d39z+5VYHIEEEAAAQQQQAABBKwR6OrqulxRlG+ISIk1CeiKAALDw8NvHhoa+oWIxJ9vgaWEQqFNHo/nj3AhgIB1AqZpXhkOh++yLgGdEUAAAQQQQAABBBBwp0BXV9cViqLc6c7pmRoBewikUqmzI5HIVhExn2+BJWeddVbIMIxue0QmBQLuFBgdHf3G3r1707+5P+hOAaZGAAEEEEAAAQQQQMASgcrm5uZriouLr7ekO00RQOBJAVVVO//0pz9F/pLjGTdxT/8BCyw+LQhYLzA7Ozs8Ozt7RX9//4PWpyEBAggggAACCCCAAALuEFizZs1fB4PBrwSDwXZ3TMyUCNhTgAWWPc+FVAicTiD9NcnLdV3/ATwIIIAAAggggAACCCCQG4FNmzZdYhjGvYqiqLnpSBcEEDidwJwWWKtXr27z+/0Pl5WVrYARAQSsE5ienv5IX1/fP4nIlHUp6IwAAggggAACCCCAgGsEPKFQ6G0ej+du10zMoAjYUGB8fPxIIpH4mwMHDuz6y3jP+Qlha2vrGlVV7wwEAq+04RxEQsA1AtFodEc8Hn/f4ODg464ZmkERQAABBBBAAAEEELBIoLq6en1ZWdnnS0pKLrQoAm0RQEBEYrHYv6UfbNbb2zv0ggssEalYvnz51StXrrwBOQQQsFzgYl3XH7A8BQEQQAABBBBAAAEEEHC4gKZpF4nI/Q4fk/EQsL3A4cOHbzx27NjtIjJ6pgWWv6Gh4XVlZWX32X4qAiLgcIFkMvm2bdu2/VhEEg4flfEQQAABBBBAAAEEELBSQA2FQm/0eDw/sTIEvRFAQGRiYuJNe/bseUhEZs+0wJJNmzadZ5rmY8AhgIC1AtPT07+dmZm5emhoqNfaJHRHAAEEEEAAAQQQQMC5AoWFhbU1NTUfr6iouMq5UzIZAvkhoCjK+Vu3bn3OrXSecw+s9DgssPLjUEnpDgFFUV65devWh90xLVMigAACCCCAAAIIIJB7gfXr11+gqupDPp+vOPfd6YgAAn8pMK8FVigUOldRlEdVVeXRoXyOELBYIJFIXJJMJn/e29v7jK9PWhyL9ggggAACCCCAAAIIOEXAs3Hjxlf7fL4HnTIQcyCQrwKGYRimaf5VJBL5r2fPcNpvYDU1NZ3l9Xp/VVhYWJmvQ5MbAacITE9PP5RMJq8ZGBgYdMpMzIEAAggggAACCCCAgF0EqqurlxUXF3+kvLz8o3bJRA4E3CoQjUZPJpPJv929e/ef5rTAqq2tbQgGg18tKSl5lVvRmBsBuwjMzs4mTdN86Y4dO56zgbZLRnIggAACCCCAAAIIIJCvAi0tLZqqqr8sLCxcnq8zkBsBpwhMTk7+amZm5kOHDh0amNMCS0SW1NbWfqC6uvpGpyAwBwL5LDA+Pr55YGDgF89+CkM+z0R2BBBAAAEEEEAAAQRsIOBZv379ywsKCv7NBlmIgIDrBU6cOPHJgwcPfl1ERua6wPK1tbVdVFhYyCNEXf/xAcAOAiMjIw/G4/EPHjly5KAd8pABAQQQQAABBBBAAAEnCKxcubIyGAx+rLS09GNOmIcZEMh3gWg0+ube3t4HRCQx1wVW+kmErzBN8zf5Pjz5EXCCQCKRSKRSqbN27ty5zQnzMAMCCCCAAAIIIIAAAnYQaG9vb1NV9WG/37/CDnnIgIDbBRRFeeXWrVsfPp3DaW/inn4jCyy3f2yY324Cw8PDm4eGhvgZod0OhjwIIIAAAggggAAC+SqgtrW1nVdYWPhIvg5AbgScJrCgBdbGjRtfrijKr71er9dpIMyDQD4KjI2N/TaZTP7dgQMHjuZjfjIjgAACCCCAAAIIIGAngdWrV1cUFBTcUFpaerWdcpEFAbcKJJPJ9APMXtXT0/PvpzN43m9gNTQ0nFNQUPCDQCCw1q14zI2AnQTSf5k9Hk9rOBx+ztMY7JSTLAgggAACCCCAAAII5IPAxo0b0//WfcLn8y3Nh7xkRMDpArFYbF88Hr90YGDgD/NaYFVXV9cXFxffXF5efonTkZgPgXwRmJiYeJdpmj8YGBiI50tmciKAAAIIIIAAAgggYEMBz+rVq89ZunTpYzbMRiQEXCkwPj7+g8nJyU8cP35877wWWCJS3NjY+K7S0tLbXSnH0AjYUCCZTPaapvmynp6eEzaMRyQEEEAAAQQQQAABBPJCoL6+vkxRlK+Wl5e/LS8CExIBFwhMTExcvWfPnu+IyNR8F1hqZ2fnG1RVvc8FToyIQN4IJJPJ2m3bth3Om8AERQABBBBAAAEEEEDAZgKaptUkk8k+r9dbarNoxEHAtQKGYWzu7u7+uYgY811giaZpF4nI/a7VY3AEbChw8uTJjxYVFX2lt7d31obxiIQAAggggAACCCCAgN0F1KVLl56/evXq39k9KPkQcJnAxbquP/B8Mz/vTdzTF7DActlHhXHzQiCVSh0tKChoeeKJJybyIjAhEUAAAQQQQAABBBCwkUBbW1uxaZr/FgwGz7VRLKIggIDIwhdYra2tL/F4PN8uKChoQBIBBOwjcOzYsVWHDx8+ZJ9EJEEAAQQQQAABBBBAID8EQqFQuaqqw4qiePMjMSkRcL5APB4fSKVS7961a9cjzzftC34Dq6CgYN2KFStuWLJkCTe2c/7nhQnzSGBiYuJHe/bsuVxEUnkUm6gIIIAAAggggAACCFgtoAYCgcva29v/2eog9EcAgf8vMDIy8s9Hjx69MRaLnfYJhOl3vuACS0SCra2tVwaDwduARQAB+wiYphlXFKVE1/WEfVKRBAEEEEAAAQQQQAABewtomuYzDOOEqqrl9k5KOgTcJTAzM3PNrl277hSRmeeb/EwLLKWrq+syRVHucRcd0yJgf4Genp6zEonEVvsnJSECCCCAAAIIIIAAAvYQqKurC1RWVkbtkYYUCCDwtIBpmm8Lh8P3vpDImRZY8tQC6wWLQI4AArkXiEajx3t7e5fnvjMdEUAAAQQQQAABBBDIT4H29vY7A4HAFfmZntQIOFfANM3Lw+Hw9xe1wNI07VIRSS+wzrjsci4lkyFgTwFd1z0iYtgzHakQQAABBBBAAAEEELCVgKJpGv/f2VZHQhgEnhQwReRyXdd/sKgFVn19/csDgcBXCwsLW4FFAAF7CZw4ceLmgwcPfsJeqUiDAAIIIIAAAggggID9BILBYFdra6tuv2QkQsDdAtFodFc8Hv/A4ODg/13UAktE6tauXXv9kiVL3uNuUqZHwJYCCV3XA3wLy5ZnQygEEEAAAQQQQAABGwmsXbt295IlSxptFIkoCCAgIiMjI9/at2/fLSKyf7ELLP/GjRuv8vl8X0YWAQRsJ5A8ePCgduLEiR7bJSMQAggggAACCCCAAAI2EairqyuvrKw8ISI+m0QiBgIIPCWQSCSu7unpuUNEZhe7wErfyP0KRVHSjzPkhQAC9hIwJyYm/rBnz55z7RWLNAgggAACCCCAAAII2EegoaHhltLS0usURVHtk4okCCCQFjBN88pwOHzXmTTmdGP2zs7Od4vInaqq8pf9TKL8OQK5F5g4depU8/79+4/lvjUdEUAAAQQQQAABBBCwvYBP07T0t6/KbZ+UgAi4TMAwjPSDFa7s7u7+9plGn9MCq62tbbPX6/2az+dbdqaC/DkCCORWwDTN2enp6S/39/dfm9vOdEMAAQQQQAABBBBAwP4C1dXVf71y5cpfKIpSZP+0JETAXQKJROJEMpn8QG9v731nmnxOC6yGhobOwsLCm/1+/9+eqSB/jgAClggc0XW9QUSilnSnKQIIIIAAAggggAACNhVoamr6Q3Fx8Vn8fNCmB0QsVwvMzs7+SywW27Jnz57ImSDmtMASkdL29vaPBgKBLWcqyJ8jgEDuBUzTHD1y5MiVx44d+2nuu9MRAQQQQAABBBBAAAF7CqxYsaJ5+fLljyiKwq+J7HlEpHK5QCwWu3nnzp1fEJGJM1HMdYGVvpH7hxVFue1MBflzBBDIvUD6d8PRaPSPfX19L859dzoigAACCCCAAAIIIGBPgZaWljuKioreLiIBeyYkFQLuFjBN85pwOPzluSiwwJqLEu9BIA8ETNM8HIvF3tjb2/tEHsQlIgIIIIAAAggggAAC2RYo1TStW0Tqs92I+gggsDCBrCyw1q9f/y6v1/tFj8fDkxsWdi5chUC2BWKpVOrnkUjksmw3oj4CCCCAAAIIIIAAAnYXWLdu3QdLS0tvVFW1wu5ZyYeAGwVSqdRoKpX6h+3bt989l/nn/A2spUuXnl9VVfWZYDD4V3MpzHsQQCD3AoZh7Oru7n6ViAzlvjsdEUAAAQQQQAABBBCwjYB348aNj3u93vTN2+f8717bpCcIAi4QmJmZeeTkyZPXDw8PPzaXcefzF7lq/fr1nywoKPjgXArzHgQQyL3An79+OR6NRu/YtWvXdbnvTkcEEEAAAQQQQAABBOwhUFdX95aKioovqqq60h6JSIEAAs8WiMfjX9mxY8dNInJqLjrzWWCpmqZ9XEQ+PZfCvAcBBKwRME3ziXA4/HIRmbYmAV0RQAABBBBAAAEEELBWYOPGjQ96vd4LFUXxWZuE7ggg8AICn9B1/RYRMeeiNJ8FlmzatOl60zRvnkth3oMAAtYIGIZxPBqNfr6vr+9L1iSgKwIIIIAAAggggAAC1gmsXLnyxcuWLfu2qqqt1qWgMwIInElAUZQtW7duTS+w5vSa1wKrpaXlioKCglu8Xu/SOVXnTQggkHMB0zQNwzB+HYlEXisiRs4D0BABBBBAAAEEEEAAAQsFOjo6vuXxeC5RFCVoYQxaI4DACwgkk8kT8Xh8S19f311zhZrXAqu0tPTslStX3hwMBl8x1wa8DwEEci+QSqUOTE5OfmpwcPC7ue9ORwQQQAABBBBAAAEELBNo6ujouMfr9Z5tWQIaI4DAGQVmZmZ+c/jw4S0TExN/OuObn3rDvBZYIhLcuHHjLT6f78NzbcD7EEAg9wKmaSYNw/hJJBK5LPfd6YgAAggggAACCCCAgDUCHR0dX/V4PO9UFKXImgR0RQCBuQgkk8nbtm3btkVEZuby/vR75rvAkq6urlsURUnfzJ0XAgjYWCCRSOw8fvz4dcePH/+ljWMSDQEEEEAAAQQQQACBTAksD4VC93g8nr/JVEHqIIBAdgRM0/xMOBy+fj7VF7LAullRlHk1mU8g3osAApkRME0zYRjGdyORyJWZqUgVBBBAAAEEEEAAAQTsK9Dc3HxrIBC4yuv1ltg3JckQQCAtYJrmLeFwOP0NrDm/5r3Aam5ufmdBQcGnfD7f6jl34Y0IIGCJQDKZ/OPIyMhHDx48+IglAWiKAAIIIIAAAggggEBuBIKhUOhuj8fz5ty0owsCCCxUIJlMHojH45/q6+ub1z2b573A8vv9LQ0NDbcWFha+bqFhuQ4BBHImkDJN85/C4fD7c9aRRggggAACCCCAAAII5Figvb39036//0OqqpbmuDXtEEBgngLRaPTBwcHBa+PxeP98Lp33Ait93yxN024Tkavn04j3IoCANQLRaPQ/ent7PyoiujUJ6IoAAggggAACCCCAQFYFAp2dnXeoqvr2rHahOAIIZErgdl3Xr0n/knA+BReywJJNmzbdZpomTyKcjzTvRcBagQX9F4S1kemOAAIIIIAAAggggMCZBdasWbOluLj4o4FAgG9fnZmLdyBguYCiKF/eunVreoE1r9eCFlgtLS2fKSgo+Aev1+ufVzfejAAClghEo9FfHThw4Nrp6entlgSgKQIIIIAAAggggAACWRCoqqoqWb169RcVRbkiC+UpiQACGRZIJpMlcGkyAAAgAElEQVTxeDz+pb6+vo/Pt/SCFljt7e2v9fv9n1ZVtWO+DXk/AghYI2AYxq3d3d3ppzwkrUlAVwQQQAABBBBAAAEEMiqgtLe3f9Tn823xeDw8eTCjtBRDIDsChmFsSyQSW3bs2PHL+XZY0AJLRCpCodDXPR7PJfNtyPsRQMAagWg0+q/Dw8NbhoeHu61JQFcEEEAAAQQQQAABBDInsGLFiqqlS5fe7PV635u5qlRCAIFsCqRSqR9GIpH/LSJj8+2z0AWWaJp2p4jwNc35ivN+BCwUSKVSt0QikZtFJGZhDFojgAACCCCAAAIIILBYAWXdunUfDAQCn+beV4ul5HoEcipwl67rVy6k44IXWB0dHV/xeDzvUxTFt5DGXIMAArkXSD+R8OTJk9efOHHi97nvTkcEEEAAAQQQQAABBDIjUF9fv7qkpORTXq/3nZmpSBUEEMi2gGmaiVQqdce2bds+tJBeC15grVq16l0VFRVbfD7f2oU05hoEELBGIJlM3nTkyJEvDA8PT1mTgK4IIIAAAggggAACCCxKwNPW1va/fT7f571eb2BRlbgYAQRyJpBIJPaOjo7efPDgwbsX0nTBCywRqdu4ceM3fT7fqxbSmGsQQMAagUQi8cfZ2dmP9fX1/c6aBHRFAAEEEEAAAQQQQGDhAvX19U1FRUWf8vv93JN54YxciUDOBRKJxK96enquEpEDC2m+mAVW+j5Y94rIZQtpzDUIIGCdQDwev2V0dPS2w4cPn7IuBZ0RQAABBBBAAAEEEJi3QEFzc/N7/3zfqy95vV7PvK/mAgQQsFLg+7quX77QAItaYIVCoe8qivI2VVXVhQbgOgQQyL1APB7vm52d/cDu3bv/Pffd6YgAAggggAACCCCAwMIEmpqaOgoKCj7j9/v/dmEVuAoBBKwQMAzDME3znkgk8o6F9l/UAmvdunXXl5SUfNjj8VQtNADXIYCANQLxePwriUTi1v7+/iPWJKArAggggAACCCCAAALzEihtbm6+qri4+HPzuoo3I4CA5QKpVOrk1NTUbQMDA59ZaJhFLbCWLl3auWLFim94vd5zFhqA6xBAwBqBZDI5nEqlLt+xY8dvrElAVwQQQAABBBBAAAEE5i7Q2Nj4Ip/P9/XCwkJt7lfxTgQQsINAMpn8w5EjR64aHh6OLDTPohZYIuLv6ur6qaIor11oAK5DAAHrBJLJ5D3xePyTfX19+61LQWcEEEAAAQQQQAABBF5YoLq6ellFRcU1RUVF12GFAAL5J2Ca5kPhcPhNIjK70PSLXWClb+R+v4hctNAAXIcAAtYJGIYRm5qaunzPnj2/EJGEdUnojAACCCCAAAIIIIDA8woozc3N5/r9/h/4/f7VOCGAQF4KPKDr+sWLSb7oBVYoFPqMqqpXKYpSvpggXIsAAtYIJJPJR03TvKKnp6ffmgR0RQABBBBAAAEEEEDg+QVaWlrq/H7/F3w+X/rbG7wQQCDPBEzTHDMM45uRSOTji4m+6AXW6tWrtaqqqrsURelcTBCuRQAB6wSmp6c/mkwm7xwYGJiwLgWdEUAAAQQQQAABBBB4joCvoaHhVSUlJfepqlqADwII5J+AaZrdJ0+evGJoaEhfTPpFL7Ceug/WrxRF+evFBOFaBBCwTiCVSu1NpVKv3r59e591KeiMAAIIIIAAAggggMAzBTRNW2cYxo9VVeXG7Xw4EMhTAdM0/284HL5wMfe/So+eiQVW+j5Y6aeYvSJPLYmNAAIiMj09/T3DMD6ye/fuk4AggAACCCCAAAIIIGC1QFVVVUl5efn7y8rKPmt1FvojgMCiBB7Wdf2Vi6qQqQXW+vXrb/H7/en7YFUsNhDXI4CANQKpVGpqamrqpQMDA+nHmhrWpKArAggggAACCCCAAAL/LRAKheoURfkvVVVrMEEAgfwUME1zdHZ29ps7duy4frETZOQbWMuXL2+vqan5oaqqGxYbiOsRQMA6AdM09ySTyfN7enpOWJeCzggggAACCCCAAAJuF2hpaan0+Xz3+/3+v3K7BfMjkM8ChmH0HDt27K1Hjx7dtdg5MrLAEhFvV1fX7xRFOXexgbgeAQSsFRgZGflYYWHh7b29vbPWJqE7AggggAACCCCAgEsFPJWVlResWbPm14qieF1qwNgIOELANM3/CofDLxGR1GIHytQCK30frMdE5LzFBuJ6BBCwVsA0zUlFUVbpuj5ubRK6I4AAAggggAACCLhRQNO0MtM0BxVFqXTj/MyMgMMEHtd1/fxMzJSxBVZra+vNhYWF71cUpTwTwaiBAALWCcTj8b6qqqoN//mf/5m0LgWdEUAAAQQQQAABBFwo4Kmurr63trb2rS6cnZERcJSAaZpj0Wj0a7t27fpEJgbL2AJLRNZ0dXWlv+LZkolg1EAAAUsFzG3btr08mUz+h6UpaI4AAggggAACCCDgKoFAILCmra1tr6IoqqsGZ1gEHChgmuaucDj8KhEZysR4mVxgpX9G2J1+WEQmglEDAQSsF9B13ScifAvL+qMgAQIIIIAAAggg4AYBj6Zp/H9PN5w0M7pFIKLrememhs3oAqu5ufnRYDB4rqqqbMszdULUQcBCgdHR0fDevXvPEhHDwhi0RgABBBBAAAEEEHC+gPLUTwcvdf6oTIiA8wUMwzBmZmYe7+/vT9/APSOvjC6wli9f/vaampr/o6pqVUbSUQQBBKwWSA4NDb1seHg4/ZAGXggggAACCCCAAAIIZEWgtrZ2Q3V1dTj9hPusNKAoAgjkVMAwjOHjx49/+MiRIz/IVOOMLrBEJKBp2g4RWZepgNRBAAHLBSbi8fj6HTt2HLQ8CQEQQAABBBBAAAEEHCewZs2amqqqqj4RKXXccAyEgHsFBnRdXy8i8UwRZHqBJaFQaKfH42kVkYzXztTQ1EEAgbkLmKZpJBKJbdu3b3+piEzO/UreiQACCCCAAAIIIIDAGQUKGxsbHygtLX25iHjO+G7egAAC+SBgplKp3kgkkl5gZeyV8SXTihUr7q2urn6TqqoFGUtJIQQQsFTANM2Jo0ePfuzo0aP/ZGkQmiOAAAIIIIAAAgg4SmDVqlVvXbp06TcVRSl31GAMg4CLBQzDiJ84ceJHhw8ffkcmGTK+wBKRF3V1df1SURTug5XJk6IWAtYLHJqamrq4v79/q/VRSIAAAggggAACCCCQ7wKtra1dwWDwQRGpzfdZyI8AAv9fwDTN4XA4fKGI6Jl0ycYCSzRNOyQiKzMZlFoIIGCtQPqnhLOzs5Hh4eHNx48f32ttGrojgAACCCCAAAII5LPA8uXL66qqqn7s9/s3KYrCU+zz+TDJjsBzBQ7rup7xxXRWFlgdHR0Rj8ezUVGUrNTn04EAAtYIGIYxMTk5+Z2BgYF/FJGYNSnoigACCCCAAAIIIJDnAoHGxsabiouLr1RVtSzPZyE+Agj8hUD6iw+pVGrbtm3bujINk5UF06pVqz6xdOnS6xVF4T5YmT4x6iFgsYBpmgdmZ2ev3bFjx48tjkJ7BBBAAAEEEEAAgTwUWL9+/Vv8fv+tiqKsycP4REYAgRcWiA0PD98wNDT0+UxDZWWBJSKrNE3bwWNQM31c1EPAHgKmafZGo9Grd+3a9Vt7JCIFAggggAACCCCAQD4ItLa2vqKwsPDLiqK05UNeMiKAwLwFJnRdbxGRo/O+8gwXZGuBlb4P1qiI8CSJTJ8Y9RCwgYBpmsnZ2dn/OHny5IePHTvWa4NIREAAAQQQQAABBBCwucCyZcs2Ll269EsFBQUvVRTFa/O4xEMAgQUIJBKJkz09PUsXcOkZL8naAqutre3BwsLC14pI1nqccTregAACWRNIpVIjsVjszr6+vs+IyGTWGlEYAQQQQAABBBBAwAkClU1NTdcHg8F3ejwevujghBNlBgSeJWCapjk+Pn7f4ODgW7KBk7XlUnV19Tm1tbWPigib9WycHDURsIGAYRj7EonEzTt27LhbREwbRCICAggggAACCCCAgP0EvK2trVcGAoFrVVVdbb94JEIAgQwJJI8cOfKio0ePhjNU7xllsrbAEhFV07T0U8p82QhOTQQQsIdAKpXaGYvFbujr6/uZPRKRAgEEEEAAAQQQQMBOAqFQ6FKPx3ODiDTZKRdZEEAg4wIJXdfTD/PLypcbsrnAktbW1p5gMLgh4yQURAAB2wgYhmHE4/E/RqPRT+7bt+9h2wQjCAIIIIAAAggggIDlAu3t7a/1+Xyf9ng8HZaHIQACCGRVIBqNhnt7e7VsNcnqAmvZsmWXr1q16p5shacuAgjYQyC9w4rFYvePjo5+mpu62+NMSIEAAggggAACCFgtsGTJkhcvW7bsxmAw+DJu2m71adAfgewLHD58ePOxY8d+mq1OWV1giUiJpmkT2QpPXQQQsI+AYRhj0Wj0tr6+vq+KSPoppLwQQAABBBBAAAEEXCpQW1vbWFJScm1BQcElHo8n6FIGxkbAVQK6rheLyHS2hs72Akva2trihYWF/mwNQF0EELCPgGmax5LJ5HU9PT33ikjKPslIggACCCCAAAIIIJBDgdLm5ub3BYPB61RVrchhX1ohgIBFArFYbHrnzp3pBVbWXllfYJWVlX22oaHhuqxNQGEEELCbwBHTND8YDod/brdg5EEAAQQQQAABBBDIuoC/ra3t0kAgcKuiKMuy3o0GCCBgC4HBwcFPjI2N3ZzNMFlfYJWUlFQ1NTUNZ3MIaiOAgL0EZmdnDyWTyffu2rXrX+2VjDQIIIAAAggggAACWRRQu7q6LlIU5Z9EpCqLfSiNAAI2E9izZ0/lxMTESDZjZX2BpWmaT0RmszkEtRFAwF4CpmmayWRyr2ma796+ffvv7JWONAgggAACCCCAAALZEOjq6vpfiqL8UET42WA2gKmJgL0F/LquJ7IZMesLrM2bN3t27Njxi2Aw+LfZHITaCCBgL4H0EmtkZOSx8fHx94+Ojm63VzrSIIAAAggggAACCGRSoK2t7XxVVX9WUFDAzwYzCUstBPJAIP1E+ra2ts333XdfVu+DnPUFVtq6tra2obq6ek8euBMRAQQyKJBeYo2Njf1sZmbmo8eOHdufwdKUQgABBBBAAAEEELCJwPr16zcpivJLv99fbZNIxEAAgRwKjIyM1O3bt+9AtlvmZIEVCoXKPR5P+reQOemXbTTqI4DA/AQmJye/kUgkbtq3b9/x+V3JuxFAAAEEEEAAAQRsLKC0tra2+3y+X/l8vlob5yQaAghkT8BMpVJLIpHIWPZa/HflnCyUNm7cWDQzM/PLsrKyC7I9EPURQMCeAkePHv3okSNH7hSRCXsmJBUCCCCAAAIIIIDAPASUZcuW1fv9/nurq6vPmcd1vBUBBBwkMDEx8XBhYeHFPT0909keKycLLBFRly1bds6qVasez/ZA1EcAAfsKjIyMvC0ej//8yJEjM/ZNSTIEEEAAAQQQQACBMwgoy5cvX1NQUPC1qqqqV6OFAALuFTh8+PDZx44d00XEyLZCrhZY0tnZuUJE9quqmn4qIS8EEHCpwPj4+OaBgYFfikjMpQSMjQACCCCAAAII5LXAihUrVvv9/tsrKysvyutBCI8AAosSMAxjVkTWdnd3H1lUoTlenLMF1ooVK6oKCgoeWLJkyXlzzMbbEEDAoQKTk5Nv2L17d3qJldXHrDqUj7EQQAABBBBAAAHLBFauXFnr9/u/tGTJks2WhaAxAgjYQmBkZOR3s7Ozbzx8+PCpXATK2QJLRHzV1dUX1tbWPpiLweiBAAL2FojFYq/fuXPnr1hi2fucSIcAAggggAACCDwtUFNTs6awsPCzFRUVl6CCAAIIHD58+DXHjh37Ta7+TZfLBZZ0dXU1mKa5S1VVL0eNAAIITE9Pv6mvr+8hEUl/9ZQXAggggAACCCCAgE0Fli5d2lhaWnpTeXn5W20akVgIIJBDAcMwkoqitIbD4YFctc3pAquhoaHW4/HcX1xcvClXA9IHAQRsLZCKxWJv27lz589YYtn6nAiHAAIIIIAAAi4WqK6uXl9cXHxjWVnZxYqi5PTfkC5mZ3QEbC0wNTX1R9M007eGOZyroLn+L5/AypUrNy9fvvyfczUgfRBAwPYC0VgsdtXOnTt/yBLL9mdFQAQQQAABBBBwmUBlZeVZZWVlnygvL79QURR+SeOy82dcBJ5P4Pjx45cfOnQo/UWEnD2cK9cLrPTTCDtM09Q9Ho+HjwICCCDwlMB4PB7/hx07dvxIRKZRQQABBBBAAAEEELBeoKKi4q8qKipuKC8vf4miKDxN3vojIQECthBIpVLpnw9u6u7u3pbLQDlfYK1Zs2atz+e7p6ysjKcR5vKk6YWA/QVGZmZmbtq1a9e9IpKTp1jYn4SECCCAAAIIIICANQLr169/dTQa/cfS0tKzVVVleWXNMdAVAVsKTExMPDI7O/uOAwcO7MtlwJwvsESksK6u7i2VlZV353JQeiGAgP0FTNM8NT09fXt/f/93RCRnv6W2vwwJEUAAAQQQQACB3Am0trZe7PP5PuXz+dpFhF/O5I6eTgjkhcDIyMjb9+3bd5+IRHMZ2IoFlmzYsOHFqqr+zuv1ssnP5WnTC4E8EDAM4+TMzMx3Z2dnv7Vv377+PIhMRAQQQAABBBBAwDECXV1dlxmGcb3H42lieeWYY2UQBDImkEwmE4ZhvHT79u2/z1jRORayZIFVW1vbEAgEvlZWVva/5piTtyGAgIsETNMcjcViD4yMjNxx7NixP7podEZFAAEEEEAAAQSsEvB0dnZepqrqJ0VknVUh6IsAAvYWmJiY+JdYLHb1wYMHB3Od1JIFlogEmpr+H3v3AR5ZWe8P/H1PmZ7MpJfN7qZtkk02HQXxqtgQFXvBDiriVRHhL0iVJti4IqKAAiree1WuXfF6Fa6KDVGcbMqmbtom2WzqzGQykzkzp7x/zl5QVJZNmXLKd57HRx857/t+f5/3LJv85pSGc/Ly8u7LdsFYDwIQMIeAqqrr8Xj8N6urq18MhUIPmiM1UkIAAhCAAAQgAAFTCrjb29vfKQjC5YSQWlNWgNAQgEBWBNbX1981Njam3z6YtbcPPllYrhpY5JRTTnkpYwy/lGblFMMiEDCngKIoUiqV6uV5/pZDhw79wJxVIDUEIAABCEAAAhAwtEBJU1PTuzwez4WU0mpDJ0U4CEAgpwKyLCuKopw1NDT0y1wEyVkDa9euXQ0+n+8Wn8/36lwUjjUhAAFzCDDGVEVRRmRZvml4ePh+c6RGSghAAAIQgAAEIGB8gfLy8uaCgoL3uVyuN3McV2n8xEgIAQjkUmBtbe270Wj0yqWlpazfPqjXnbMGFiHE0dzc/Da32423EebyDMTaEDCBgKZpjFI6parqTX19fd8khKRMEBsRIQABCEAAAhCAgGEFCgoKnldUVPSxvLy853IcV2DYoAgGAQgYRkCSpHMHBwf1iwpy8vtYLhtY5MCBA2dzHPc9URSdhtkRBIEABIwsMLe+vn7r2NiY/vy8sJGDIhsEIAABCEAAAhAwqkBLS4v+Mq1PC4LQJAiCy6g5kQsCEDCOgCzLkqZpbzp06NBPc5Uqpw2s/Pz8+pKSkhsDgcBbcwWAdSEAAXMJMMaW4/H4d+Px+G1zc3OHzZUeaSEAAQhAAAIQgEBOBbjOzs6zKaVfJIRUUUq5nKbB4hCAgGkEotHofUtLSzeura1N5Sp0ThtYhBChra3tXFEU780VANaFAATMJ8AYi29sbAxIknTJ9PT0o+arAIkhAAEIQAACEIBA1gUCNTU17ywsLLyaEFKW9dWxIAQgYGoBRVHe29fX9w1CiJqrQnLdwCItLS1v4Hn+PlEUfblCwLoQgID5BPSHu0uStPD4A97fMjY29nvzVYDEEIAABCAAAQhAIDsC5eXl1W63+6aCgoJXU0rzsrMqVoEABKwiEI/HVyRJOn96evrHuawp5w0sr9dbtnv37su8Xu9HcwmBtSEAAfMJMMb00LH19fW3HD58+EFCiGy+KpAYAhCAAAQgAAEIZE7gwIED+wkhP3c4HBWUUjFzK2FmCEDAqgLxePxTR48evXV9fX0llzXmvIGlF9/V1fU+SunduYTA2hCAgKkF1Egkcocsy9fPzMzg4e6m3kqEhwAEIAABCEAgTQJcdXX1s4qKivQr1YU0zYlpIAABGwowxi7o6em5J9elG6KBVVtbe7bb7b7N5XLV5RoE60MAAuYVSKVSs5TS0/v7+48SQo5fnoUPBCAAAQhAAAIQsJtAWVmZNx6PX9zY2HiT3WpHvRCAQHoFJEkaSyQSl0xOTv4svTNvfTZDNLAIIZ7W1tZLHQ7HDVsvASMgAAEI/L1AJBJpnZiY0N9QmIQNBCAAAQhAAAIQsJEA7e7uLopEIr8NBAL6rYP4QAACENiRgCzL1/T393+OECLtaKI0DDZKA0u/jfBCSumthBDcl52GjcUUELC7wNjY2GWlpaX/PjExsWR3C9QPAQhAAAIQgID1BUpKSnwul6u6tLR0wPrVokIIQCAbAowx/RnDl/T09NyRjfVOtoZhGlhNTU0vcDqdnxQE4fSThcY/hwAEILAZgXA4PFpQUPDKYDA4ncvXvW4mK46BAAQgAAEIQAAC2xU4cODA7kQi8X6/338lpZTb7jwYBwEIQOCpAvF4/DehUOjqpaWlPxhBxjANLEII393dfTUhBLcRGuHMQAYIWESAMRaLRqOvWl9fH1pcXMTVWBbZV5QBAQhAAAIQgMBxAWdnZ2edLMvfdTgc+ymlRvr9DlsEAQiYX+DaYDB4MyFEM0IphvoXXHt7+4U8z99EKfUbAQcZIAABawgwxhKRSOQ+h8Nx18jIyCE84N0a+4oqIAABCEAAAnYW2LdvX62iKKcEAoHbOY4rs7MFaocABNIvwBhb0zTt6t7eXkPcPqhXaKgG1p49e5r9fv/NDofjtennx4wQgICdBRhjLJlMDnMc98GBgQG9ibVqZw/UDgEIQAACEICAaQXEzs7O9kQica3H43kppdRl2koQHAIQMKxAKpX64dra2jUzMzNDRglpqAaWjtLe3n4Dz/NXU0p5oyAhBwQgYB0BVVWPhUKhL/t8vgeGhoYOWqcyVAIBCEAAAhCAgNUFysrKavLz87vy8vJupJQ2W71e1AcBCORGgDGmqqp6c19f33W5SfD0qxqugdXQ0PAWl8t1oyiK+4wEhSwQgIB1BPS3aSiK8oimaTcfOnSoB1djWWdvUQkEIAABCEDAogJiR0fHsxKJxPlOp/PVoigWWbROlAUBCBhAQJblMUmSrhsbG7vfAHH+GsFwDSxCSEF7e/vnBEF4t5GgkAUCELCegKIo4/F4/JuCIDwwMjIStF6FqAgCEIAABCAAAbMLlJWV1fr9/n/x+XwfpJSeavZ6kB8CEDC+gKIoX+vr6/soISRipLRGbGDptxFew/P8xyileUbCQhYIQMB6ApqmpTRN+7UkSXeNjo4+QghZtl6VqAgCEIAABCAAARMKOFtbW09VFOU9oii+XBTFUhPWgMgQgIDJBBhjUVVVb+nr67vJaNEN2cBqaGh4tsfj+SzP8y8wGhjyQAAC1hRIpVKjkiT9nFL6rbGxsb8Y5VWx1tRGVRCAAAQgAAEIPJNAbW1tg8PheLXL5Xotz/PPhRYEIACBbAmoqvqbjY2Ny8bGxh7L1pqbXceQDSxCCNfd3X03IeS9my0Ex0EAAhDYqYCmaYp+NVYikfju6urqz1ZXV4/udE6MhwAEIAABCEAAAlsQyNu7d+/z/X7/eZTSMwVByN/CWBwKAQhAIB0CXw0GgxcY8Qt9ozawSH19/Xu9Xu81giBUp2MHMAcEIACBzQrIsjzHcdzv4vH4lw8fPvwnQkhys2NxHAQgAAEIQAACENiGALdv375GQRA+JIri6aIodm5jDgyBAAQgsCMBRVGm4vH4TePj41/b0UQZGmzYBhYhpLSjo+MenudfnaHaMS0EIACBZxRQVfWPiqL8RVGUW0dGRqbBBQEIQAACEIAABNItkJeXVxQIBM4rLi5+CWPsxTzPi+leA/NBAAIQ2IyAqqo/6e3tPd+ozwU2cgOLNDY2fsHtdr+P53n3ZrBxDAQgAIF0CzDGJELIw+Fw+PuxWOz+5eXlWLrXwHwQgAAEIAABCNhSQCwpKXnO7t27L5Fl+TSHw1FuSwUUDQEIGEJAVdWNRCJxz+jo6MWGCPQ0IQzdwCotLX1OZWXl7TzPn2JUQOSCAATsIaAoyhFBEAaPHDly7crKykEj3hNuj51AlRCAAAQgAAHzC5SVlZUWFhbeLopiA24XNP9+ogIIWEFAVdXHjh079uHFxUX9ESqG/Bi6gUUIcXR1dX2PUvoqQ+ohFAQgYDsBVVUPSpI0t7S09I5QKBS1HQAKhgAEIAABCEBgRwI1NTV3FBQUtDHGTuM4TtjRZBgMAQhAIE0CjLEHenp63kAIkdM0ZdqnMXoDi9TW1n4kPz//cp7nK9JePSaEAAQgsA0BTdNUQkgwGo3+aWJi4qJtTIEhEIAABCAAAQjYTKCsrOz8qqqqdymK0ikIgs9m5aNcCEDAwAKqqs6vr69/ZmJi4nYDxySGb2Dt2bOnoLi4+EeU0ucbGRLZIAAB+wmoqhrjeX5obm7unsXFxXvtJ4CKIQABCEAAAhDYhMCzOzs7P0sIaeQ4Ds+52gQYDoEABLIrwBj77crKymtnZmbC2V15a6sZvoGll1NXV/cNn8/3ZkEQXFsrD0dDAAIQyLgA0zQtxBgb7e3tvYIQ8ruMr4gFIAABCEAAAhAwg0BlZ2en/ir6A080rngzhEZGCEDAXgKKokj6y6omJibebfTKTdHA8vv9tbW1td/nOK7D6KDIBwEI2FZAZYxFNE3r6e3tvYAQMm1bCRQOAQhAAAIQsLeAp6mp6U6Xy/USnufLCCF4zpW9zwdUDwFDCzDGDk5OTr4+EokY/vcXUzSwCCG0q6vr95TS0w2987Up3vUAACAASURBVAgHAQhAgBBVVdVoPB7/2eHDhz9MCDH0ZbjYMAhAAAIQgAAE0iYg7N2799r8/Px3OxwOvXElpm1mTAQBCEAgQwKMsUd6enr+hRDCMrRE2qY1SwOL7Nmz5x1FRUWf5TgOD3NP2/ZjIghAIIMCmqIo8VQqde/w8PBVhBApg2thaghAAAIQgAAEcihQW1v7Qa/Xe4UoirsopVwOo2BpCEAAApsW0DRtPhQKXXbkyJFvbXpQDg80TQNLN+ru7u4hhHTm0AtLQwACENiygCRJq7FY7NOU0i9NT0+nCCHalifBAAhAAAIQgAAEjCRAzzjjDH5wcPB1hYWFN/p8viYjhUMWCEAAApsUOBgMBrs2eWzODzNVA6umpubeQCDwNo7j3DmXQwAIQAACWxSQJOmYJEnXq6r6nerq6tjDDz+sbHEKHA4BCEAAAhCAQG4F+ObmZnc0Gn2e1+u9wefzPSu3cbA6BCAAge0JaJqWiEQi/zk1NaU/v9cUH1M1sAgh+d3d3QcJIbWm0EVICEAAAk8jkEgkpjVNu0oQhF9pmhYeGhrSr8rCBwIQgAAEIAAB4wrwVVVVflEUu0VR/HheXt7zjBsVySAAAQhsSmAiGAzqd7itb+poAxxktgYWaW9v/yPP88/GveUGOHsQAQIQ2JFAIpGYePybj8sppX/xeDzzwWBQ3tGEGAwBCEAAAhCAQFoF3vSmN/H9/f36A9kbNU27Mj8//6VpXQCTQQACEMiBAGNM0zTtT729vaZ6UZ7pGliEkBd3dXX9F6W0KAf7jCUhAAEIpF1gY2PjsCiKlyaTyVGe56dwRVbaiTEhBCAAAQhAYKsCXHl5+Z6Kioo6RVGuczgcuOJqq4I4HgIQMKwAY2y1p6fnjYSQhw0b8mmCmbGBRTo6Og7xPN9MCDFlfjOdIMgKAQhkTyAej08KgnBpNBqdmZmZ6SeE4Iqs7PFjJQhAAAIQgMBxgfr6+haPx1O+vr5+TWFh4RlggQAEIGAxAaaq6lBvb+8Bs9VlygbQvn37Ls3Pz/8EIcRlNnDkhQAEIHAygfX19WOiKF6kquryyMjInwgh0snG4J9DAAIQgAAEILAjAa62trarqKgoEIvFPuvxePDm8x1xYjAEIGBgAWl9ff3qsbGxWw2c8WmjmbKBpVfS0dGxyPN8qdnAkTezApqm6d3kFGNMf7ubSinV9P8WBCGfUipmdnXMDoH0CiSTyaiiKJe63e65gwcP/pEQEknvCpgNAhCAAAQgYHsBsamp6XSXy1UqSdJ1Xq8Xd3nY/pQAAASsLaCq6lJvb6/+bD/TfUzbwGpoaPiKz+c7Hw9zN905t63A+kPmUqlUiOO4I4SQRVEU9V/k2T9OJsuyFovFYqqqSpTSFKVU0f87Pz9/N8/z7iePl2W5gBBSSQipEkWxeFuhMAgC2RNYj0ajn8nLyxuKRCLBycnJmewtjZUgAAEIQAAClhTw19XVPcflcu3mOO4KURSr8XuFJfcZRUEAAk8R0H+vjsfjd4+Ojn7AjDCmbWARQgq7u7sXCCG4qsaMZ94mMmuaNsQY6+F5PqG/IiEcDk8nEonHFhcXxwghRwkh+tVV2/1UVVVVHXA4HJ0FBQU1T0xCNU1zKIqyi+f5ak3TKkVR/GvTa7sLYRwE0iXAGAunUqn/EgTh95Ik9Y+MjAyka27MAwEIQAACELCDQEVFxd6SkpJnpVKpZp7n3+10OvdSSs38O5Edtg01QgAC6ROQg8GgfiebKe/sMPW/rNvb238hCMKZ6dtLzJRrAVVVp3ie/wWlVEqlUr/v7+9/kBCynsVc7kAg0FhRUdGqKMo+v9+fp68ty3K+oigtoijqP+wc///wgUCuBBhj64qi/IrjuAdTqVT/0NDQIzts6OaqFKwLAQhAAAIQyIqA/mB2r9d7qqqqpwuCcDbP86a8fSYrWFgEAhCwrICiKL/o6+s7y6wFmrqBVVtbe0pBQcFjZsVH7r8JyLK8IAjCDxKJxKPr6+vfm5ubSxjMJ1BWVtZdUlLS5XA4/KqqVvM8/yJKaYXBciKOjQQYYylVVf+kadqDkUikf3Z29rdm/TbFRtuGUiEAAQhAIHsCzn379p2qN64YY8/hOO6FHMcFsrc8VoIABCBgLIFIJHLKxMRE0FipNp/G1A0svczW1tZBh8OhP2wRH5MKKIry/Y2NjQeTyeR3Z2ZmwmYoo7q6utrv979IFMWKZDLZJAjCKziOKzRDdmS0noCqqpqiKIOEkN/xPN+fSqV+Pjw8rD8vDh8IQAACEICA7QQqKyuLCwsLXywIwimapp3G8/ypHMfhsSO2OxNQMAQg8FQBWZYP9ff3t5pZxfQNrMbGxtf4fL4fmXkT7JydMXZfNBq9ZXx8XH+ulf7mQNN9du/eXVdYWPh8nucDsiyf43A4ugkhgukKQWBLCDDGjjHGfq8oymQ0Gv3xkSNH9G9YUpYoDkVAAAIQgAAETizAVVVV1Xm93jd7PJ4GxpjeuGoAGAQgAAEI/J9APB5/9cjIyANm9jB9A6u7u1uUZTksiqLXzBthx+ypVOqHiUTimvHx8eGne6OgCU3ovn37nufz+eplWX6O0+l8DyGEM2EdiGwBAU3TZE3THuV5fmJtbe3hUCj0o3A4vGaB0lACBCAAAQhA4K8CVVVVbq/X+1Kfz/dqVVUrGGPPFQTBDyIIQAACEPibgCzLMVEUC4PBoGxmF9M3sPQGwb59+z6cn59/m5k3wo7ZU6nUBQMDA/fpz0i3Wv36LYZFRUWnJxKJSp7nb3Q4HHibodU22UT1qKo6wXFcXzKZXJ2fn/9iOBzWbzfcyVs8TVQ9okIAAhCAgBUFvF5veVlZ2SUFBQX6m6P3cxxn6ttirLhHqAkCEDCOwPr6+ofHxsbuNPvvAFZoYJHq6uryoqKiY8Y5PZDkZAKpVOpRWZY/OjIyor89zcofX1NT0xkOh2MPY+xTDocj38rFojZjCzxxVdZjgiAsx+Px342MjNxqkasfjQ2PdBCAAAQgkDaBysrKt1RUVJyjaZpPVdVTRVHE26HTpouJIAABqwqEQqHyqampRbPXZ4kGVn19vfPxZ7xc5ff7rzX7htglfzQavWtubu5TiURi1g41V1ZWegoKCk6llLbqV2Th0nY77Lqxa9Q0bYFSeogQIvX09NxOCHnI2ImRDgIQgAAEbCzQ2tjY+DGfz1emKEqdIAi1NrZA6RCAAAS2JLC2tnYDIeRT4+PjyS0NNODBlmhgEUJodXV1Y1FRkf4sJXxMIBAKhe6Zmpq6mRBipzel0cbGRt8TTazn8Tx/rSiKHhNsFyJaWIAxpr/BcEIQhIV4PD46Ojr6WULIYQuXjNIgAAEIQMAcAmV79uz5YFFR0b9omlZCKW3geV7/0hofCEAAAhDYgkAoFGqamprSX5rGtjDMkIdapYFFamtr/U6n81aPx6M/OBsfgwvE4/E+SZI+Mj09/RuDR81EPFpbW5vP83yTw+E4x+VyXZKJRTAnBLYowDRNSzDGZhljq+Fw+KGZmZm7CCGmv9R4iw44HAIQgAAEcifgqaure6fP5zuH47gyxlglx3H5lFK8FCd3e4KVIQABEwssLCzcmUgkrgyFQlETl/HX6JZpYOkPc29tbe10OBx/scLGWL0GxpjMGHvXwYMH77d6rc9Qn37O+iORSKvH4/mg/sOajS1QuoEE9KuyGGMxjuNWU6nU0tra2rdmZmb+nRASMVBMRIEABCAAAWsIOOrr61/r8Xj+VRTFPZqmFXAcp79FkLdGeagCAhCAQO4E1tbWusfHx3vN/vD2JwWt1MAiJSUl5V6v92tFRUUvz90pgpU3K7C6unr79PS0frvS0c2OsehxfHV1dZ6maa/2+XyXu93uZovWibJMKKA3swghcUppLJFILK6urn5tcXHxW4SQVROWg8gQgAAEIGAMAU9VVdXLAoHARU6ns4Ex5qGU6g9jR9PKGPuDFBCAgAUEQqHQA/F4/H1LS0uWuaPCUg0s/VlYbW1t+ttI/miB883yJTDGUoSQN/b09Dxg+WI3V6BYX1/vdjqdV4mieCHP897NDcNREMiOAGOMUUr1hz8mU6nU+tLS0h2Li4v3EkJWspMAq0AAAhCAgIkF8oqKil5bXFx8qc/n28sYEyml+jOt0LQy8aYiOgQgYFwBWZZP6+/v/7MVnn31pLLVGlj6s7AaBEF4IC8vr8G4pxKSPSmwsrJy85EjR75ACFmGyl8FeJfLtauhoeEuURRfARcIGFVAvzqLUqrq+cLh8L3RaPSmlZWVY1b6S9Ko9sgFAQhAwAwCZWVl3ry8vEv9fv/VT+TVn2Wl/8dyv4OYYT+QEQIQsI/A+vr6kKIor5ucnNQf3m6ZjxX/8uDa29tfIAjCryyzSxYvhDF2Vk9Pz4P4pfefN7qsrOz8srIy/YqsavywZ/E/CBYqLxKJ/OXIkSNXtLe3/1YvKxgM6rchHm904QMBCEAAApYU4Lq7u49fSTUwMNBUXV39mby8PDzSw5JbjaIgAAEzCCiK8qK+vr6HrfY7thUbWKSpqalbEISfOp3OcjOcXHbPmEwmH0kmk+cfPnx42O4WJ6ifb2xs/KHb7X7hE7cVWvLPLfbesgIpSZLuXl5evq2ysnLV6XRqq6uryfHxcf0WYtO/yteyu4bCIAABCDyDQHd3txiLxVxut5tfX193yLL83qKioqs4jvMBDgIQgAAEciuQTCaPKYryqpGRkWBuk6R/dav+Iiw0NTW92uPxfI9SatUa03825HDGVCr19vX19R9MT09LOYxh6KV379792pKSkhsIIfsppaKhwyIcBE4gwBhbliTpnmg0en9RUVFIVVXF6XSuB4PBBBpaOG0gAAEIGFOgvr7eyXFcntfrdWxsbDiTyeTLnE7nJW63u57nef2WQHwgAAEIQMAAAvozaxOJxOuHh4d/SghRDBAprREs29xpamo6neO477jd7l1pFcNkGRNIJBIvGRoa0i9zxK1GJ1am+/fv/4nT6ezieb4yY5uBiSGQJQFN06aSyeTdqqr+zO12J5LJZGphYSESDodj+HdBljYBy0AAAhD4ewGupKTE4/f7A06n0yUIAheLxU4TRfEDLperm+d5fImGMwYCEICAQQUSicRRTdPePDIy8ohBI+4olmUbWIQQd1NT0zu9Xu9XdiSEwVkTCIfDv4vH4+ctLi5O4UqMk7K/tLu7+9OMsXZKKd7ec1IuHGAWAVmWJ2Kx2HdEUXwoPz8/HA6HU7Ish48cOaK/6MFy3yKZZV+QEwIQsLQAl5eXV1BZWVmcn5/vliTJnUwmT3M4HG/nOK5dFEXB0tWjOAhAAAIWEtjY2Hjf8PDwfxJCLHlnk5UbWKS9vf2FHMfdx3HcHgudk5YuZW1t7cq1tbUvLS8v61df4PPMArSpqelnLpfrAM/zVcCCgBUFNjY2FlRVfdDtdn9XFMWwXmM0Gl0dGxub1/+nFWtGTRCAAAQyLOBpaWmp1DSt2Ov18slk0r22tvZSn8/3ev2WwAyvjekhAAEIQCBDApqmzWiadl5fX9+vM7REzqe1dAOLEJLX2Nj4rz6f77M5l0aATQuoqnoez/PfCgaD8qYH2fdAbvfu3eeWlJRcQCk9zb4MqNxOAslk8g/6M/NKSkoG9LpjsZj+QPhjIyMjc4SQDTtZoFYIQAACJxEQKysry0VRrCosLPTyPE8jkchej8fzelVVX+hyuVwQhAAEIAABawjE4/HLRkZGvqz/eGyNiv65Cqs3sEhLS8vLBEG4UxCEWqtuohXrkiTpjYODgz/ArYSb2l1aU1Ozp6Cg4Cuapj2H5/n8TY3CQRCwgID+oMpUKhWllP46lUo96PP5jqmqqv9/MUmSZicnJ48SQuIWKBUlQAACEDiZgLOwsLA0Ly9vd15eXqHT6RSSyWReKpX6F0LIy7xe726O4/DA9ZMp4p9DAAIQMKGAqqoTiqJ88NChQw+aMP6mI1u+gUUIKWhqarrY6/Veu2kVHJhzAVmWI+vr6++ampp6IOdhTBJg165dRW63+0qPx3OGKIrdJomNmBBIu4CmaZqiKAuMsd+rqvqo2+1e0hdRFGV9YWHhyNLSkv6cvXU0yNNOjwkhAIHsCbh37dq12+fz1TqdzgL9QeupVCpPluU2QshzXS5XgyAIuLoqe/uBlSAAAQjkVCAej98wMjJyGyEkktMgGV7cDg0s0tTUdLbD4bhNFMW6DHti+jQKxOPxuZWVlXesrKz8Jo3TWn0qV2Vl5fPKy8svpZSeafViUR8EtiKgKMpyIpF4jOf5J5tamiRJsqZp88eOHRtfW1ubJYTg1uWtoOJYCEAg0wKcx+Mpq66urlcUZZfP58vTF0ylUvmKonSLoqhfeb2b53m80CXTO4H5IQABCBhUQFGU8WQyecnIyMhPDRoxbbFs0cAihJQ2NjZe6fP5Lk6bHCbKikA0Gv1zOBy+fGVl5eGsLGiNRWh7e3vz4z/MfoIx9nKO4/ANrDX2FVVkQEBRlCRj7HAqlfqLy+Ua5jhOf54WWVlZ2fB6vVPDw8PDhBD9NkSWgeUxJQQgAIGnCpS0tbU1RSKRmuLi4kL9HzDGeEmSahwOR7eiKA0ul+v4/48PBCAAAQhA4EmBeDx+68jIyKcJIfpbuy39sUsDS38W1htFUbyF5/lqS++o9YpjsVjskVAo9Mnl5eWfWa+8zFW0f//+fZTSiwRBOFsURZz3maPGzBYUiMfjMafTOZpKpQ56vd7pJ0vUG17RaHQqFouNLy0tTT5xK6IFBVASBCCQIQH9S6WqvXv36s2oerfb7RME4fjP44lEokIUxfZkMtnk8XiKM7Q+poUABCAAAQsJPP4CtGlZli8bHBz8noXKOmEptmlg7d69u7KgoOB6URTfZ4eNtVKNjDEtFov1rK6u3rS6uvpjK9WW6VqKi4srfD7fa/Lz888TRfHUTK+H+SFgdQFN05KyLOsNrcOU0ilRFKNPaW6txGKxsWg0Or6ysqLfjpiwugfqgwAEnlZA1K/+LykpqS0qKmpyOBy7BEEQ9CNVVXVJklQlCEIjx3F1oij6KKW2+Xkc5wsEIAABCKRXQJble8Lh8PWzs7Pz6Z3ZmLPZ6i/M5ubmNzkcjpt4nm8w5nYg1YkEGGNKPB4/xPP8V4aGhvRXg+KzeQFvQ0PDaT6fT38u1lmbH4YjIQCBrQioqhrWNG2aMTYjCMIxnuelJ8eHQqGo0+mcmJ6eHkkkEuOEkNBW5saxEICA4QScDoejbv/+/U3xeHxfIBAofzKhpmmiLMuFmqbt1t+CzXFcGcdxeEaV4bYQgSAAAQiYW0BV1bFUKnXN0NDQd81dyebT26qBVVZWVlpRUaE3sHAV1ubPEcMcqV+Jparq0WQyedvIyMithglmjiBcV1dXJyHkE5TSl5sjMlJCwDoCqVRqg+f5Y6lUak4UxWOCIMSefK6WqqosFAqFPR7PlCAIU4cOHdKfu6V/i6ZaRwCVQMB0AkWEkNra2toGxlhtIBCofGoTStM0hyzL5aIoVqmqWimKYoHpKkRgCEAAAhAwtYCqqvccO3bsmsXFxeNv3LbDx1YNLH1D9+/f/xaHw3GDIAi4CsuEZzhjjKmqukgp/XJvb+8XcRXDljaRdnR0tGuadiPP8/rD3Y/fzoAPBCCQWwH932t6g0sQhFWO41YURVkQRXGNEKLF4/HI0tLSj0Oh0EO5TYnVIWBtgfLy8paioqI3u1yu42+sVlXVK8tyiSAIpZqmFYui6KeUctZWQHUQgAAEIGAWAUVR9Kuvrh0eHv4vs2ROR07bNbAqKyuLS0tL/43n+XPTAYg5ciYQkiTpJ6FQ6OvHjh37bc5SmHDhlpaW5sd/CL9RFMWzOY5zmrAERIaALQRkWV5eW1v7z0gk8sW1tbUpWxSNIiGQI4Hy8nK9WfXaQCBwsdPpbM5RDCwLAQhAAAIQ2JSAqqrfWF5e/ujRo0dXNzXAIgfZroGl71tDQ8Nb3G739foDNC2yj7YsgzG2IcvyyOOX7t89NDT0FVsibLNo/Q2FmqZd63K5XicIgneb02AYBCCQIQFZlhfW1tbuXV9f/0ooFJrL0DKYFgIQ+HsBf0VFxYtLS0uvEQRBv+0eHwhAAAIQgIDhBBRF0Z+pev3Y2Jitrr7SN8KWDaza2lq/3++/k+O4txnubESgLQnoz8UihCwkk8mvDw4O3kEIObalCWx8cG1t7R5Zli8vKCh4myiKARtToHQIGEpAVdX5aDT6xXg8/jU7PdPAUJuAMHYWcNfU1DwrEAh8juO4U+wMgdohAAEIQMCYApqmfWttbe2Dk5OT+iMnbPWxZQNL3+G6urpzfD6ffhVWk6123KLFMsYiyWTyYCKRuHVycvKnFi0z7WWVlpaW8Tx/Q2lp6VsFQchP+wKYEAIQ2JKA/oy/SCRym6ZpX5mZmQlvaTAOhgAE0iUg1tfXH8jPz7+HUtqdrkkxDwQgAAEIQGCnAvrVV/F4/Lrx8fHv7HQuM463bQOrsrLSU1FRcR8h5E1m3Dhk/mcBxpjCGFtVVfWG/v7+rxFCknA6uUBeXl6R1+u9pays7M24nfDkXjgCApkSUFU1vLq6ekc8Hr8lFApFM7UO5oUABDYlwO3du7exqKjofkpp26ZG4CAIQAACEIBA5gW+e+zYsfPm5+c3Mr+U8VawbQNL34qampo35ufn34RnYRnvxNxhomgsFpuMxWIfP3r06M8JIcoO57P88IKCAr8oindUVFS8QRAEl+ULRoEQMJiAqqqxxcXFrymKcvXy8nLMYPEQBwJ2FeAqKysbysrKfsxxHN5ebdezAHVDAAIQMIhAMpkcmpycvHJjY+MnBomU9Ri2bmB1d3eLjLHvU0pflXV5LJhRgSeejZWIxWIzqVTqPdPT049mdEELTK5fleh2u//D7/efTSl1WKAklAABUwgwxpLr6+vfl2X5vdPT05IpQiMkBOwjQAsLC5urq6v/h1K62z5lo1IIQAACEDCaAGPsJz09PW+w8wUatm5g6SdkTU3NmYFA4DaO4/Yb7QRFnrQIMEKIGo/HH1NV9R2HDx+eTMus1p2EP3DgwO8cDseplFLOumWiMggYQ0BvtieTyeDg4OBz9H9XGSMVUkAAAv8gQAVBeE5bW9uPKaXF0IEABCAAAQhkW0DTtKFIJHLx1NTUQ9le20jr2b6BpW9Gd3e3fpvZmXZ9K6ORTshMZ5mcnLyCUnoXni/zzNL79+8f9Xg8uF0i0yck5re9QDwenxkZGdlrewgAQMAEArW1ta8PBALfoJT6TBAXESEAAQhAwDoC+kUZDwaDwbOsU9L2KkED6//cWtvb278pCELr9hgxykwCiUQiurGxcSohZBq365x457q7u5cJIfim2UwnN7KaTWA1GAziz5jZdg15bS1QXl7+scrKypsopaKtIVA8BCAAAQhkTUBRlIG+vr63EEKGsraoQRdCA+uJjenq6nqAUqp3NAWD7hVipVkgHA5/1ul03jY8PHwszVNbZTqhu7t7hhBSYZWCUAcEjCKgvzG1p6dnHyEkbJRMyAEBCGxOoLq6+ueFhYVnUkrxc/TmyHAUBCAAAQhsX0BhjP28p6cHz+3GLXN/dxZVd3R0/IzneTwLa/t/uEw3cmNjI+rxeLqCweAsISRlugIyHPjx58MFHr9loh8Prs0wNKa3lYCqquuHDh16paIov7NV4SgWAhYSaGpq6vN6vW0WKgmlQAACEICAAQVUVR3q7e19GSFkzoDxsh4J3xw9hbyhoeHbXq/3dRzHObO+E1gwZwKMsY2lpaV3JpPJR5aXlxdyFsSYC9OCgoLW6urqhziOKzVmRKSCgHkEGGPK/Pz85xcWFq7EQ9vNs29ICoF/FDjjjDOEaDQ6QCltgg4EIAABCEAgEwKapiXj8fgPxsbG3paJ+c04JxpYf79rBR0dHX/keV5/eDVszHhGbzMzY0wKhULf9ng8nxsaGhrc5jSWHNbc3OzY2Nj4QEFBwWfQ3LXkFqOoLApIkvRLnudf09/fH8/islgKAhDIgEB5eXl1RUXFrziOq8nA9JgSAhCAAATsLcBUVR3r7e3Vn928Zm+Kv1WPJs0/nAnNzc23u93u8wkhbpwk9hLQX2cvy3Kfy+V6/2OPPRYkhGj2Ejhxta2trQWEkK86HI7XwQQCENiegKZpf+Y47pXBYHBlezNgFAQgYCQB/SqsxcXFN7jd7vsopS4jZUMWCEAAAhAwvUBCkqS7BwcHLzZ9JWksAA2sf8YU29raBkRRxFVYaTzRTDbVqKIoH+jr6/sDnov1t53r7OyspJR+m1L6fJPtJ+JCIOcCsizPx2KxsyYnJ/UrPNEcz/mOIAAE0iPQ0dER0DTtTlEU35qeGTELBCAAAQhAgDBZlkf7+/tbCSEKPP4mgAbW05wN1dXVVxQVFV1HCMG3aTb908IYG4nFYleNjY39khAStSnDP5ZNH39OXKPb7f6GIAjPhgkEILA5AVVV1UgkcmM0Gr0tFArh3yebY8NREDCNQHd3d4Wmaf/OcdxLTBMaQSEAAQhAwMgC0urq6vXT09OfMXLIXGRDA+vp1Wl7e3ufIAgH8CysXJyWxlhTVdXD8Xj8c6lU6idHjhw5ZoxUOU/h2LVr10sLCwvvdDgce3KeBgEgYAIBSZJ+mEwmLxofH8fbY0ywX4gIgW0IcPX19e1ut/s7DoejfhvjMQQCEIAABCDwpID+7KuB3t7eDkIIA8vfC6CBdYIzoqGh4Z15eXlfJ4TwOGnsK6Bp2kwikfhqJBL594WFhWn7Svyt8l27dhW53e6LfD7fVTzPCzCBAAROLKAoyiFFUd4xODjYjx9CcKZAwLoCBQUF/sLCwgvy8vJu4nneYd1KURkEIAABCGRYQI3FYueOjo5+M8PrmHJ6NLCeYdtaWlr+1+VyvdiUO4vQaRNQVXU+Ho9/MxKJ3L28vDyetolNPFF9fX2dx+O5WRTFc0xcBqJDoxzqiQAAIABJREFUIKMCqqrKiUTiMlVVvz4+Po5bBzOqjckhkHuBAwcO7KaU3uhwOM7LfRokgAAEIAABMwokk8mHDh06dKYZs2cjMxpYz6BcWVl5ekVFhf4gb3xsLvD4Q90X4/H4t9bW1u5aXl4+bHMOvXxaX19/qtPp/ILL5cLzsHBCQOBpBJLJ5DdlWf746OjoFIAgAAF7CDQ1NXWLoqi/tbfdHhWjSghAAAIQSKfAwsLC6UePHv1jOue00lxoYJ1kNxsbG7/s8/neb6VNRy3bE1AUZemJJtYduBLruGHevn373uPz+W7mOM67PVWMgoA1BSRJGpMk6V8nJiZ+g7cOWnOPURUEnk6gtrbW7/F4LnA6nZ+FEAQgAAEIQGArArFY7M7R0dEPbWWM3Y5FA+skO+5yufbu27dvzOFw4HkGdvvT8TT16k2sjY2Nf19fX78Dz8QiZP/+/XudTufVPM+/D6cHBCDwN4FEIqG/dfALc3NzIbhAAAL2EmhpaakXRfF6nuffbq/KUS0EIAABCGxXIJVKJcfHx/clEonZ7c5hh3FoYJ18l/U3y3zE7/ffevJDcYQdBBRFWUgmk1+Jx+N3z87Oztuh5meqsampqdXlcn2C5/nX2N0C9UNAF1AU5b8kSbpudHR0FCIQgIAtBbjGxsaznU7nF0VRxBt7bXkKoGgIQAACWxNYW1u7ZHx8/HZcuf/MbmhgbeK8qqurK/V6vSOiKBZs4nAcYgMBTdOOhsPhW6anp/+DEGL3KyzElpaWC0RR/BTP83k22H6UCIETCqiqGlcU5SOHDh26jxCiggoCELCnQENDQ7HH4/l/PM9faU8BVA0BCEAAApsVkGU5FI/H909MTCxtdoxdj0MDaxM7f8YZZwgrKytvcDqd92/icBxiEwFVVWei0egVk5OTPyKEJGxS9tOW2djYWOn1eq+jlF5gZwfUDgFVVe9IJBKfHB0dtf3VmTgbIGB3gV27drUHAoGbXC7X2Xa3QP0QgAAEIHBigWQyeU5xcfEPHn74YQVOzyyABtYmz5Campoyt9v9kNvtbt3kEBxmAwFN06YkSXr/8PDwr/U7h2xQ8glLrKioeH5BQcFNbrf7eXZ2QO32FUgkEhPxePzyI0eO/IAQwuwrgcohAIEnBByNjY0Xu1yuTwqCwEMFAhCAAAQg8I8CkiT1SZJ0Jq6+2ty5gQbW5pyIfhVWKBR6gSiK/7vJITjMJgKMsWlCyBt7enp6bP5Lq6upqenjTqfzUkEQ8NIDm5z/KPNvAqqq/tvMzMwnQqFQFC4QgAAEdIGysrLakpKSG5xO5zsgAgEIQAACEPhHAVmWX1xYWPhbXH21uXMDDazNOR0/Sn+eAcdxt3i93vO2MAyH2kNgjjF2Zk9Pz7A9yn36KvUrFf1+/7/xPI8f1O18Itiw9ng8/tvFxcWrw+Hw721YPkqGAAROLMDt37//MofDcYMgCE5AQQACEIAABJ4UWFhY+PL6+vrV0WjU7s9U3vRJgQbWpqmOH8h1dHScxvP8H7Y2DEfbQSCZTI5qmnbm0NDQjB3qPUGNdPfu3W8OBALXOxyOJhs7oHSbCaiqektvb+/VhBDZZqWjXAhA4CQC1dXVAf1ZWDzPfwhYEIAABCAAgScFUqnU6QMDA3/Cmwc3f06ggbV5q+NHVlZWetxu99sDgcDdWxyKwy0uwBhji4uL34vH4xdEIpGIxct9pvLErq6ur1BK321jA5RuI4F4PP7wkSNHrkwkEo/aqGyUCgEIbEGgpqbmw16v91qn01m8hWE4FAIQgAAELCqwtrb23o2Njfvn5+c3LFpiRspCA2sbrM3Nzc/mef5/HA5H4TaGY4iFBfQmVjwev4Tn+buGhoZSFi71GUtzuVw1DQ0Nd4mi+DK7GqBuWwl8IRgMXmLzZ+DZasNRLAS2IcB3d3d/nhDy4W2MxRAIQAACELCQgCzLK6qqvmJwcPAxC5WVlVLQwNoeM+3s7DyLUvrflFIYbs/Q0qOOHj16YGFhYcjOv9Du37//TqfT+R6e5/HMD0uf7fYubmNj4zfDw8OXEULwA4i9TwVUD4GTClRXV1+cl5d3pcPhKD3pwTgAAhCAAAQsKaBf8EAIeUVPT88v7Py74nY3F82XbcoVFRU1+f3+WwsKCl6+zSkwzOIC8Xi8eGRkZNXiZT5TeZ7Ozs5vcxz3KkII/l1j4xPBwqWrjLGv9PT04Lk2Ft5klAaBNAqInZ2dX+Y4Tr/FHn8vphEWU0EAAhAwi0A4HP5pNBq9dGVlZdQsmY2UE3957mA3Ojo6XsFx3H9RSn07mAZDLSogSdLK/Px8fTgcXrNoiSctq76+/v/l5eVdxnFc+UkPxgEQMJmAoiiPra6ufmxubu5hk0VHXAhAIEcCLS0t14qieDHP8wU5ioBlIQABCEAgRwKMsZimaef09vb+LEcRTL8sGlg728LS6urqSwoLCy/HrYQ7g7Tq6KWlpftmZ2cvsPObyfSrsCilr6eUOqy6z6jLfgKMMUVV1W/09fWdb7/qUTEEILADAV9HR8fXOI57I3523IEihkIAAhAwmYB+62A4HP7k1NTUbYSQFZPFN0xcNLB2uBWNjY1nORyOuxwOR/UOp8JwawqoKysrrzly5Mh/W7O8TVXV1tra+h8Oh6NtU0fjIAiYQCCVSo0tLCx8fHl5+TsmiIuIEICAgQQaGxs/4Xa7L+R5PmCgWIgCAQhAAAIZFEilUlOyLH9gZGREf/YVPtsUQANrm3BPGeZoaWk53+Fw3MpxHB5WvXNPy82gXyoqSdLzh4aGDlquuE0W1NTU9AW32/0ejuNwu+0mzXCYcQUYY6qqqt/v6+s7x7gpkQwCEDCwQFFHR8e3eJ4/08AZEQ0CEIAABNIkoGlaUpblSw4dOvRVQoht31SfDk40sNKguGfPnufm5eV92uVy/UsapsMUFhPQLxdNJpPTKysrL1lcXJy0WHmbLYdra2t7QBTFlxJCxM0OwnEQMKKAoijz4XD4MzMzM7cbMR8yQQACxhfo6Oi4k+O4cymlHuOnRUIIQAACENiJgCRJv4vFYlccOXLkkZ3Mg7F4A0razoGOjo63cRx3C6W0Mm2TYiLLCDDGpEgk8s3JyckPE0ISlilsC4WUl5e/vLS09F5RFPFnZAtuONR4AoyxX/X09LySECIZLx0SQQACZhDYtWvXaaWlpfobCdvNkBcZIQABCEBgewKMsXlN0y7r7e391vZmwKinCuAKrDSdDw0NDbucTue1giCcz3Ecl6ZpMY2FBBhjy5IkXTI0NPRNC5W1pVIaGhpu9fl8/0opdW9pIA6GgEEEGGPrkiTdNzQ0dJFBIiEGBCBgUoHW1tYfiKL4KkqpYNISEBsCEIAABJ5BQNM0TVGUe5LJ5CfGxsaOAmvnAmhg7dzwrzM0NDS8wu123ywIQkcap8VUFhJgjB2RZfn8gYGB/7VQWVspxdPS0vLfLpfreYQQfisDcSwEjCCgKMpAX1/f2wghh4yQBxkgAAHzClRVVb2vuLj4Op7nd5m3CiSHAAQgAIETCSiKcjCRSFw9Njb2P1BKjwAaWOlxfHIW8cCBA5cJgnAFz/N56Z0as1lEQE2lUn8YGBg4lxAybZGatlRGeXn5K0pKSr79+IsP8rc0EAdDIMcCjDEllUr9/NChQ6/KcRQsDwEIWEPA19XV9b+U0lOtUQ6qgAAEIACBJwUURVmTJOlTo6OjtxJCZMikRwANrPQ4/nWW+vr6Lp/P92me5/WHVeMDgX8S0DRtdX19/Uvj4+M3EkI0OxI1NDRc5/P5rqWU4nZbO54AJq1Z07T5lZWVS2dnZ79t0hIQGwIQMJhAS0vLF51O53mUUryl12B7gzgQgAAEdiKgf+m5uLh4xdLSUt9O5sHYvxdAAysDZ0RjY+Pb3W63fkn4vgxMjyktIMAYm2aMXXvw4MH/sEA52ynB2dLS8mOXy/Wy7QzGGAjkQoAx1t/T0/NsQkgyF+tjTQhAwHoCVVVVraWlpd+nlOJnRuttLyqCAARsKqCq6pgkSdePjIzgS880nwNoYKUZ9InpCvfv3/95l8ulv5kQD+bMjLHpZ5Vl+S8LCwsXLS0t/dH0xWyjgKqqqmcXFhb+UhRFfOu8DT8Mya4AYyypKMoP+/v735rdlbEaBCBgdYHW1tZHRVF8NqUUP5dbfbNRHwQgYHkB/bntkiR9c3h4+BJCSNjyBWe5QPxFmSHwffv2Pd/r9d7C87z+bT0+EPgnAVVVY8lk8qvDw8NXEkISdiRqaWk51+Vy3WfH2lGzuQQYY0fX1tbePDEx8Yi5kiMtBCBgdIHKyspLy8rKruY4LmD0rMgHAQhAAALPLKCq6p82NjYuGxsb+x2s0i+ABlb6TZ+cka+trb3G5/N9WBTFoswtg5lNLjCradqnDh48eJfJ69hufK6hoeHmvLy8K7Y7AcZBIEsC48FgsIkQomZpPSwDAQjYR6Csu7tbvxq7xj4lo1IIQAAC1hNQFGUlFovdPjEx8Un8zJiZ/UUDKzOux2ctLy+vLi8v/zrP82dkcBlMbXIBSZL+tLi4eOXKysqvTV7KtuIXFhbuLigo+FEgEOja1gQYBIEMCzDGEtFo9Gvj4+MXZngpTA8BCNhU4MCBA70Oh6MNtxHa9ARA2RCAgCUEVFV9eHFx8bxjx44dsURBBiwCDawMb0ptbe1L/H7/FziOa87wUpjepAKapiWSyeQdQ0ND1xNC4iYtYyex+T179pzh9/sfcDgc7p1MhLEQyJDA4vz8/Kn4YSRDupgWAhAgpaWlH6yqqvoUpTQfHBCAAAQgYD4BTdMGo9HoRRMTE78yX3rzJEYDK/N75Wxra/uGIAivpZQ6M78cVjCpwKKmaTfY9VbC5uZmhyAIrxZF8bsm3T/EtrbA0WAwWGXtElEdBCCQY4FAd3f3ECGkIsc5sDwEIAABCGxR4Ckv+zmXEJLa4nAcvgUBNLC2gLXdQ5ubm/e43e4fEUI6tzsHxllfYGNj45Hl5eWrV1ZWHrZ+tf9cYVlZmTcQCLzP5/N93o71o2bDCsj6m2QGBwffbdiECAYBCFhCoLm5edTlcu3DbYSW2E4UAQEI2EvgYCKReO3Q0NCMvcrOfrVoYGXJvKio6HW7d+++ned5fIufJXOzLaNpWkpRlJsGBgY+SwhJmi1/GvLSx58Zt9fv99/i8/nemIb5MAUE0iEQnZub61xcXJxMx2SYAwIQgMCJBHw+3/sbGho+TynF7fQ4TSAAAQiYREDTtNnZ2dkLV1ZWfmKSyKaOiQZW9rbP0dzc/JDL5XoupZTP3rJYyUwCqVQqnEqlPjo6Ovp1M+VOY1a+rq7uNFEUv+n1evemcV5MBYHtCkSCwaD+JlltuxNgHAQgAIFNCri7u7uPEUL8mzweh0EAAhCAQA4FGGNqMpn83eDg4Mtw62B2NgINrOw4H1+luro6UFRUFCSE1GZxWSxlMoFEIvGTaDT68bm5uX6TRU9XXH7//v1n8Tz/PafT6UrXpJgHAtsQYJFI5OGJiYkXbWMshkAAAhDYskB3d3eYEBLY8kAMgAAEIACBXAhMrq6udk9PT0dysbgd10QDK8u7XlVVdVFpaelNlNK8LC+N5cwjwAghFzz+0Oh7zRM57UlpZ2fn6zmO+17aZ8aEENi8gBIMBk8jhOhfPOADAQhAIOMC9fX1P/T7/a8hhOBn9IxrYwEIQAAC2xdgjEWXl5evmJ2dvWv7s2DkVgXwl+NWxdJwfGNj45jX663HQzrTgGnRKWRZjjx+P/V7Dx069AOLlriZshytra3niqL4ZUopt5kBOAYCaRaQg8GgI81zYjoIQAACzyRwoLu7+yAhRAATBCAAAQgYU4AxxuLx+Njo6GiTMRNaNxUaWLnZ28Kurq5RSmlxbpbHqmYQiMViN83Pz39hfX19xQx5M5TR39TU9CGv13s9IUTM0BqYFgJPK8AY2+jp6fGCBwIQgEA2Bbq6ulKUUvydl010rAUBCEBgCwKMsZWenp4GQoh+2zc+WRRAAyuL2E9dqri4+LN79uz5KK4sydEGmGRZVVXf3tvb+x1CiGKSyGmPWVtbu8/tdl/ldDrfRinF1TBpF8aEJxKIxWJ3jY6OfhBCEIAABLIp0NjYOO/z+SqyuSbWggAEIACBzQkwxvTXDn5qeXn5ms2NwFHpFEADK52aW5yrq6trjFK6b4vDcLiNBOLx+EMbGxsXz8zMDNmo7H8qtaKi4pRAIHCd2+1+Gb6VtvOZkN3ag8Gg/ibMmeyuitUgAAG7C1RWVl5UUVHxBbs7oH4IQAACBhUYCwaDjQbNZvlYaGDldotL2tvbDwuCgNcl53YfDL16KpV6Tzgcvn9ubi5h6KAZDldfX3+m2+2+weFwPIsQwmd4OUwPARIMBvF3JM4DCEAgFwKBJ95GmIu1sSYEIAABCJxAQFGUtb6+vnpCiJ0f8ZLT8wM/nOeUn5Di4uLP7N2792M5joHlDSyQSCRmJUl6w+Tk5F8IIfobCm37OXDgwJsFQfg4z/P70cSy7WmQlcI1TVs5ePBgSVYWwyIQgAAE/kGgu7vb1n/f44SAAAQgYESBmZkZ/dbBq4yYzS6Z0MDK8U6fccYZwtra2m85jntOjqNgeQMLSJJ0eTKZ/PL4+HjUwDGzEq21tfVtPM9fxfO8/tYPXImVFXX7LRKNRv/t8OHDl9mvclQMAQgYQaCjo2OF5/kiI2RBBghAAAIQIETTtD/6/f7nP/zww7Z9NrERzgM0sAywC36/v66qqupRl8uFtxIaYD+MGEGW5Y2NjY0Xj4+P/5kQohkxYzYzHThw4J2CIFzB87x+/zmaWNnEt8laAwMD+1Op1IhNykWZEICAwQRqamruKCwsxEskDLYviAMBCNhTQJKklbm5udPW1tYm7ClgnKrRwDLAXtTX1zvj8fjHKysrrzZAHEQwqIAkSbdxHHfjwMAAXtdKCHmiiXU5rsQy6Alr/liOYDAom78MVAABCJhRQBTF9ra2tl4zZkdmCEAAAlYTmJ+fv9nr9X5ifHw8abXazFYPGlgG2bGWlpZCURT/g+f5VxgkEmIYUGBxcfGMubm53xNCVAPGy3qk1tbWtzPGLnM4HC2UUiHrAbCgJQVSqdSaw+EoQQPLktuLoiBgCoHu7m6REJIyRViEhAAEIGBhAVVV/0eW5XcMDg6GLFymaUpDA8s4W8Xt3bu3IxAI/FQQhArjxEISIwnEYrHvJJPJ909PT0eMlCuXWWpqat7kcDgu8Xg83RzHOXKZBWtbQ2B+fv57x44dewsaxdbYT1QBATMK6A0sSZLCLpfLa8b8yAwBCEDACgKyLC9EIpGzZ2ZmDuIxLsbYUTSwjLEPx1PU19fnO53Oj7hcrhsNFAtRDCZw5MiRF66srPwOv1z/bWMKCwvPKi0tvdDj8byYUuoy2JYhjskEhoeHX7mxsfE/dn/rp8m2DXEhYCkB/SU/R48e/WV+fv7zLVUYioEABCBgIoFEInF9KpX6PF6kZZxNQwPLOHtxPElnZ2clY+zfeJ5/q8GiIY5BBPRfrEVRfFN/f3/cIJEMEaOsrOxUn8/3Ab/ffw6aWIbYEtOGCIVC5VNTU4umLQDBIQABKwhw9fX1+t9pX7JCMagBAhCAgNkEVFX9NqX00oMHD86bLbuV86KBZbzd5RsbG09zu93f4Hm+znjxkMgIAtFo9KWHDx/+Ja4Q+afdaGhqanq7x+O5nFLqNMJeIYP5BFRVLejt7cVtuubbOiSGgKUESkpK9u3Zs2fMUkWhGAhAAAImEFBVdSKRSJw7Ojr6KO56MdaGoYFlrP04nqa6ujqQl5d3gcPh+IwB4yGSAQRUVX0kEAi84OGHH1YMEMdoEQra2treKori7YQQ3mjhkMfYAvF4PJxKpWomJyfXjJ0U6SAAAasLdHR0BHiex5uHrb7RqA8CEDCcQCqVunx9ff1uPHfYcFtD0MAy3p4cT9TW1lbFcdxVPM9/wKARESvHAgMDA62pVOpQjmMYdXnHKaec8gbG2LeMGhC5jCmwsbHxU1EU34JbdI25P0gFATsJoIFlp91GrRCAgFEEVFW9S9O0T/b3988ZJRNy/E0ADSzjng1cXV3daS6X6zaXy/Us48ZEslwJrK2t/Xp8fPxFuVrfDOt2dXW9PhwO31BYWHjADHmRMfcCa2tr7/L7/fcHg0E592mQAAIQsLNAY2NjHs/zf3G73Q12dkDtEIAABLIlIEnSnyVJumRiYkK/dVDL1rpYZ/MCaGBt3irrR5aVlXkDgcB7nU7nLaIoOrIeAAsaWkBVVa23t7ecELJs6KC5DUcLCwv1h7u/u6Sk5ILcRsHqZhAIh8ONk5OTh/F8OTPsFjJCwPICrrKysuurqqout3ylKBACEIBAjgVkWU4mk8mPRSKRry4uLuJlWTnejxMtjwaWQTfmyVj19fUlXq/3o4Ig4IcXg+9VLuLF4/FfjIyMnJWLtU20JnW73bvq6urOdDqdXzVRbkTNgYCiKFV9fX1Hc7A0loQABCDwjwJcaWnpabt37/4DaCAAAQhAILMCiqJ8OpFIfG5sbGwlsyth9p0IoIG1E70sjd23b9+pbrf7U6IovjBLS2IZkwgwxhI9PT15eDvGyTesqqrKXVBQ8LJUKvVFn89XdfIROMKOAmhg2XHXUTMEjCvQ3Ny8x+12HzFuQiSDAAQgYH6B9fX1h0Kh0FUrKyt/MX811q4ADSwT7G9zc7ODUvpBQRBuEgTBa4LIiJglAcaYFo1G7xwfH/9wlpY09TL6n6VwONzqcDg+UFxc/F5TF4PwaRdYW1tbVBSlY3p6eiHtk2NCCEAAAtsQaG9v3yUIAh4kvA07DIEABCCwGQFFUeKSJF09Ojp6FyEktZkxOCZ3Amhg5c5+Syu3tbV5RVG8hhByxZYG4mDLC2iatnjw4EH9WVj4bE6AKygoyKusrHwNz/N3iaLo2dwwHGV1AUmSfsxx3LsHBgbw2nqrbzbqg4BJBNDAMslGISYEIGBmgU/LsnwT3kBtji1EA8sc+3Q8ZX5+fn1VVdXNbrf7zSaKjaiZF0gsLS19aHZ29uuZX8o6K3R3d4srKyuneDyeazwezyusUxkq2a7A7Ozsvy4tLX3j8S8KpO3OgXEQgAAE0inQ2NhYKQjCmMvlwhX46YTFXBCAAAT0H/gk6f65ublr1tbWJgBiDgE0sMyxT0+mpHV1dRe43e7rnE5nhbmiI22GBWaDweCeDK9hxelpfX29g+f5Dzidzk+Koui2YpGoaXMCGxsbrcPDw4N4A+HmvHAUBCCQeYGmpqYiQsh3vF7vizK/GlaAAAQgYB+BVCo1v7GxccPExMQ9+NnPPPuOBpZ59uqvSbu7uz9HCLmYEMKZMD4iZ0CAMbY8MDDwUlmW+zIwvV2mbGtoaLgxLy/vbEIIb5eibV4n01+AkEwmQ+Fw+K1Hjx79LSFEsbkJyocABIwl4PX7/R+pr6+/2VixkAYCEICAqQU0QshtwWDwo6auwobh0cAy56Z729vbbxcE4Vz8om3ODUx3aqa/jjCR6B0eHu7GNwg7062pqbnQ5/Nd4nA4dhNCxJ3NhtEGFZD1q8bj8fiIJEkXTU9P/5kQov8ggw8EIAABowkIlZWVL6qoqPiF0YIhDwQgAAGTCqiKotzX19d3ESFkw6Q12DY2Glgm3fpdu3a9uLCw8NMOh0NvWGAfTbqP6YzNGJuemZl57srKynw657XpXIH29vbP8Tz/KkppAI0s858FjOkXW5E4pXQ9Ho8/GIlEPrOwsDBk/spQAQQgYHWBjo6OfTzPj1m9TtQHAQhAIAsCLJVK/SUUCl159OjRX2ZhPSyRZgE0PtIMms3p9u/f/wmn03khz/P6L9j42FxA07TU+vr6A+Pj42+0OUU6y+9sa2u7kef5UzmOK8QVj+mkzc5cjDH9dcirsixHYrHYt6empvRXJK9kZ3WsAgEIQGDnAmhg7dwQM0AAAhDQBVRVjSSTyS8NDw9/HCLmFEADy5z79tfUHR0dd3Acdx6l1GPyUhA/PQKDCwsLLzh69OhqeqbDLLpAWVnZORUVFe8nhBzgOK6IUornzxn41GCMaZqmRSilx1Kp1PDq6uqdj/+5+LWBIyMaBCAAgRMKoIGFkwMCEIDAzgUYYxuapt3X29v7oZ3PhhlyJYAGVq7k07fu7paWlq86nc4XUkqF9E2LmcwooGlaOBqNfn5iYuITZsxv9MwlJSUfrqqqei0hpI3juGKj57VZPqaqapwQMqFp2nI4HP717Ozs3bjaymZnAcqFgAUF0MCy4KaiJAhAIKsCjDElmUz+enBw8L2EkNmsLo7F0iqABlZaOXMzWWFh4flVVVXXi6K4KzcJsKqRBDRN+/PBgwdfSgiJGimXlbI0NDRclZeX9wJFURoFQdhrpdrMVouqqklN0w4JgrASj8cnRkdHv0AIwbNizLaRyAsBCJxQoKWlpV4QBP3fc04wQQACEIDA1gVkWT46Nzd3fSgUunfrozHCSAJoYBlpN3aQpaur67OP3y6j3+KUv4NpMNQCAqqqziwuLl597Nix/7RAOYYuoby8/N2VlZWvlWW52uFwtBk6rIXCybK8TgjpFUVxNRaLhZ5oWvVbqESUAgEIQOCvArW1tXs4jvtfv9+/DywQgAAEILBlgShj7O6enp7LtjwSAwwngAaW4bZk24Gc7e3t9z7+DZ3+AG/XtmfBQNMLaJqmv13jocHBwbMJIbLpCzJ+AYLX631hU1PTu1VVLdE07TmiKHqNH9tcCRljRwghQUqpFAqFjk5NTX2VEDJqriqQFgIQgMDWBZqbm8s5jrvX6XS+cuujMQICEICArQUkRVG+19fXdz4hJGlrCYsUjwaWRTZSL6Ompqbd6/V+w+FwtOIh0xba2G2UomnaUCwWu/jw4cMPbWM4hmxPgCsuLq4PBALvycvL28MY6+J5vnF7U2GUpmmLmqb18Tw/TymVVVV9LBqNfmfQRBvoAAAgAElEQVRycnINOhCAAATsJFBdXR1wuVzXeL3ej9qpbtQKAQhAYCcC+kt9UqnUQCwWO296erp3J3NhrHEE0MAyzl6kJUldXd15fr//NkqpPy0TYhJTCjDG9F/4v9PX1/cOUxZg8tB79uwp8Hq9L/N4PM/RNK2KEPJcjuPKTF5WxuLrrwzUNG2JENLHcdwkz/PJVCo1FQ6HfzU7O6s/zyqVscUxMQQgAAHjC7grKireXllZeY/xoyIhBCAAAWMIMMbWIpHIJZOTk183RiKkSIcAGljpUDTYHJ2dnddSSq+ilOJhnwbbm2zGURTl0fn5+Q8uLy8fzOa6WOvvBGhdXV2d1+s9k+f5KlVVqzmOez7P87Z+4QJjLC7Lcr/+8HWn07mkqqomy/L8xsbGo9PT0yOEEAnnEQQgAAEI/FWAb2xsfL7P5/sVTCAAAQhA4OQCjLEkY+yTBw8evPHkR+MIMwmggWWm3dp8Vmd9ff1X8/Pz34pbCTePZrUjVVVdkyTpzpGRkausVptJ66FlZWXVpaWlL3A6nbuSyWSRpmmn6w9/5zjObdKaThabSZJ0OJVK9Xs8nklRFI+/GVNRlNj6+vrAxMTEACFk+WST4J9DAAIQsLvAs571rA5N0/CFlN1PBNQPAQicVEC/dTAajd4/Pj7+XnwpelIu0x2ABpbptmzTgffv37//5x6PZ8+mR+BAywlomvaDgwcPvpsQcrxxgI+hBAJ79+7tDAQCjTzPu/SGliAI+i2HpzocDp+hkj5DGEmSYpTSmWQyOSIIwoTL5VqglGr6EEopW1tbmx4fH9dvA5wlhMTMUhdyQgACEDCSABpYRtoNZIEABIwssLGxMTs8PHwWIWTIyDmRbXsCaGBtz80Uo/bu3fu64uLiH5giLEJmREBV1fFEInHD6Ojof2ZkAUyaToG8lpaWJkVRGn0+n4sxRjVNE+PxeJPH4+mQZbnR7XaXpnPBp5tL0zQ1Ho+vC4KwLIrigqZpxzY2No45nc5Fp9MZoZQqTx0XjUb12/2WFhYW5mKx2DFCSIQQcryBhQ8EIAABCKRHAA2s9DhiFghAwPoCKysrrz9y5MgPrV+pPStEA8vi+97a2vohh8PxJYuXifJOIMAYUzRN+0pvb++FQDKlAO92u8tramqqUqlUWX5+fl6mq1AURQuFQpIoijG32x1VFGVtbGxMv4JP/0+CEKJmOgPmhwAEIACBvxdAAwtnBAQgAIGTC6RSqQsHBgbuOPmROMKsAmhgmXXnNp/b09zcfI/b7X7b5ofgSCsJJJPJBw4dOnQxIWTSSnWhFghAAAIQgIBdBNDAsstOo04IQGC7Av+/vTuBs+us6z/+POecu82+JZNl0qxNZiZJk3QBEZSCshQREFkKKCB/lQrILspWsZQiIAVEEVDRylKgIkXRllqg7GibyTpbMpklmcxk9nvn7md7/r1YoECXmcxdzvKZ14uXSM95nt/v/XtImO+cOTeXy906ODj4+0KI3MWuwX3eFyDA8v6M1lqhvOSSS3oTicQdDQ0NW9a6GPf7T8B13UXbtt934sSJ9/uveipGAAEEEEAAAQIszgACCCDw8AKZTGYyl8tdc+7cuX4hhMIquAIEWMGd7YM707u7u3+tvr7+a+Foly5/XkAp9bd9fX1vFEKY6CCAAAIIIICAvwQIsPw1L6pFAIHqCmSz2acPDQ3dzasuqutei90IsGqhXoM9e3t7o5FI5LcMw/h8DbZnyxoLmKY5lMlkrh8bG7utxqWwPQIIIIAAAgisUoAAa5VgXI4AAqERsG37WsuyvjwwMMAP6kMwdQKsEAz5xy22/N/XG9rb268PUdu0WnqOVqnSJ8e9p6+v712AIIAAAggggIC/BAiw/DUvqkUAgeoIzM/P35hKpT6YTCZLn4LNVwgECLBCMOQHtSjb29v3NDY2fqq9vf1x4WqdbguFwj1LS0tvn5qa+j4aCCCAAAIIIOAfgd27dx+IRCL3xuPxiH+qplIEEECgcgILCws/TKfTr1hYWBjivVeVc/baygRYXptI5evRuru7f9UwjK/GYrH6ym/HDh4SsF3XfceRI0fe56GaKAUBBBBAAAEEHkVgy5Yt+yKRyHdaW1tbwEIAAQTCLlAsFrO2bT9zaGjo20IIN+weYeqfACtM0/5pr/Lyyy9/mpTyjnC2H96u0+n0radOnSr9CulIeBXoHAEEEEAAAX8JlD5ROhKJfL2lpWWDvyqnWgQQQKD8Aq7rPuPIkSN38uRV+W29viIBltcnVLn66vbs2fOyhoaGvxFCaJXbhpW9JqCUekNfX99H+APfa5OhHgQQQAABBB5aYNu2bd2GYdzZ3Ny8FSMEEEAgxAJuJpN5zfDw8C1CiFyIHULbOgFWaEcvxKZNm0rvw3p3Q0PD84QQnIWQnIVMJvOpiYmJdxcKhfGQtEybCCCAAAII+Fpgx44duw3D+I/Gxsbdvm6E4hFAAIGLF1CZTOZL6XT6HVNTU8MXvwx3+lmA0MLP0ytD7Xv37n26YRgfNwyDn+iVwdMvS7iu+6ojR458Ugjh+KVm6kQAAQQQQCCsAjt37txlGMa/NjQ0HAirAX0jgEC4BWzbnrBt+7r+/v7Srw7yFVIBAqyQDv7BbV9++eUvlFKWfpWwA45wCGSz2VsWFxffPTs7eyYcHdMlAggggAAC/hXYtWvXTsMwPl9fX3+lf7ugcgQQQOCiBeaVUq/p6+v7wkWvwI2BECDACsQY19yEsX///t+LRCLvlVK2r3k1FvCFgGma1504ceKfhBCmLwqmSAQQQAABBEIqsGfPnu26rn86kUg8PqQEtI0AAiEVUEotWJb1thMnTnxKCGGHlIG2HxAgwOIo/FigY/fu3W+sr6//Y03TGmAJvsDy8vJX0+n0n124cKE/+N3SIQIIIIAAAv4V6O7u3qbr+j/G4/En+7cLKkcAAQRWJ+C6biabzX701KlTNwsh5ld3N1cHUYAAK4hTvcieNm7ceEVLS8u7EonE06WUxkUuw20+Esjn86+bm5v71NzcXMZHZVMqAggggAACoRLo7e29RNf1j0ej0WtC1TjNIoBAaAWUUnY+n78zmUy+a3p6+nBoIWj8ZwQIsDgQPyOwf//+5+i6/m5d1/dBE3yBbDbbXywWXzE2NnavEEIFv2M6RAABBBBAwH8CBFj+mxkVI4DA2gQcxznpOM47T5w4cfvaVuLuIAkQYAVpmmXq5eDBgy/Tdf16IcSOMi3JMh4WsCzrpkKh8KFTp07xWK6H50RpCCCAAALhFSDACu/s6RyBkAqMOo5zw9GjR28Jaf+0/TACBFgcjYcSMPbt2/dHkUjkLZqmdUEUbAHbtrPpdPra0dHRrwkhrGB3S3cIIIAAAgj4T4AAy38zo2IEELg4Add1Jy3Lev/Jkyf/jpe2X5xhkO8iwArydNfWW1t3d/c7EonE72ma1rK2pbjb6wKFQuHLxWLxtSMjI5Ner5X6EEAAAQQQCJsAAVbYJk6/CIRTwHXdZC6X++fh4eEbhRAL4VSg60cSIMDifDyswPr16y/r7Oz8YCQSuZqXugf/oOTz+bc7jvPR4eHhdPC7pUMEEEAAAQT8I0CA5Z9ZUSkCCFycQOml7ZZl3TMzM/Pm2dnZYxe3CncFXYAAK+gTXmN/+/fvL33azfsNw9iraRrnZY2eXr7dNM3pZDL57HPnzvUJIRwv10ptCCCAAAIIhEmAACtM06ZXBMIn4Lqusm27XwjxlhMnTtwRPgE6XqkAgcRKpUJ83Z49e55dX19/s5SSl7oH/BxYlvXvSqmXnzhxYingrdIeAggggAACvhEgwPLNqCgUAQQuQkApNZrNZt84PDz8lYu4nVtCJECAFaJhr6XVvXv3vigWi/2VlHLTWtbhXu8LJJPJDzqO847x8fGC96ulQgQQQAABBIIvQIAV/BnTIQJhFVBKTRWLxTf39/d/XgihwupA3ysTIMBamRNXCRHbvn37a1taWt7GS92DfRwsy0qNjo4+N5PJfJO/RII9a7pDAAEEEPCHAAGWP+ZElQggsDqB0kvbk8nkTWNjY38thCiu7m6uDqMAAVYYp37xPXfs2LHjAy0tLddKKeMXvwx3el3ANM2+CxcuPHFubi7j9VqpDwEEEEAAgaALEGAFfcL0h0D4BJRShWQy+fnR0dE/EULMh0+Aji9GgADrYtRCfE9nZ+eO9evX3x6JRPZKKbUQU4Sh9XsOHz78pDA0So8IIIAAAgh4WYAAy8vToTYEEFitgFLKtSxrYHZ29tkzMzOjq72f68MrQIAV3tlfdOf79u27zHXduxOJxLqLXoQbfSGwtLT0idHR0et8USxFIoAAAgggEFABAqyADpa2EAipQD6fn9c07ddOnjx5PKQEtH2RAgRYFwkX9tt6enr21dXVHRFCGGG3CHL/juOk5+fnr5ucnPxckPukNwQQQAABBLwsQIDl5elQGwIIrFLAzuVyhwYHB0+u8j4uR0AQYHEILlpg27Ztv9Te3v6Di16AG30h4Lru2JEjRx4vhJj2RcEUiQACCCCAQMAECLACNlDaQSDEAgsLC48bHx//YYgJaH0NAgRYa8DjVqG1tLT8zs6dO2/BItACSil1vK+v75eEEIVAd0pzCCCAAAIIeFCAAMuDQ6EkBBBYtcCZM2delkwmPyOEcFd9MzcgIARPYHEK1iwQ27Zt23vb29vfsOaVWMDLAqW/ZI4ePnz4Ci8XSW0IIIAAAggEUYAAK4hTpScEwiWwsLDwofHx8bcKIYrh6pxuyynAE1jl1AzpWm1tbU3RaPT2zZs384l1AT4DSiknl8t9e2ho6MkBbpPWEEAAAQQQ8JwAAZbnRkJBCCCwCoHz589/0zTN5ywuLi6v4jYuReAXBAiwOBRlEdi3b1+nEOK+WCzWVZYFWcSTAkopyzTN/+zp6Xnebbfd5niySIpCAAEEEEAgYAIEWAEbKO0gECKBYrF43nXdKwcGBi6EqG1arZAAAVaFYMO47J49e7bruv6/iUSiI4z9h6VnpVTBsqwvpdPp3x8fH+edWGEZPH0igAACCNRMgACrZvRsjAACaxDI5/PzjuM8Znh4eGwNy3ArAj8RIMDiMJRV4Kqrrtrruu63hBDtZV2YxTwlYJrm0szMzN8rpd49NzeX8VRxFIMAAggggEDABAiwAjZQ2kEgHAILmqY98d577+0PR7t0WQ0BAqxqKIdrD727u/tX6urqviClXB+u1sPVbbFYnF9YWPhkPp//QDKZTIare7pFAAEEEECgegIEWNWzZicEEFi7gFJqNpfLvXBoaOg7QgheO7J2UlZ4QIAAi6NQCYHEzp07n93c3PxRKSW/TlgJYY+sWSgU5peWlv6hrq7u5pGRkTmPlEUZCCCAAAIIBEqAACtQ46QZBAItoJSaTyaTrx0dHb1dCJEPdLM0V3UBAqyqk4djw127dq0zDONV8Xj8DbquN4ej63B2aVnWomma/xyLxW4+duzY+XAq0DUCCCCAAAKVEyDAqpwtKyOAQPkEHMdJFQqFD9m2/TF+uF0+V1b6qQABFqehYgLr16/f2dDQ8NbGxsYXGYZRV7GNWLjmAq7r5izL+hfXdd87MDBwtuYFUQACCCCAAAIBEiDACtAwaQWBgArYtp1Lp9Ofz2QyN83Ozp4JaJu0VWMBAqwaDyDo27e0tBxob2+/obm5+RopZSTo/Ya5P8dxipZlfcY0zZtOnz49GmYLekcAAQQQQKCcAgRY5dRkLQQQKLeAUspKJpN3Li4uvjOZTB4r9/qsh8CPBQiwOAsVF9i3b98vSylvikQiT5BS6hXfkA1qJuA4juO67mcdx3lff3//MC9trNko2BgBBBBAIEACBFgBGiatIBAwAaWUY1nWd5VSbzt58uT3A9Ye7XhMgADLYwMJajnd3d1XR6PRUoj1uKD2SF8/FXAc57bFxcWPnD17to+XN3IyEEAAAQQQWJsAAdba/LgbAQQqJ2BZ1g9M03zb0NDQPZXbhZUR+D8BAixOQtUErrjiiqcqpd4jpbyyapuyUc0ETNP8eiqV+rTjOF89f/78Qs0KYWMEEEAAAQR8LkCA5fMBUj4CARVQSt0npXz74cOH7wpoi7TlMQECLI8NJODlaAcOHHiGrus3SCkPBbxX2hNCFAqFUdd1/9V13Y8MDw9PgYIAAggggAACqxcgwFq9GXcggEBlBZRSR+5/e8j1x44d+y8hhFvZ3Vgdgf8TIMDiJFRbINLb2/uceDx+vZRyX7U3Z7/qC9i2XdB1/dZkMvne0dHR0ieS8Bdc9cfAjggggAACPhYgwPLx8CgdgQAKKKVOFgqFGwYGBm4XQlgBbJGWPCpAgOXRwQS8rLqdO3f+TmNj41t0Xd8Z8F5p7wEBx3FuX1hY+IKu67ePj48XgEEAAQQQQACBlQkQYK3MiasQQKDyAo7jnEmn0+8/c+bMZ4QQucrvyA4I/FSAAIvTUCuB9ksvvfS6hoaGV2matqlWRbBvdQVM0xy0bftb6XT6jZOTk/nq7s5uCCCAAAII+FOAAMufc6NqBIIm4LruVCaT+djp06c/LoTgHbdBG7AP+iHA8sGQglpiV1fX5ng8/oaGhoaX67reHtQ+6etnBRzHsUpPYR0/fvwvLcsqfUohXwgggAACCCDwCAIEWBwPBBCotYDjOAuZTOafC4XChyYnJ8/Xuh72D6cAAVY45+6Zrjdu3Lg1Go2+o7W19QW6rjd5pjAKqbiAaZr/k06nvz8+Pv7Gim/GBggggAACCPhYgADLx8OjdAQCIOA4zvLS0tIXTdO8cXp6eiIALdGCTwUIsHw6uCCV3dnZuT0SiXywvb39GsMw4kHqjV4eWcCyrLRhGN/s6+t7ixBiGC8EEEAAAQQQ+EUBAixOBQII1Eqg9IFMCwsLd9z/v9vfNDMzM1arOtgXgZIAARbnwBMCzc3NO7ds2XJLLBZ7rBDC8ERRFFEtAceyrGOpVOqbExMTb67WpuyDAAIIIICAXwQIsPwyKepEIHACdrFY/J9z5869LJVKlT5NnC8EaipAgFVTfjZ/sMD+/ft3KKW+FI1GL5NSauiESkC5rpt2Xff7x44du1EI8b1QdU+zCCCAAAIIPIIAARbHAwEEqi2glHJN0zwupfztEydOjFZ7f/ZD4KEECLA4F54S2Ldv3xbXdb8Zj8d3SCk5n56aTlWKsS3LmjZN886hoaHXCSH4pMKqsLMJAggggICXBQiwvDwdakMgeAJKKVUoFEY1TXvSyZMnzwWvQzryqwABgV8nF+C69+3b1xmLxU4JIXipe4Dn/CitFWzbHslkMn9/5syZvw4vA50jgAACCCAgBAEWpwABBKossFwsFnefPHlypsr7sh0CjyhAgMUB8aTAFVdc0SyEmBNCRDxZIEVVQ0AJIYqWZX1vaWnphnPnzn27GpuyBwIIIIAAAl4TIMDy2kSoB4FAC1hCiHWHDx9OBbpLmvOlAAGWL8cWjqI7Ozvru7q6MuHoli4fQaAUZDm5XO7WwcHBPxdC8OknHBcEEEAAgVAJEGCFatw0i0BNBSYnJxtmZmayNS2CzRF4GAECLI6GpwW2bdsWb29vT/PJhJ4eU1WLy+fzN09MTLw/m82WntBzq7o5myGAAAIIIFADAQKsGqCzJQLhE7AXFhYax8fHC+FrnY79IkCA5ZdJhbjOrq6uzZ2dnYNCiMYQM9D6gwRM07TS6fSNpmn+U11d3ezIyIgphCg9qcUXAggggAACgRMgwArcSGkIAa8JpGdmZnomJyfPe60w6kHgwQIEWJwHPwjIHTt2XNrS0vJdKeU6PxRMjdURKBaLpSDrL3Rdvy2dTk/Nzc2VHncmyKoOP7sggAACCFRJgACrStBsg0AIBZRSc8lk8gmjo6On+d/RITwAPmuZAMtnAwtxudr27dv3t7a2/qeUcnOIHWj9YQTm5uY+EIvFPpdKpaZnZ2dn+QuYo4IAAgggEBQBAqygTJI+EPCWgFLq/NLS0m+MjY2d4NUc3poN1Ty0AAEWJ8NPAvquXbuuam5u/pwQYrufCqfW6gksLi5+tbGx8cZUKrU8MTExWvokw+rtzk4IIIAAAgiUX4AAq/ymrIgAAmIslUq9eGRk5N7SBybhgYAfBAiw/DAlanywgLFr164nNDY2fkLTtN3QIPBwAqlUalIp9eampqazMzMz56emps6ihQACCCCAgB8FCLD8ODVqRsC7Aq7rnkqn068cGRn5rhDC9m6lVIbAzwoQYHEi/CgQ2bVr15Oampr+Wkq5x48NUHP1BJRSVjKZ/EJzc/Mty8vLuTNnzgwLIRaqVwE7IYAAAgggsDYBAqy1+XE3Agj8VEApNby8vPzakZGRbwohLGwQ8JMAAZafpkWtDxaI79y58+lNTU03aZrWAw0CjyaglFL5fH46n89/sqWl5WgqlVocGxvrF0IsPtq9/HMEEEAAAQRqKUCAVUt99kYgOAKu6w4sLy+//cyZM3cKIQrB6YxOwiJAgBWWSQezz7pdu3Y9o7Gx8XpN0/YHs0W6qoSA67puoVA4bVnW55uamk4XCoXFmZmZ4wsLC9O8wLIS4qyJAAIIILAWAQKstehxLwIIlARc1z2RTqdvGBkZ+S8hRA4VBPwoQIDlx6lR84MFfhxivUPTtAPQIHAxArZtT1iW9R+xWKy/WCxmZmZmTi0sLAwIITIXsx73IIAAAgggUE4BAqxyarIWAuETcF33WDqdvpHwKnyzD1rHBFhBm2g4+0l0d3c/Ix6Pv13X9UPhJKDrcgmYppkuFov/G41GvxuNRpOpVCprmuZQPp8/Oj8/Xwq0VLn2Yh0EEEAAAQRWIkCAtRIlrkEAgYcScBznSKFQeM/Q0FDpyas8Sgj4WYAAy8/To/YHC5RCrGsSicTbNU27HBoEyiVQLBbTSqljkUjkB4ZhpErrzs/Pz1uWdez8+fNDQohkufZinaoJaEKIDTt27Ohtamra57ruuWKxeNfw8HC6ahWwEQIIILAKAQKsVWBxKQII/ETAdd3D+Xz+pqGhoTsIrzgYQRAgwArCFOnhxwKJnp6ep5eexNI07QpYEKiUQKFQmNc07bhSaigajS49sI+dTCZPm6Z5fHJysvRJh2al9mfdVQk0dnV1lYKqA4ZhbDIMw1BK6cVisVPTtL3RaHSv4zhfU0q97vjx45OrWpmLEUAAgSoJEGBVCZptEAiQQCm8Kj15NTg4WAqveGF7gGYb5lYIsMI8/WD2Huvt7S2FWNdLKXkSK5gz9mRXSinbsqwJKeUpwzBGNU370ccSFwqFnGma467rnhwZGSm9V+tHT3HxVXYBIxaLbevo6Lg8kUj0trS0NJd2sG273nXdnaVPK5VSrtc0Tf/5nW3b/rJS6rUEWGWfCQsigECZBAiwygTJMgiEREAp1VcoFG4YGBgofdpgMSRt02YIBAiwQjDkELYY6+7ufkpdXd0NUkreiRXCA+Cllh3HKbquOyulHJdSntN1Pfvj+lKp1LKu6yOzs7P9S0tLpae25vkUxBVNb/2WLVsOGobx2La2ti2lO0pPVVmW1amUKoVVWyKRSP2KVvq/kIsAa6VYXIcAAjURIMCqCTubIuBLAaXUkVwud/3Q0NB/E175coQU/QgCBFgcj6AKRHt6en49kUi8V0p5WVCbpC9/C9i2nZdSzjmOM63r+swD4Zb7464ymUzedd1TdXV1Z44dO3ZKCFH6FbewvHOrZfPmzT3xeHyfbdvdLS0t6wzDKL27SjiO0+i6bpdSans0Gm1d6ymwbfvf+BXCtSpyPwIIVFKAAKuSuqyNQHAElFLH8/n8WwcHB+/mdRbBmSud/FSAAIvTEGSBUoj1q3V1dR8WQuwNcqP0FkwBx3FspdSCrutLlmUtGoaxrGnaL7zDIJ/PW5lMZiEajc7E4/ELc3NzUzMzM1NCiAtCiNI7ukqfOPOTYKxGWqVf3WsXQnS0tbV1bdmypSuXy21yXXdzXV1dRzQaNR5cl+u6caVUhxBineM4HZFIpE5KWZG/swiwanQi2BYBBFYsQIC1YiouRCDMAv25XO71g4OD3ya8CvMxCHbvFflmINhkdOczAaO3t/dx8Xj8k1LKbp/VTrkIrEjAcRzXdd2ipmk5KWXpqa2cUir3wP9vSiltKaVa0WIVukgpJUuhVOlfQoh6wzBK76aqE0KUgqm4pmk/erqqFl+2bd9+f1D4x7wDqxb67IkAAisRIMBaiRLXIBBegdIHCxUKhT8cGBj4QentCOGVoPOgCxBgBX3C9FcS0Pfu3Xt5PB6/VQixExIEEEDgwQKWZX3l/vePvYYAi3OBAAJeFSDA8upkqAsBTwicKRQKL+rv7+8rvWnBExVRBAIVEiDAqhAsy3pOQDtw4EDP/S99Ln2M7I9e+swXAgggUBIoBViu6/7xyZMnzyGCAAIIeFGAAMuLU6EmBDwhcM627WuOHTs26IHXRXgChCKCLUCAFez50t3PCsiDBw9u1XX9h0KITnAQQACBBwKs/3Bd99UEWJwHBBDwqgABllcnQ10I1FRgxnGcXzp69OhE6QOZa1oJmyNQJQECrCpBs413BK666qoN6XT6WH19/XrvVEUlCCBQKwHLsr7quu6rCLBqNQH2RQCBRxMgwHo0If45AuESyOVyMw0NDQfvvffe0gf28IVAaAQIsEIzahp9sMCuXbuaIpHIWF1dXRsyCCAQbgHTNP/TcZxXDQwMnA23BN0jgIBXBQiwvDoZ6kKg+gK5XG7esqydIyMjy9XfnR0RqK0AAVZt/dm9hgJXXHFFJJ/PTyUSiY4alsHWCCBQYwHTNO9wHOc6AqwaD4LtEUDgYQUIsDgcCCBQEigUCrPxeLzr8OHDFiIIhFGAACuMU6fnnwhcffXVxvz8/KloNLpNSsl/HzgbCIRQwDTNOx3HeSUBVgiHT8sI+ESAAMsng6JMBCokoJRSpmmOdnR0dN9zzz12hbZhWQQ8L8A37J4fEQVWWu4iCVAAACAASURBVKCzs7NeKXV7V1fXE6WUkUrvx/oIIOAtgWKxeJfjOH84ODhYegkqXwgggIDnBAiwPDcSCkKgagJKKWtycvLrUsrnzczMZKu2MRsh4EEBAiwPDoWSqi/Q2traXF9f/8H169dfK6Wsr34F7IgAArUSKBaLdzuO8/sEWLWaAPsigMCjCRBgPZoQ/xyBYAoopbKzs7OfzWazb1laWkoFs0u6QmDlAgRYK7fiyoALbNu2rUVK+abm5uZX6brOy90DPm/aQ+DHAoVC4eulAGtoaGgcFQQQQMCLAgRYXpwKNSFQWQHXdRdSqdTfCiFuHh0dJbyqLDer+0SAAMsng6LMqgk0bdiw4Xc3btz4Vk3TNldtVzZCAIGaCRQKhW84jvP/CLBqNgI2RgCBRxEgwOKIIBAuAdd1z09PT7/nwoULnxFCpMPVPd0i8PACBFicDgR+UaBu27Ztv9nW1najlHIXQAggEGyBQqHwTcdxXkGAFew50x0CfhYgwPLz9KgdgdUJKKVGlpaW3j42NvZVIURudXdzNQLBFiDACvZ86e7iBaI9PT2/nkgk/kpK2XPxy3AnAgh4XaBQKNzjOM7vEWB5fVLUh0B4BQiwwjt7Og+XgFJqMJ/Pv3lwcPBuIYQZru7pFoFHFyDAenQjrgivgLF3795fi8Vi75NSHggvA50jEGwBAqxgz5fuEAiCAAFWEKZIDwg8soBS6lixWPzT/v7+rwshbLwQQOAXBQiwOBUIPLKAPHTo0JOFEDdJKS+XUhqAIYBAsAQIsII1T7pBIIgCBFhBnCo9IfB/AkopWynVd/8TV287cuTIN0r/ETYIIPDQAgRYnAwEViDQ3d39xGg0+ueGYfyylDK2glu4BAEEfCKQz+e/VfoVwuHh4TGflEyZCCAQMgECrJANnHZDI6CUKtq2/X3TNP9iaGjoW6FpnEYRuEgBAqyLhOO28Ans3bv38UqpN0QikScbhtEaPgE6RiCYAvl8/tuO47ycACuY86UrBIIgQIAVhCnSAwI/K2Db9qJlWd+QUn64v7//e/gggMCjCxBgPboRVyDwE4HOzs79TU1Nv9/Q0PB8TdM2QoMAAv4XyOfz33Uc56UEWP6fJR0gEFQBAqygTpa+wirguu5UJpP54vLy8j/OzMycDKsDfSOwWgECrNWKcX3oBbZu3bo9Eom8sKGh4Q90Xd8RehAAEPC5QC6X+75t2797+vTpUZ+3QvkIIBBQAQKsgA6WtkIp4LrumUwm80nLsr44Pj4+HkoEmkbgIgUIsC4SjttCL9C+e/fuZzQ0NLxNStkdeg0AEPCxQC6X+6Ft2y8hwPLxECkdgYALEGAFfMC0FxoBpdRQNpt9z/Dw8H8KIZZC0ziNIlAmAQKsMkGyTCgFYpdddtnTIpHI+4UQe0IpQNMIBEAgl8v9r2VZLx4ZGTkTgHZoAQEEAihAgBXAodJSGAWGLMt6y/Hjx+8SQhTDCEDPCKxVgABrrYLcH3YB/dChQ1fbtv0hwzD2apqmhR2E/hHwm0A2m73Ptu1rCbD8NjnqRSA8AgRY4Zk1nQZPwHVd17btE4ZhvOnIkSP3CCGc4HVJRwhUR4AAqzrO7BJwge7u7l9WSr2/vr7+sVJKI+Dt0h4CgRLIZrN9lmW98MyZMyOBaoxmEEAgMAIEWIEZJY2ETEApZWWz2R9KKf90aGjoByFrn3YRKLsAAVbZSVkwrALbt2+/TEr52paWlhdLKRNhdaBvBPwmkMlkjtq2/XwCLL9NjnoRCI8AAVZ4Zk2nwRFQSuVTqdSnlVJ/Mzo6eiI4ndEJArUTIMCqnT07B1Bg8+bNXUqp527cuPF9Qoh4AFukJQQCJ5DJZI5blvW80dHR04FrjoYQQCAQAgRYgRgjTYRLID89Pf0nmqbdPjk5eT5crdMtApUTIMCqnC0rh1egcefOnVe1tLR8TQjBrxOG9xzQuU8EMpnMScuynkuA5ZOBUSYCIRQgwArh0GnZzwJ2Mpl86pkzZ+4VQmT83Ai1I+A1AQIsr02EeoIiYOzfv39XNBodDEpD9IFAUAXS6fSgbdvPGR0dPRXUHukLAQT8LUCA5e/5UX24BEzT7Dlx4kTpqW5e1h6u0dNtFQQIsKqAzBahFZCHDh26xLKs/4nFYp2hVaBxBDwukE6nT1mW9ayxsbFhj5dKeQggEFIBAqyQDp62fSVQLBZnIpHIY48cOTLhq8IpFgEfCRBg+WhYlOpPgW3btm0wTfOWjRs3PtWfHVA1AsEWWF5eHrFt+5kEWMGeM90h4GcBAiw/T4/awyAwPT19ZzQa/b3x8fELYeiXHhGolQABVq3k2TdsAo2tra2v3rFjx3vD1jj9IuB1geXl5fH7n5S8Znx8fMjrtVIfAgiEU4AAK5xzp2t/CIyOjv7Z0tLSx4QQaX9UTJUI+FeAAMu/s6Ny/wkYO3bsuLq1tfUOXu7uv+FRcXAFUqnUWcuynj4xMcE764I7ZjpDwNcCBFi+Hh/FB1fAXlpaumZ0dPQeIYQd3DbpDAHvCBBgeWcWVBISgT179lyp6/p/xePxdimlFpK2aRMBzwqkUqnzlmU9hQDLsyOiMARCL0CAFfojAICHBJRSbqFQWHAc5xnDw8P3eag0SkEg8AIEWIEfMQ16UWDr1q2H4vH4x+vr6/dLKRNerJGaEAiLQDKZvGBZ1q+dPXt2ICw90ycCCPhLgADLX/Oi2uAKKKXy2Wz2RKFQuG5iYuJIcDulMwS8KUCA5c25UFUIBDo7O7e3tra+qb6+/lohRHsIWqZFBDwpkEwm5yzLetLZs2f7PVkgRSGAQOgFCLBCfwQA8IbAQjab/fzS0tIHZ2ZmxrxRElUgEC4BAqxwzZtuvSfQsGfPnt9paGh4pxBik/fKoyIEgi+QTCYXLMt6IgFW8GdNhwj4VYAAy6+To+4ACUxls9kbhoaGPiuEyASoL1pBwFcCBFi+GhfFBlRAP3jw4As1TXu3lPISXvAe0CnTlmcFlpaWkpZl/cq5c+dOerZICkMAgVALEGCFevw0X1sBWyl11nXddx49evQLQgintuWwOwLhFiDACvf86d5DAnv37n2WrutvMgzjgJSy2UOlUQoCgRZYWlpKm6b5+MnJyROBbpTmEEDAtwIEWL4dHYX7WEAplbJt+6jjODf39/f/u49boXQEAiNAgBWYUdJIEAS6uroua25ufkUsFnuelHJzEHqiBwS8LpDJZAqmaT52bGzsuNdrpT4EEAinAAFWOOdO17UTUEqdLxaLt6VSqU/xA67azYGdEfh5AQIszgQC3hNoPHDgwMs1TXudlHK7lFLzXolUhECwBDRNO3TvvfceDVZXdIMAAkERIMAKyiTpw+sCSilXKTXquu5Hjh07dosQIu31mqkPgTAJEGCFadr06iuBnp6elwohXh2Pxy/TNC3uq+IpFgGfCRBg+WxglItAyAQIsEI2cNqtiYDruoVCoVD6YdbHBgcHP12TItgUAQQeUYAAiwOCgIcF2trantre3v7ihoaGZ2ma1urhUikNAV8LEGD5enwUj0DgBQiwAj9iGqyxgOu6i5lM5vbFxcVbFxYW7q5xOWyPAAIPI0CAxdFAwPsC2/fu3fuCWCz2JinlOu+XS4UI+E+AAMt/M6NiBMIkQIAVpmnTa7UFlFJzxWLxr/r7+0ufMjhR7f3ZDwEEVi5AgLVyK65EoJYCscsvv/yljuO8Xdf1S6SU/He3ltNg78AJEGAFbqQ0hECgBAiwAjVOmvGIQOl9V47jTOi6/t6+vr7S+65Mj5RGGQgg8DACfBPM0UDARwK9vb0vUEpdW1dX90whRMRHpVMqAp4WIMDy9HgoDoHQCxBghf4IAFB+ASufz98upfxCf3//l8q/PCsigEAlBAiwKqHKmghUUKCrq2t/c3Pzr8Xj8b8SQugV3IqlEQiNAAFWaEZNowj4UoAAy5djo2jvCjjFYvGNy8vLd589e3bAu2VSGQII/LwAARZnAgF/CiSuvPLK55im+TeRSKTNny1QNQLeESDA8s4sqAQBBH5RgACLU4FAeQRs256PRCKvve+++74shCiUZ1VWQQCBagkQYFVLmn0QqIDA3r17n+667ivq6uqeX4HlWRKB0AgQYIVm1DSKgC8FCLB8OTaK9phALpe7VdO0W/r7+7/msdIoBwEEVihAgLVCKC5DwKMCsqura1dLS8uvx2Kxj3m0RspCwPMCBFieHxEFIhBqAQKsUI+f5ssgYJrmdclk8u5z586NCiFUGZZkCQQQqIEAAVYN0NkSgXILdHZ21m/atOkax3E+HolE2su9PushEHQBAqygT5j+EPC3AAGWv+dH9bUTsG17TtO0P5qamrpzZmYmW7tK2BkBBMohQIBVDkXWQMADAr29vVEhxGOVUq+qq6u71gMlUQICvhEgwPLNqCgUgVAKEGCFcuw0vUaBfD7/WSnl3yml7h0YGDDXuBy3I4CABwQIsDwwBEpAoIwC+tatW9c3NTX9djQa/WgZ12UpBAItQIAV6PHSHAK+FyDA8v0IaaDKApZlvXp5efnfxsfH54QQTpW3ZzsEEKiQAAFWhWBZFoFaCnR1dSUaGhqu0XX9A/F4fEcta2FvBPwgQIDlhylRIwLhFSDACu/s6Xx1AslkcsA0zbcqpf57cnIyv7q7uRoBBLwuQIDl9QlRHwIXKXD11VcbR44c2drZ2fn6xsbG11zkMtyGQCgECLBCMWaaRMC3AgRYvh0dhVdRIJPJfOTChQsfSaVS54QQdhW3ZisEEKiSAAFWlaDZBoEaCug9PT2vjEQiH4hEInU1rIOtEfCsAAGWZ0dDYQggIIQgwOIYIPDwApZlZe//158MDg5+kl8X5KQgEGwBAqxgz5fuEPiJwIYNG57Y1tZ2QyKReIIQQoMGAQR+KkCAxWlAAAEvCxBgeXk61FZDAbdQKHx7cXHx+unp6e/UsA62RgCBKgkQYFUJmm0Q8IhAw8GDB2/Udf2VQoiYEII/AzwyGMqorQABVm392R0BBB5ZgACLE4LAzwgoIUTRcZxPHD169O1CiCw+CCAQDgG+eQ3HnOkSgZ8ROHDgwBullNdpmrZVShmFB4GwCxBghf0E0D8C3hYgwPL2fKiuegJKKdN13XGl1MePHTv2oertzE4IIOAFAQIsL0yBGhCojcCOyy677D2RSOQ3hBANPI1VmyGwqzcECLC8MQeqQACBhxYgwOJkICBKT11lLMv66vHjx0tPXY1hggAC4RMgwArfzOkYgZ8R2Ldv302apv2WYRg7eBqLwxFWAQKssE6evhHwhwABlj/mRJWVESg9dWXb9hnXdW8/efLk2yqzC6sigIAfBAiw/DAlakSg8gKPOXDgwJ9qmvZUTdNKT2PxhUCoBAiwQjVumkXAdwIEWL4bGQWXR0AppTKO49x17Nix9wohDpdnWVZBAAG/ChBg+XVy1I1A+QX0np6ej0QikScbhrFHSsknFZbfmBU9KkCA5dHBUBYCCPxIgACLgxA2AaWU6zjOkGVZ3xgYGHidEMINmwH9IoDALwoQYHEqEEDgZwQ2b978zHXr1r3i/p9y/aau6wY8CIRBgAArDFOmRwT8K0CA5d/ZUfnqBRzHsaSU/zE3N/cPk5OTd6x+Be5AAIGgChBgBXWy9IXA2gQSe/bs+WgkErk6FovtXNtS3I2A9wUIsLw/IypEIMwCBFhhnn64ejdN85RlWd8aGhr6YyFEMVzd0y0CCDyaAAHWownxzxEIscC6dete3tXV9TTXdZ9vGIYeYgpaD7gAAVbAB0x7CPhcgADL5wOk/EcVsG3b1jTttqmpqf+YmZm59VFv4AIEEAilAAFWKMdO0wisXKCpqalt06ZN74pEIk+KRqP7Vn4nVyLgHwECLP/MikoRCKMAAVYYpx6enk3TPGbb9j3T09PvSiaTyfB0TqcIILBaAQKs1YpxPQIhFNi2bVtcKXVNa2vrs5VSLzEMg3djhfAcBLllAqwgT5feEPC/AAGW/2dIB78oYNt26V1Xn02lUl/Wdf1rIyMj/MogBwUBBB5RgACLA4IAAisVkJs3b97c2Nj4R9Fo9JpIJHJopTdyHQJeFyDA8vqEqA+BcAsQYIV7/kHs3rKsPsuy7shkMh87d+7ctBBCBbFPekIAgfIKEGCV15PVEAi8QEdHR2Nzc/PjGxoaXiCEKD2NFQ180zQYeAECrMCPmAYR8LUAAZavx0fxDxKwbdsUQnwmm81+MZVKfW9ubi4DEAIIILBSAQKslUpxHQIIPFhAdnd3b9U07cWGYfx2JBK5HB4E/CxAgOXn6VE7AsEXIMAK/ozD0KFlWYdt2/6S67q3Dg0NTfDUVRimTo8IlFeAAKu8nqyGQKgEduzY0RyNRg/GYrGXaZr2Ik3T4qECoNnACBBgBWaUNIJAIAUIsAI51tA05bpuwXXdz5mmeUuxWDw2OjqaCk3zNIoAAmUVIMAqKyeLIRBKgR89jWVZ1lMSicTLYrHY40OpQNO+FiDA8vX4KB6BwAsQYAV+xIFt0DTN7+Tz+VsMw/j60NDQeGAbpTEEEKiKAAFWVZjZBIFQCNR1d3fvlFKWXvL+IsMwWkLRNU0GQoAAKxBjpAkEAitAgBXY0Qa2Mdu2l0zTvFUp9fGhoaERIUQ+sM3SGAIIVE2AAKtq1GyEQDgEtmzZsskwjH3Nzc3v1HX9CeHomi79LkCA5fcJUj8CwRYgwAr2fIPWneu6306lUjc4jjMwMTFR+oRBvhBAAIGyCBBglYWRRRBA4OcEjMsuu2xLOp1+RVNT0x8YhtGJEAJeFiDA8vJ0qA0BBAiwOAN+EHAcZ3p5efkTDQ0N/3L8+PGzQgjHD3VTIwII+EeAAMs/s6JSBHwn0Nra2tzR0VF6Iusf4vH4L2mapvmuCQoOhQABVijGTJMI+FaAAMu3owtF4Uopp1AofN9xnD+Ym5ubXlxcXA5F4zSJAAJVFyDAqjo5GyIQOgG5e/fudqXU8xobG2+UUraHToCGPS9AgOX5EVEgAqEWIMAK9fg93bxSaj6bzb5FSvnvQ0NDi0II5emCKQ4BBHwtQIDl6/FRPAL+EbjiiisiQoi6ZDL5+ZaWlqcIIXT/VE+lQRcgwAr6hOkPAX8LEGD5e34Brd5OpVJfbW5ufrkQInf48GEroH3SFgIIeEiAAMtDw6AUBEIioCcSiQ1bt24dqq+vbwhJz7TpcQECLI8PiPIQCLkAAVbID4DH2s/lcsmzZ892Z7PZed5z5bHhUA4CARcgwAr4gGkPAS8LaJr2qkOHDn1YCGEIIfjzyMvDCnhtBFgBHzDtIeBzAQIsnw8wGOWXfjXQPnr06P9zHOfTwWiJLhBAwG8CfMPot4lRLwIBE+jt7W0oFot3NDc3H5RS8kRWwObrl3YIsPwyKepEIJwCBFjhnLsXulZKKSllZnl5+X8SicRzjh8/nvVCXdSAAALhFCDACufc6RoBrwno27dvv6Ktre12pVQjQZbXxhP8egiwgj9jOkTAzwIEWH6enn9rV0ql8/n8wvLy8m+dP3/+uBDC9W83VI4AAkEQIMAKwhTpAYGACHR1dbXV19f/UUNDwyuVUp1SymhAWqMNjwsQYHl8QJSHQMgFCLBCfgCq3L7rugUp5ez58+c/ODMz889CiOUql8B2CCCAwEMKEGBxMBBAwHMCu3bt6jUM4911dXVXCiG6pJSa54qkoEAJEGAFapw0g0DgBAiwAjdSrzbkKKUmFxYWvpPNZt89Pz9/yquFUhcCCIRTgAArnHOnawT8IGDs3LnzKYlE4s8ikcguTdM2+aFoavSnAAGWP+dG1QiERYAAKyyTrl2fruuetyzrVLFYfO/p06e/wacL1m4W7IwAAg8vQIDF6UAAAa8LtO7Zs+faurq6VwghSkFWi9cLpj7/CRBg+W9mVIxAmAQIsMI07er26rrukhBiJJ/P//3Q0NAX+HXB6vqzGwIIrE6AAGt1XlyNAAI1Eujs7NzX0dHxkkgk8kwp5W5N03g/Vo1mEcRtCbCCOFV6QiA4AgRYwZmlVzpRShWUUqds2/73hYWFz05NTQ15pTbqQAABBB5OgACLs4EAAr4S2Lp16zMaGxufG4vFniqE2OKr4inWswIEWJ4dDYUhgIAQggCLY1AuAaWUcl133HGcuzKZzL+NjY3dVa61WQcBBBCotAABVqWFWR8BBCohED906NDLXdd9sq7rV0sp11ViE9YMjwABVnhmTacI+FGAAMuPU/NezUqp2WKxeLdt218fHh7+jBDC9F6VVIQAAgg8vAABFqcDAQT8LLD+wIEDLzFN88nxePxqTdMa/NwMtddOgACrdvbsjAACjy5AgPXoRlzx8AJKqXQpuIpEIt8+evTovwghFvFCAAEE/ChAgOXHqVEzAgj8vEDvwYMHn2ma5rPi8fhjpJQRiBBYjQAB1mq0uBYBBKotQIBVbfFg7KeUMovF4vcikcgdR48e/XLpZe3B6IwuEEAgrAIEWGGdPH0jEECBjo6OJ15yySWPKRaLr4zH4zuEEPwZF8A5V6IlAqxKqLImAgiUS4AAq1ySoVlHFYvFU9Fo9B8nJye/Nzs7+/3QdE6jCCAQaAG+uQv0eGkOgXAK7Nix47mNjY2XKqXeEYlE+LXCcB6DVXVNgLUqLi5GAIEqCxBgVRncx9vZtr0spbwxk8mcGhkZ+YqPW6F0BBBA4BcECLA4FAggEFSBaG9v7wuklJdqmvbWaDTKrxUGddJl6IsAqwyILIEAAhUTIMCqGG1gFjZNsyiEuNFxnLGBgYEvCCHswDRHIwgggMADAgRYHAUEEAi0QHNzc+uGDRt+Q0p5VX19/WsD3SzNXbSAlPLy++6778hFL8CNCCCAQAUFCLAqiBuApfP5/M2u6x6enZ396uLi4nIAWqIFBBBA4CEFCLA4GAggEAYBraOjY8PGjRuvLhaLT2tsbHxpGJqmx5ULOI7zmKNHj94nhFArv4srEUAAgeoIEGBVx9lvu2QymX+IxWJfn56evmdubm5WCOH6rQfqRQABBFYjQIC1Gi2uRQABvwsYGzZs6GppaXmcbdsvam5u/k2/N0T95REoFApP6O/v/wH/4788nqyCAALlFSDAKq+n31dbXl7+UiQS+WIymfzh1NTUeSGE4/eeqB8BBBBYiQAB1kqUuAYBBIImEN2yZcuWhoaGx2ua9gfxePwJQWuQflYnkMvlnjg4OPg9vglYnRtXI4BAdQQIsKrj7PVdisXit1zX/ftsNvv9iYmJUnBler1m6kMAAQTKKUCAVU5N1kIAAV8JbNu2LR6LxTbatv3rsVjstYlEYp+vGqDYsglkMpknDw8Pf5sAq2ykLIQAAmUUIMAqI6YPlyoUCkdM0/yoruvfLBQKF8bHxws+bIOSEUAAgTULEGCtmZAFEEDA7wKbNm2qa2tra0+n089uaGh4XTwe3+X3nqh/dQLLy8tPOX369D18atPq3LgaAQSqI0CAVR1nr+1SLBaHMpnMh5uamv5zcXFxYXJyMu+1GqkHAQQQqKYAAVY1tdkLAQQ8LdDV1ZVoa2trXFhYeElra+vrYrHYVk8XTHFlE0gmk9ecOXPmbgKsspGyEAIIlFGAAKuMmD5YyjTN0WQyeXNra+tty8vLyzxx5YOhUSICCFRFgACrKsxsggACPhOI7tq1K57L5a5rb29/QzQa3eCz+il3lQJLS0vPHB0dvUsIYa3yVi5HAAEEKi5AgFVxYk9sYFnW+cXFxQ/E4/F/GhkZKf2aIO+48sRkKAIBBLwiQIDllUlQBwIIeFFAu/rqq7WBgYG3bty48fWGYbR5sUhqWrvAwsLCc8bHx+/gm4W1W7ICAgiUX4AAq/ymXlrRcZz5CxcuvL+7u/tD99xzj8sn4nppOtSCAAJeEiDA8tI0qAUBBDwtsG7duvd0dXW9WkrZKKXUPF0sxa1KYG5u7vlnz579dwKsVbFxMQIIVEmAAKtK0FXcRinlKqWWp6amPjgzM3NjFbdmKwQQQMC3AgRYvh0dhSOAQK0Euru7P1JfX/87Qog6IUS8VnWwb/kEZmdnX3zu3Ll/E0IUy7cqKyGAAALlESDAKo+jR1Yp/Wpg7ty5c387Ozt7vUdqogwEEEDAFwIEWL4YE0UigIAXBTZt2vTmjRs3vkEp1SClbPJijdS0MoELFy689Pz587cJIfho8pWRcRUCCFRRgACritgV2koplZJSZmdmZv5ycnLyoxXahmURQACBQAsQYAV6vDSHAAKVFujt7Y0Wi8U/bGlpeb3ruk2apq2r9J6sX36Bubm5F549e/YrPIFVfltWRACBtQvs27dvy/1/v/xtJBL5zbWvxgrVFHBdd1bTtOV0Ov2+xsbGWw4fPsyHhVRzAOyFAAKBEiDACtQ4aQYBBGookOjs7Hz25s2b3+a6bquUcrOmafwZW8OBrGbr5eXlp54+ffqbQgh7NfdxLQIIIFANgZ6eno3RaPR9hmH8bjX2Y4+1CbiuW3oR+3kp5dL09PS7pqenSx8SwhO+a2PlbgQQQEDwzRWHAAEEECivQN3GjRuf3tra+vpYLLZJSrlNSqmXdwtWK7eA4ziPOXr06H1CCFXutVkPAQQQWKvAhg0b1iUSiXe0tbW9dq1rcX/lBJRSjlJqzDTNyaWlpZunpqb+m+Cqct6sjAAC4RMgwArfzOkYAQSqIxDbsWPHU+rr66/TdX27EGKnruux6mzNLqsV0DTt0L333nt0tfdxPQIIIFAlgeZNmzZdt3Hjxr+s0n5sswoB13ULSqkR13VHc7ncx0ZGRr4hhOBXBVdhyKUIIIDASgQIsFaixDUIIIDAxQsYl1xyyRMbGhpeEolE9kkpe3Rdb7j45bizEgIEWJVQZU0EECijQPTSSy/9zaampn8t45ostUYB13WXXdcdtG37eC6X+8zY2Nh3hRClXx/kCwEEEECgAgIEWBVAZUkEEEDgoQTa29sfu27duufF4/ErpJQHNU1rRcob1pQGsgAADH5JREFUAgRY3pgDVSCAwMMLXHnllY9XSpUCEr5qLOC67rxt20ccxzk8Ozv7r/Pz84drXBLbI4AAAqEQIMAKxZhpEgEEvCSwZcuWfW1tbb+llDpoGMavSik7vFRf2GoxTTMrhHjciRMnToStd/pFAAH/CBBg1XZWSill2/aMlPJblmUdGxgYKD0Nd7q2VbE7AgggEC4BAqxwzZtuEUDAWwKbDhw48CJN0y51XfeZuq6XXvrOn8tVntHCwsJdxWLxD6enpyeqvDXbIYAAAisW6O3tfYxhGHdFIpHmFd/EhWsWKH2ioGVZE7qu/1culxs+ffr0rUKI+TUvzAIIIIAAAqsW4BulVZNxAwIIIFB2gbqenp4XJxKJbY7jlIKs/VJKrey7sOBDCiwsLPze+Pj4F4QQeYgQQAABrwp0dnbuaGhouLmlpeXZXq0xYHU5uVzu3ng8/t8LCwunz549W/p7wgxYj7SDAAII+EqAAMtX46JYBBAIuIC89NJLf+P+l/TuS6fTBxsbG18Y8H490Z6U8gn33Xff9zxRDEUggAACDy+QuPTSS69tamr6FEiVFchms/+SSCQGp6am7p2Zmfl6ZXdjdQQQQACBlQoQYK1UiusQQACB6grsvvzyy59hmuZmTdOui0QifHJhBfxt2x4XQjz32LFjRyqwPEsigAACZRW48sorn6KUuqusi7LYjwRyudyCrusfj0aj8319fV8RQoxBgwACCCDgLQECLG/Ng2oQQACBnxFobGxs37p16zMMw9jguu7vRyKR3RCVT6BQKFyfSqX+dnJycrF8q7ISAgggUBmBvXv3HtA07RPRaPSxldkhfKtms9kjsVjsM6lU6nwqlbpzaWkpFT4FOkYAAQT8IUCA5Y85USUCCIRcYNOmTXXNzc2/HIvFdruu+6xIJPK0kJOUpX2l1DV9fX1fE0KosizIIggggEAFBdatW9fQ2dn5ilgs9pEKbhP4pS3LcvL5/Jfj8fjdyWRyUNf1/x0fHy8EvnEaRAABBHwuQIDl8wFSPgIIhEtg165dMcMwdicSiT2FQuEqwzBeHo1G14dLoTzd5nK5L2YymbedO3fuTHlWZBUEEECg8gLd3d1P03X9c/F4vK3yuwVrB8uyphzH+SfXdQ/Pzc0NzM/Pl35NkBezB2vMdIMAAgEWIMAK8HBpDQEEAi2gdXZ2drS3t++WUl5WCrIMw7gq0B2XublisfjSkydPfl4IYZV5aZZDAAEEKiawYcOGdR0dHW+IxWJvrdgmAVs4n89/xzTNW+Lx+OD8/PzpCxcuzPPkbcCGTDsIIBAKAQKsUIyZJhFAIMgCpV8pWb9+/SVCiC3FYvEliUTit6LRKC99f4ShZ7PZz2YymXdNTk6OBPls0BsCCARSQO7bt+/5uq7/o2EY/Fn/MCO2LCtVKBRui8fjny8UCudPnTp1tvSu9kCeCJpCAAEEQiJAgBWSQdMmAgiEQkDfunXr+qampo5cLvfUhoaG1xiGsS0Una+iSdu28/l8/rpTp059Tghhr+JWLkUAAQQ8IbB///5WTdPeYBjGOz1RkIeKcBznTDab/etEIvGNdDo9NzY2NieEcD1UIqUggAACCFykAAHWRcJxGwIIIOBlgdJTWV1dXe2Li4ubdV1/R1NT05N1XY95ueZq1Wbb9p+n0+mPjI6O8klT1UJnHwQQKLvAli1bfqWxsfF9iUTicWVf3GcLuq6bX15evlMpdVNzc/Pc1NTU/MzMTNZnbVAuAggggMCjCBBgcUQQQACBYAvoXV1dzevWrYuPjIw8fdeuXTdrmtYc7JYfvrt8Pv+tbDb71omJiR+E1YC+EUAgGAK9vb3RWCz2Rk3T3huMjlbfheu6S2fOnHnVzp07v72wsJA/e/Zs6QcTPG21ekruQAABBHwhQIDlizFRJAIIIFAWgcgVV1xRNzs7Wx+Pxz/V1NT0tLKs6pNFHMdJmqb5ZwMDA/8ghHB8UjZlIoAAAg8rUHradvPmze/Udf0tYWLKZrNftm37lc3Nzebhw4dLT1rx6+BhOgD0igACoRUgwArt6GkcAQRCLmD09vZq4+PjT9u2bdunE4lEGJ7Kuv7w4cPv4afzIT/5tI9A8AR29fT03FhXV/fC4LX2044KhcLCxMTECy655JLvDgwMlH4IwQ8igjxwekMAAQQeQoAAi2OBAAIIICA2bdrUEY1G39/e3v47QojS3w36A/83CDqlXye56fDhw9fzselBGCc9IIDAzwt0dnY+q62t7d11dXX7A/Jnt3ogoFLJZPLjxWKx9Kmxi0weAQQQQCDcAgRY4Z4/3SOAAAI/L6Bv27btqrq6ur9MJBIH738hblQIEZdS+vXvC9N13Y8eOXLkbUIIk3EjgAACQRXo6Oh4cUdHxzvr6ur2+PHPbKVU6YcNBSmlVSwWf1goFN46MjJyjKdmg3pi6QsBBBBYvYBfvyFZfafcgQACCCCwWoGmzs7OF7S2tr6mvr5+g1KqUQiR8NE3Rnml1Cf6+vr+TAhRXG3zXI8AAgj4TaC1tfUPOzs731xfX7/jgSdpPd2CUqr0pFVOSpnO5/Pnksnkh6empm4v/WeeLpziEEAAAQRqIkCAVRN2NkUAAQR8J7Bt69atr2lubn6GYRgtQoh2KWXp6SzPfZV+iq+USkkp/7mvr+9PeE+K50ZEQQggUEGBjo6Oa9evX//6eDx+UEoZq+BWF720Uqr0Q4V5x3GWlpeXvzI2NvZ3QojzF70gNyKAAAIIhEKAACsUY6ZJBBBAoHwCGzZseFJHR8ero9Horvt/Pa9d07ROKWWkfDusaaW8aZons9ns50ZHRz+8ppW4GQEEEPCvwN7LLrvsnYZhPF1K2eSF92IppUyl1LSmaUuWZQ3Pz8//9dTU1Pf9S0zlCCCAAALVFiDAqrY4+yGAAALBEdDWr1//7E2bNr1M07T1SqmtUsoNUkqtBi1arutOKKW+d/To0XcIISZrUANbIoAAAl4SkHv37n2vYRhXa5p2QNO0eA2KcxzHmdQ07bxS6sKFCxc+OT09/bUa1MGWCCCAAAIBECDACsAQaQEBBBDwgECku7v7FXV1dc8UQtQrpXo0TdtQhbocy7KO6Lo+MT8///fnzp3jG6MqoLMFAgj4SmDj7t27b6qrq9supbxS07T6Slfvuu6klHJYKZWdmpq6dWZm5ou8jL3S6qyPAAIIBF+AACv4M6ZDBBBAoNoCiZ6enuvq6up+VSkVV0qVPtZ9g6ZpejkKsSwr67pufywWm1JKFfr6+m4UQvSXY23WQAABBAIs0Nrb2/sXiURii23bzVLKfbqurytHv6ZpFg3DKP16YOnP4tKnCH7t5MmT/1j69+VYnzUQQAABBBAoCRBgcQ4QQAABBCom0NLS0rJp06bfFUIcSiQSP3rpu1JKdxynUSnVrut6m+u6Da7r1imlfvIerdLHqGualtd1PWVZ1qJhGFOappml2xcWFmbHx8dvFULcW7HCWRgBBBAItsAlu3fvfkljY+PeB/5cNmzbXi+l7JBSNrquW3qSNqqU0qSU9o//TFZKZZRSSU3TFnRdz/74qarFxcVUfX193+Li4q1TU1N8gmCwzw7dIYAAAjUTIMCqGT0bI4AAAqEVMIQQ6zdt2rSjvb39kkKh0GFZVqvruj95P4umacVIJLJUV1d3YXJycnxhYaH0U/3SN0ulj1znCwEEEECgvAKxhoaGS9etW7c9Ho93FovF9gd+sKBLKU1d1/ORSCRpWdb83Nzc5PLy8oQQYoFPeS3vEFgNAQQQQOCRBQiwOCEIIIAAAggggAACCCCAAAIIIIAAAp4WIMDy9HgoDgEEEEAAAQQQQAABBBBAAAEEEECAAIszgAACCCCAAAIIIIAAAggggAACCCDgaQECLE+Ph+IQQAABBBBAAAEEEEAAAQQQQAABBAiwOAMIIIAAAggggAACCCCAAAIIIIAAAp4WIMDy9HgoDgEEEEAAAQQQQAABBBBAAAEEEECAAIszgAACCCCAAAIIIIAAAggggAACCCDgaQECLE+Ph+IQQAABBBBAAAEEEEAAAQQQQAABBAiwOAMIIIAAAggggAACCCCAAAIIIIAAAp4WIMDy9HgoDgEEEEAAAQQQQAABBBBAAAEEEECAAIszgAACCCCAAAIIIIAAAggggAACCCDgaQECLE+Ph+IQQAABBBBAAAEEEEAAAQQQQAABBAiwOAMIIIAAAggggAACCCCAAAIIIIAAAp4WIMDy9HgoDgEEEEAAAQQQQAABBBBAAAEEEEDg/wPAK/vvDwEweAAAAABJRU5ErkJggg==;" parent="WIyWlLk6GJQsqaUBKTNV-1" vertex="1">
          <mxGeometry x="988.524946695096" y="426.4" width="59.3194029850746" height="59.3194029850746" as="geometry" />
        </mxCell>
        <mxCell id="EvqnDXT1oabTCesrc9GO-41" value="" style="group" parent="WIyWlLk6GJQsqaUBKTNV-1" vertex="1" connectable="0">
          <mxGeometry x="992.0999999999999" y="600" width="290" height="313.6" as="geometry" />
        </mxCell>
        <mxCell id="EvqnDXT1oabTCesrc9GO-43" value="&lt;b&gt;GitHub Runner&lt;/b&gt;" style="text;html=1;align=center;verticalAlign=middle;resizable=0;points=[];autosize=1;strokeColor=none;fillColor=none;" parent="EvqnDXT1oabTCesrc9GO-41" vertex="1">
          <mxGeometry x="40" y="70" width="110" height="30" as="geometry" />
        </mxCell>
        <mxCell id="EvqnDXT1oabTCesrc9GO-42" value="run configured tests (unit, nvme, etc.) on&amp;nbsp;guest-guests" style="rounded=1;whiteSpace=wrap;html=1;fillColor=#d5e8d4;strokeColor=#82b366;" parent="EvqnDXT1oabTCesrc9GO-41" vertex="1">
          <mxGeometry x="10.4" y="60.4" width="190" height="79.2" as="geometry" />
        </mxCell>
        <mxCell id="bh0eh2vKuY1DpMpfhebL-16" value="autorun.yml" style="text;html=1;align=center;verticalAlign=middle;resizable=0;points=[];autosize=1;strokeColor=none;fillColor=none;fontStyle=1" vertex="1" parent="EvqnDXT1oabTCesrc9GO-41">
          <mxGeometry x="49" y="40" width="90" height="30" as="geometry" />
        </mxCell>
        <mxCell id="bh0eh2vKuY1DpMpfhebL-22" value="&lt;b&gt;GitHub Runner&lt;/b&gt;" style="text;html=1;align=center;verticalAlign=middle;resizable=0;points=[];autosize=1;strokeColor=none;fillColor=none;" vertex="1" parent="EvqnDXT1oabTCesrc9GO-41">
          <mxGeometry x="40" y="130" width="110" height="30" as="geometry" />
        </mxCell>
        <mxCell id="bh0eh2vKuY1DpMpfhebL-74" value="" style="rounded=1;whiteSpace=wrap;html=1;fillColor=none;" vertex="1" parent="EvqnDXT1oabTCesrc9GO-41">
          <mxGeometry x="-102.10000000000002" y="10" width="367.9" height="200" as="geometry" />
        </mxCell>
        <mxCell id="bh0eh2vKuY1DpMpfhebL-75" value="&lt;font style=&quot;font-size: 20px; background-color: rgb(255, 255, 255);&quot;&gt;Step 3&lt;/font&gt;" style="text;html=1;align=center;verticalAlign=middle;resizable=0;points=[];autosize=1;strokeColor=none;fillColor=none;" vertex="1" parent="WIyWlLk6GJQsqaUBKTNV-1">
          <mxGeometry x="850" y="700" width="80" height="40" as="geometry" />
        </mxCell>
        <mxCell id="bh0eh2vKuY1DpMpfhebL-78" style="edgeStyle=orthogonalEdgeStyle;rounded=0;orthogonalLoop=1;jettySize=auto;html=1;entryX=0.875;entryY=0.5;entryDx=0;entryDy=0;entryPerimeter=0;" edge="1" parent="WIyWlLk6GJQsqaUBKTNV-1" source="EvqnDXT1oabTCesrc9GO-42" target="EvqnDXT1oabTCesrc9GO-26">
          <mxGeometry relative="1" as="geometry">
            <mxPoint x="1360" y="351.87" as="targetPoint" />
            <Array as="points">
              <mxPoint x="1380" y="700" />
              <mxPoint x="1380" y="195" />
            </Array>
          </mxGeometry>
        </mxCell>
        <mxCell id="bh0eh2vKuY1DpMpfhebL-79" value="Post CI Vote" style="edgeLabel;html=1;align=center;verticalAlign=middle;resizable=0;points=[];" vertex="1" connectable="0" parent="bh0eh2vKuY1DpMpfhebL-78">
          <mxGeometry x="0.0172" relative="1" as="geometry">
            <mxPoint as="offset" />
          </mxGeometry>
        </mxCell>
        <mxCell id="bh0eh2vKuY1DpMpfhebL-80" value="" style="group" vertex="1" connectable="0" parent="WIyWlLk6GJQsqaUBKTNV-1">
          <mxGeometry x="150" y="236.87" width="640" height="435" as="geometry" />
        </mxCell>
        <mxCell id="bh0eh2vKuY1DpMpfhebL-71" value="&lt;font style=&quot;font-size: 20px;&quot;&gt;Step 1&lt;/font&gt;" style="text;html=1;align=center;verticalAlign=middle;resizable=0;points=[];autosize=1;strokeColor=none;fillColor=none;container=0;" vertex="1" parent="bh0eh2vKuY1DpMpfhebL-80">
          <mxGeometry x="275" width="80" height="40" as="geometry" />
        </mxCell>
        <mxCell id="bh0eh2vKuY1DpMpfhebL-4" value="&lt;b style=&quot;forced-color-adjust: none; color: rgb(0, 0, 0); font-family: Helvetica; font-size: 12px; font-style: normal; font-variant-ligatures: normal; font-variant-caps: normal; letter-spacing: normal; orphans: 2; text-align: center; text-indent: 0px; text-transform: none; widows: 2; word-spacing: 0px; -webkit-text-stroke-width: 0px; white-space: nowrap; background-color: rgb(251, 251, 251); text-decoration-thickness: initial; text-decoration-style: initial; text-decoration-color: initial;&quot;&gt;GitHub Runner&lt;/b&gt;" style="text;whiteSpace=wrap;html=1;container=0;" vertex="1" parent="bh0eh2vKuY1DpMpfhebL-80">
          <mxGeometry x="105" y="325" width="90" height="30" as="geometry" />
        </mxCell>
        <mxCell id="EvqnDXT1oabTCesrc9GO-21" value="&lt;b&gt;Docker image&lt;/b&gt;" style="text;html=1;align=center;verticalAlign=middle;resizable=0;points=[];autosize=1;strokeColor=none;fillColor=none;container=0;" parent="bh0eh2vKuY1DpMpfhebL-80" vertex="1">
          <mxGeometry x="347.57142857142856" y="225" width="100" height="30" as="geometry" />
        </mxCell>
        <mxCell id="EvqnDXT1oabTCesrc9GO-24" value="containers with all dependencies for building SPDK" style="ellipse;shape=cloud;whiteSpace=wrap;html=1;fillColor=#dae8fc;strokeColor=#6c8ebf;container=0;" parent="bh0eh2vKuY1DpMpfhebL-80" vertex="1">
          <mxGeometry x="286.7142857142857" y="235" width="233.28571428571428" height="130" as="geometry" />
        </mxCell>
        <mxCell id="EvqnDXT1oabTCesrc9GO-63" value="&lt;b&gt;ghcr.io&lt;/b&gt;" style="shape=cube;whiteSpace=wrap;html=1;boundedLbl=1;backgroundOutline=1;darkOpacity=0.05;darkOpacity2=0.1;container=0;" parent="bh0eh2vKuY1DpMpfhebL-80" vertex="1">
          <mxGeometry x="255" y="260" width="50" height="80" as="geometry" />
        </mxCell>
        <mxCell id="EvqnDXT1oabTCesrc9GO-60" value="&lt;span style=&quot;text-wrap-mode: nowrap;&quot;&gt;&lt;b&gt;build_container.yml&lt;/b&gt;&lt;/span&gt;" style="rounded=1;whiteSpace=wrap;html=1;fillColor=#d5e8d4;strokeColor=#82b366;container=0;" parent="bh0eh2vKuY1DpMpfhebL-80" vertex="1">
          <mxGeometry x="85" y="268.75" width="130" height="62.5" as="geometry" />
        </mxCell>
        <mxCell id="EvqnDXT1oabTCesrc9GO-66" style="edgeStyle=orthogonalEdgeStyle;rounded=0;orthogonalLoop=1;jettySize=auto;html=1;entryX=0.102;entryY=0.494;entryDx=0;entryDy=0;entryPerimeter=0;" parent="bh0eh2vKuY1DpMpfhebL-80" source="EvqnDXT1oabTCesrc9GO-60" target="EvqnDXT1oabTCesrc9GO-24" edge="1">
          <mxGeometry relative="1" as="geometry" />
        </mxCell>
        <mxCell id="bh0eh2vKuY1DpMpfhebL-67" value="" style="rounded=1;whiteSpace=wrap;html=1;fillColor=none;container=0;" vertex="1" parent="bh0eh2vKuY1DpMpfhebL-80">
          <mxGeometry y="35" width="640" height="400" as="geometry" />
        </mxCell>
        <mxCell id="EvqnDXT1oabTCesrc9GO-14" value="&lt;b&gt;S3 compatible storage&lt;/b&gt;" style="shape=cube;whiteSpace=wrap;html=1;boundedLbl=1;backgroundOutline=1;darkOpacity=0.05;darkOpacity2=0.1;container=0;" parent="bh0eh2vKuY1DpMpfhebL-80" vertex="1">
          <mxGeometry x="240" y="100" width="50" height="80" as="geometry" />
        </mxCell>
        <mxCell id="EvqnDXT1oabTCesrc9GO-5" style="edgeStyle=orthogonalEdgeStyle;rounded=0;orthogonalLoop=1;jettySize=auto;html=1;exitX=1;exitY=0.5;exitDx=0;exitDy=0;" parent="bh0eh2vKuY1DpMpfhebL-80" source="EvqnDXT1oabTCesrc9GO-61" edge="1">
          <mxGeometry relative="1" as="geometry">
            <mxPoint x="170" y="140" as="sourcePoint" />
            <mxPoint x="308" y="140" as="targetPoint" />
          </mxGeometry>
        </mxCell>
        <mxCell id="EvqnDXT1oabTCesrc9GO-61" value="&lt;span style=&quot;text-wrap-mode: nowrap;&quot;&gt;&lt;b&gt;build_qcow2.yml&lt;/b&gt;&lt;/span&gt;" style="rounded=1;whiteSpace=wrap;html=1;fillColor=#d5e8d4;strokeColor=#82b366;container=0;" parent="bh0eh2vKuY1DpMpfhebL-80" vertex="1">
          <mxGeometry x="80" y="105" width="130" height="63.75" as="geometry" />
        </mxCell>
        <mxCell id="bh0eh2vKuY1DpMpfhebL-3" value="&lt;b&gt;GitHub Runner&lt;/b&gt;" style="text;html=1;align=center;verticalAlign=middle;resizable=0;points=[];autosize=1;strokeColor=none;fillColor=none;container=0;" vertex="1" parent="bh0eh2vKuY1DpMpfhebL-80">
          <mxGeometry x="85.41666666666666" y="158.125" width="110" height="30" as="geometry" />
        </mxCell>
        <mxCell id="EvqnDXT1oabTCesrc9GO-50" value="qcow2 images with all dependencies for building/running SPDK" style="ellipse;shape=cloud;whiteSpace=wrap;html=1;fillColor=#dae8fc;strokeColor=#6c8ebf;container=0;" parent="bh0eh2vKuY1DpMpfhebL-80" vertex="1">
          <mxGeometry x="280" y="65" width="240" height="130" as="geometry" />
        </mxCell>
        <mxCell id="EvqnDXT1oabTCesrc9GO-13" value="&lt;b&gt;qcow2 image&lt;/b&gt;" style="text;html=1;align=center;verticalAlign=middle;resizable=0;points=[];autosize=1;strokeColor=none;fillColor=none;container=0;" parent="bh0eh2vKuY1DpMpfhebL-80" vertex="1">
          <mxGeometry x="340" y="55" width="100" height="30" as="geometry" />
        </mxCell>
        <mxCell id="bh0eh2vKuY1DpMpfhebL-72" value="" style="rounded=1;whiteSpace=wrap;html=1;fillColor=none;" vertex="1" parent="WIyWlLk6GJQsqaUBKTNV-1">
          <mxGeometry x="880" y="270" width="370" height="300" as="geometry" />
        </mxCell>
      </root>
    </mxGraphModel>
  </diagram>
</mxfile>
